<svg width="80" height="80" viewBox="0 0 80 80" fill="none" xmlns="http://www.w3.org/2000/svg">
<path d="M38.472 66.6666H7.99719C5.05172 66.6666 2.66406 64.2788 2.66406 61.3334V56H43.5948L38.472 66.6666Z" fill="#D3DCFB"/>
<path d="M72.0025 23.9995V46.4054V61.3326H7.99719C5.05172 61.3326 2.66406 58.9448 2.66406 55.9993V23.9995L40 10.666L72.0025 23.9995Z" fill="#EBF5FC"/>
<path d="M12.0833 34.6673H9.25C8.55969 34.6673 8 34.1076 8 33.4173V30.584C8 29.8937 8.55969 29.334 9.25 29.334H12.0833C12.7736 29.334 13.3333 29.8937 13.3333 30.584V33.4173C13.3333 34.1076 12.7736 34.6673 12.0833 34.6673Z" fill="#051878"/>
<path d="M22.7473 34.6673H19.9141C19.2237 34.6673 18.6641 34.1076 18.6641 33.4173V30.584C18.6641 29.8937 19.2237 29.334 19.9141 29.334H22.7473C23.4377 29.334 23.9973 29.8937 23.9973 30.584V33.4173C23.9973 34.1076 23.4377 34.6673 22.7473 34.6673Z" fill="#051878"/>
<path d="M33.4192 34.6673H30.5859C29.8956 34.6673 29.3359 34.1076 29.3359 33.4173V30.584C29.3359 29.8937 29.8956 29.334 30.5859 29.334H33.4192C34.1095 29.334 34.6692 29.8937 34.6692 30.584V33.4173C34.6692 34.1076 34.1097 34.6673 33.4192 34.6673Z" fill="#051878"/>
<path d="M44.0833 34.6673H41.25C40.5597 34.6673 40 34.1076 40 33.4173V30.584C40 29.8937 40.5597 29.334 41.25 29.334H44.0833C44.7736 29.334 45.3333 29.8937 45.3333 30.584V33.4173C45.3333 34.1076 44.7736 34.6673 44.0833 34.6673Z" fill="#051878"/>
<path d="M54.7473 34.6673H51.9141C51.2237 34.6673 50.6641 34.1076 50.6641 33.4173V30.584C50.6641 29.8937 51.2237 29.334 51.9141 29.334H54.7473C55.4377 29.334 55.9973 29.8937 55.9973 30.584V33.4173C55.9973 34.1076 55.4378 34.6673 54.7473 34.6673Z" fill="#051878"/>
<path d="M65.4153 34.6673H62.582C61.8917 34.6673 61.332 34.1076 61.332 33.4173V30.584C61.332 29.8937 61.8917 29.334 62.582 29.334H65.4153C66.1056 29.334 66.6653 29.8937 66.6653 30.584V33.4173C66.6653 34.1076 66.1056 34.6673 65.4153 34.6673Z" fill="#051878"/>
<path d="M12.0833 45.3333H9.25C8.55969 45.3333 8 44.7736 8 44.0833V41.25C8 40.5597 8.55969 40 9.25 40H12.0833C12.7736 40 13.3333 40.5597 13.3333 41.25V44.0833C13.3333 44.7737 12.7736 45.3333 12.0833 45.3333Z" fill="#051878"/>
<path d="M22.7473 45.3333H19.9141C19.2237 45.3333 18.6641 44.7736 18.6641 44.0833V41.25C18.6641 40.5597 19.2237 40 19.9141 40H22.7473C23.4377 40 23.9973 40.5597 23.9973 41.25V44.0833C23.9973 44.7737 23.4377 45.3333 22.7473 45.3333Z" fill="#051878"/>
<path d="M33.4192 45.3333H30.5859C29.8956 45.3333 29.3359 44.7736 29.3359 44.0833V41.25C29.3359 40.5597 29.8956 40 30.5859 40H33.4192C34.1095 40 34.6692 40.5597 34.6692 41.25V44.0833C34.6692 44.7737 34.1097 45.3333 33.4192 45.3333Z" fill="#051878"/>
<path d="M45.3333 45.3333V41.3333C45.3333 40.5969 44.7364 40 44 40H41.3333C40.5969 40 40 40.5969 40 41.3333V44C40 44.7364 40.597 45.3333 41.3333 45.3333H45.3333Z" fill="#051878"/>
<path d="M12.0833 56.0012H9.25C8.55969 56.0012 8 55.4416 8 54.7512V51.918C8 51.2277 8.55969 50.668 9.25 50.668H12.0833C12.7736 50.668 13.3333 51.2277 13.3333 51.918V54.7512C13.3333 55.4416 12.7736 56.0012 12.0833 56.0012Z" fill="#051878"/>
<path d="M22.7473 56.0012H19.9141C19.2237 56.0012 18.6641 55.4416 18.6641 54.7512V51.918C18.6641 51.2277 19.2237 50.668 19.9141 50.668H22.7473C23.4377 50.668 23.9973 51.2277 23.9973 51.918V54.7512C23.9973 55.4416 23.4377 56.0012 22.7473 56.0012Z" fill="#051878"/>
<path d="M33.4192 56.0012H30.5859C29.8956 56.0012 29.3359 55.4416 29.3359 54.7512V51.918C29.3359 51.2277 29.8956 50.668 30.5859 50.668H33.4192C34.1095 50.668 34.6692 51.2277 34.6692 51.918V54.7512C34.6692 55.4416 34.1097 56.0012 33.4192 56.0012Z" fill="#051878"/>
<path d="M65.3745 29.334H62.6167C62.4498 29.334 62.2909 29.3668 62.1445 29.4245C62.6219 29.6129 62.96 30.0773 62.96 30.6216V33.3795C62.96 33.9238 62.6217 34.3882 62.1445 34.5766C62.2909 34.6345 62.4498 34.6673 62.6167 34.6673H65.3745C66.0858 34.6673 66.6623 34.0907 66.6623 33.3796V30.6218C66.6622 29.9105 66.0856 29.334 65.3745 29.334Z" fill="#051878"/>
<path d="M54.7105 29.334H51.9527C51.7858 29.334 51.6269 29.3668 51.4805 29.4245C51.9578 29.6129 52.2959 30.0773 52.2959 30.6216V33.3795C52.2959 33.9238 51.9577 34.3882 51.4805 34.5766C51.6269 34.6345 51.7858 34.6673 51.9527 34.6673H54.7105C55.4217 34.6673 55.9981 34.0907 55.9981 33.3796V30.6218C55.9981 29.9105 55.4217 29.334 54.7105 29.334Z" fill="#051878"/>
<path d="M44.0425 29.334H41.2847C41.1178 29.334 40.9589 29.3668 40.8125 29.4245C41.2898 29.6129 41.6281 30.0773 41.6281 30.6216V33.3795C41.6281 33.9238 41.2898 34.3882 40.8125 34.5766C40.9589 34.6345 41.1178 34.6673 41.2847 34.6673H44.0425C44.7537 34.6673 45.3303 34.0907 45.3303 33.3796V30.6218C45.3302 29.9105 44.7536 29.334 44.0425 29.334Z" fill="#051878"/>
<path d="M33.3784 29.334H30.6206C30.4538 29.334 30.2948 29.3668 30.1484 29.4245C30.6258 29.6129 30.9641 30.0773 30.9641 30.6216V33.3795C30.9641 33.9238 30.6258 34.3882 30.1484 34.5766C30.2948 34.6345 30.4538 34.6673 30.6206 34.6673H33.3784C34.0897 34.6673 34.6663 34.0907 34.6663 33.3796V30.6218C34.6661 29.9105 34.0897 29.334 33.3784 29.334Z" fill="#051878"/>
<path d="M22.7105 29.334H19.9527C19.7858 29.334 19.6269 29.3668 19.4805 29.4245C19.9578 29.6129 20.2959 30.0773 20.2959 30.6216V33.3795C20.2959 33.9238 19.9577 34.3882 19.4805 34.5766C19.6269 34.6345 19.7858 34.6673 19.9527 34.6673H22.7105C23.4217 34.6673 23.9983 34.0907 23.9983 33.3796V30.6218C23.9983 29.9105 23.4217 29.334 22.7105 29.334Z" fill="#051878"/>
<path d="M12.0425 29.334H9.28469C9.11781 29.334 8.95891 29.3668 8.8125 29.4245C9.28984 29.6129 9.62813 30.0773 9.62813 30.6216V33.3795C9.62813 33.9238 9.28984 34.3882 8.8125 34.5766C8.95891 34.6345 9.11781 34.6673 9.28469 34.6673H12.0425C12.7538 34.6673 13.3303 34.0907 13.3303 33.3796V30.6218C13.3302 29.9105 12.7536 29.334 12.0425 29.334Z" fill="#051878"/>
<path d="M12.0425 40H9.28469C9.11781 40 8.95891 40.0328 8.8125 40.0905C9.28984 40.2789 9.62813 40.7433 9.62813 41.2877V44.0456C9.62813 44.59 9.28984 45.0544 8.8125 45.2428C8.95891 45.3006 9.11781 45.3334 9.28469 45.3334H12.0425C12.7538 45.3334 13.3303 44.7569 13.3303 44.0458V41.2878C13.3302 40.5766 12.7536 40 12.0425 40Z" fill="#051878"/>
<path d="M12.0425 50.666H9.28469C9.11781 50.666 8.95891 50.6988 8.8125 50.7565C9.28984 50.9449 9.62813 51.4093 9.62813 51.9537V54.7116C9.62813 55.256 9.28984 55.7204 8.8125 55.9088C8.95891 55.9666 9.11781 55.9995 9.28469 55.9995H12.0425C12.7538 55.9995 13.3303 55.4229 13.3303 54.7118V51.9538C13.3302 51.2424 12.7536 50.666 12.0425 50.666Z" fill="#051878"/>
<path d="M22.7105 40H19.9527C19.7858 40 19.6269 40.0328 19.4805 40.0905C19.9578 40.2789 20.2959 40.7433 20.2959 41.2877V44.0456C20.2959 44.59 19.9577 45.0544 19.4805 45.2428C19.6269 45.3006 19.7858 45.3334 19.9527 45.3334H22.7105C23.4217 45.3334 23.9983 44.7569 23.9983 44.0458V41.2878C23.9983 40.5766 23.4217 40 22.7105 40Z" fill="#051878"/>
<path d="M22.7105 50.666H19.9527C19.7858 50.666 19.6269 50.6988 19.4805 50.7565C19.9578 50.9449 20.2959 51.4093 20.2959 51.9537V54.7116C20.2959 55.256 19.9577 55.7204 19.4805 55.9088C19.6269 55.9666 19.7858 55.9995 19.9527 55.9995H22.7105C23.4217 55.9995 23.9983 55.4229 23.9983 54.7118V51.9538C23.9983 51.2424 23.4217 50.666 22.7105 50.666Z" fill="#051878"/>
<path d="M33.3784 40H30.6206C30.4538 40 30.2948 40.0328 30.1484 40.0905C30.6258 40.2789 30.9641 40.7433 30.9641 41.2877V44.0456C30.9641 44.59 30.6258 45.0544 30.1484 45.2428C30.2948 45.3006 30.4538 45.3334 30.6206 45.3334H33.3784C34.0897 45.3334 34.6663 44.7569 34.6663 44.0458V41.2878C34.6661 40.5766 34.0897 40 33.3784 40Z" fill="#051878"/>
<path d="M45.3342 45.3333V41.2877C45.3342 40.5764 44.7577 40 44.0464 40H41.2886C41.1217 40 40.9628 40.0328 40.8164 40.0905C41.2938 40.2789 41.632 40.7433 41.632 41.2877V44.0456C41.632 44.59 41.2938 45.0544 40.8164 45.2428C40.9628 45.3006 41.1217 45.3334 41.2886 45.3334H45.3342V45.3333Z" fill="#051878"/>
<path d="M33.3784 50.666H30.6206C30.4538 50.666 30.2948 50.6988 30.1484 50.7565C30.6258 50.9449 30.9641 51.4093 30.9641 51.9537V54.7116C30.9641 55.256 30.6258 55.7204 30.1484 55.9088C30.2948 55.9666 30.4538 55.9995 30.6206 55.9995H33.3784C34.0897 55.9995 34.6663 55.4229 34.6663 54.7118V51.9538C34.6661 51.2424 34.0897 50.666 33.3784 50.666Z" fill="#051878"/>
<path d="M68.2969 22.457V46.4066V61.3339H72.0017V46.4066V24.0006L68.2969 22.457Z" fill="#D3DCFB"/>
<path d="M72.0025 24.0005V10.6671C72.0025 7.72164 69.6147 5.33398 66.6694 5.33398H7.99719C5.05172 5.33398 2.66406 7.72164 2.66406 10.6671V24.0005H72.0025Z" fill="#F3C15E"/>
<path d="M19.4677 11.8734H15.9962C15.3294 11.8734 14.7891 11.3329 14.7891 10.6662C14.7891 9.99945 15.3295 9.45898 15.9962 9.45898H19.4677C20.1345 9.45898 20.6748 9.99945 20.6748 10.6662C20.6748 11.3329 20.1344 11.8734 19.4677 11.8734Z" fill="#D9A328"/>
<path d="M27.9989 11.8734H24.5275C23.8606 11.8734 23.3203 11.3329 23.3203 10.6662C23.3203 9.99945 23.8608 9.45898 24.5275 9.45898H27.9989C28.6658 9.45898 29.2061 9.99945 29.2061 10.6662C29.2061 11.3329 28.6658 11.8734 27.9989 11.8734Z" fill="#D9A328"/>
<path d="M50.1358 11.8734H46.6642C45.9973 11.8734 45.457 11.3329 45.457 10.6662C45.457 9.99945 45.9975 9.45898 46.6642 9.45898H50.1358C50.8027 9.45898 51.343 9.99945 51.343 10.6662C51.343 11.3329 50.8027 11.8734 50.1358 11.8734Z" fill="#D9A328"/>
<path d="M58.6631 11.8734H55.1916C54.5247 11.8734 53.9844 11.3329 53.9844 10.6662C53.9844 9.99945 54.5248 9.45898 55.1916 9.45898H58.6631C59.33 9.45898 59.8703 9.99945 59.8703 10.6662C59.8703 11.3329 59.3298 11.8734 58.6631 11.8734Z" fill="#D9A328"/>
<path d="M25.3306 10C25.3306 11.8409 23.8383 13.3333 21.9973 13.3333C20.1564 13.3333 18.6641 11.8409 18.6641 10V3.33328C18.6639 1.49234 20.1563 0 21.9972 0C23.8381 0 25.3305 1.49234 25.3305 3.33328V10H25.3306Z" fill="#EBF5FC"/>
<path d="M55.9988 10C55.9988 11.8409 54.5064 13.3333 52.6655 13.3333C50.8245 13.3333 49.332 11.8409 49.332 10V3.33328C49.332 1.49234 50.8244 0 52.6653 0C54.5063 0 55.9986 1.49234 55.9986 3.33328V10H55.9988Z" fill="#EBF5FC"/>
<path d="M52.6658 0C51.9814 0 51.3458 0.206875 50.8164 0.560625C51.7109 1.15844 52.3005 2.17672 52.3005 3.33344V10C52.3005 11.1566 51.7109 12.175 50.8164 12.7728C51.3456 13.1264 51.9814 13.3334 52.6658 13.3334C54.5067 13.3334 55.9991 11.8411 55.9991 10.0002V3.33328C55.9992 1.49234 54.5069 0 52.6658 0Z" fill="#D3DCFB"/>
<path d="M21.9978 0C21.3134 0 20.6778 0.206875 20.1484 0.560625C21.043 1.15844 21.6325 2.17672 21.6325 3.33344V10C21.6325 11.1566 21.043 12.175 20.1484 12.7728C20.6777 13.1264 21.3134 13.3334 21.9978 13.3334C23.8387 13.3334 25.3311 11.8411 25.3311 10.0002V3.33328C25.3312 1.49234 23.8389 0 21.9978 0Z" fill="#D3DCFB"/>
<path d="M66.6723 5.33398H62.9688C65.9142 5.33398 68.3019 7.72164 68.3019 10.6671V24.0007H72.0053V10.6673C72.0055 7.7218 69.6177 5.33398 66.6723 5.33398Z" fill="#D9A328"/>
<path d="M2.66406 17.459H72.0027V19.8735H2.66406V17.459Z" fill="#D9A328"/>
<path d="M57.3359 80C68.3816 80 77.3359 71.0457 77.3359 60C77.3359 48.9543 68.3816 40 57.3359 40C46.2902 40 37.3359 48.9543 37.3359 60C37.3359 71.0457 46.2902 80 57.3359 80Z" fill="#4FABF7"/>
<path d="M57.3308 74.6674C65.431 74.6674 71.9975 68.1009 71.9975 60.0007C71.9975 51.9005 65.431 45.334 57.3308 45.334C49.2306 45.334 42.6641 51.9005 42.6641 60.0007C42.6641 68.1009 49.2306 74.6674 57.3308 74.6674Z" fill="#EBF5FC"/>
<path d="M57.3322 58.5401C56.6653 58.5401 56.125 57.9996 56.125 57.3329V50.6662C56.125 49.9995 56.6655 49.459 57.3322 49.459C57.9991 49.459 58.5394 49.9995 58.5394 50.6662V57.3329C58.5394 57.9996 57.9989 58.5401 57.3322 58.5401Z" fill="#051878"/>
<path d="M64.0003 61.2073H60.0002C59.3333 61.2073 58.793 60.6669 58.793 60.0002C58.793 59.3334 59.3334 58.793 60.0002 58.793H64.0003C64.6672 58.793 65.2075 59.3334 65.2075 60.0002C65.2075 60.6669 64.667 61.2073 64.0003 61.2073Z" fill="#051878"/>
<path d="M57.3317 40C56.7075 40 56.0903 40.0302 55.4806 40.0861C65.6583 41.0203 73.6294 49.5786 73.6294 60C73.6294 70.4214 65.6581 78.9797 55.4805 79.9139C56.0902 79.9698 56.7073 80 57.3316 80C68.3772 80 77.3316 71.0456 77.3316 60C77.3316 48.9544 68.3773 40 57.3317 40Z" fill="#1886EA"/>
<path d="M57.3342 45.334C56.7077 45.334 56.0903 45.3735 55.4844 45.4498C62.7112 46.3593 68.3013 52.5271 68.3013 60.0007C68.3013 67.4743 62.7112 73.6421 55.4844 74.5516C56.0903 74.6279 56.7077 74.6674 57.3342 74.6674C65.4344 74.6674 72.0009 68.1009 72.0009 60.0007C72.0009 51.9005 65.4344 45.334 57.3342 45.334Z" fill="#D3DCFB"/>
<path d="M57.3308 62.6674C58.8036 62.6674 59.9975 61.4735 59.9975 60.0007C59.9975 58.5279 58.8036 57.334 57.3308 57.334C55.858 57.334 54.6641 58.5279 54.6641 60.0007C54.6641 61.4735 55.858 62.6674 57.3308 62.6674Z" fill="#F2BD53"/>
</svg>
