<svg width="38" height="38" viewBox="0 0 38 38" fill="none" xmlns="http://www.w3.org/2000/svg">
<path d="M37.375 8.49988C37.375 7.10749 36.8219 5.77213 35.8373 4.78757C34.8527 3.803 33.5174 3.24988 32.125 3.24988H30.8125V1.97429C30.8125 1.26801 30.2695 0.661794 29.5632 0.626521C29.3857 0.617971 29.2084 0.645539 29.0419 0.707556C28.8754 0.769573 28.7232 0.864747 28.5946 0.987312C28.4659 1.10988 28.3635 1.25728 28.2936 1.42059C28.2236 1.5839 28.1875 1.75971 28.1875 1.93738V3.24988H9.8125V1.97429C9.8125 1.26801 9.26945 0.661794 8.56316 0.626521C8.3857 0.617971 8.20835 0.645539 8.04186 0.707556C7.87537 0.769573 7.7232 0.864747 7.59457 0.987312C7.46595 1.10988 7.36355 1.25728 7.29358 1.42059C7.2236 1.5839 7.18752 1.75971 7.1875 1.93738V3.24988H5.875C4.48261 3.24988 3.14726 3.803 2.16269 4.78757C1.17812 5.77213 0.625 7.10749 0.625 8.49988V9.48425C0.625 9.57128 0.65957 9.65474 0.721106 9.71627C0.782641 9.77781 0.866101 9.81238 0.953125 9.81238H37.0469C37.1339 9.81238 37.2174 9.77781 37.2789 9.71627C37.3404 9.65474 37.375 9.57128 37.375 9.48425V8.49988ZM0.625 32.1249C0.625 33.5173 1.17812 34.8526 2.16269 35.8372C3.14726 36.8218 4.48261 37.3749 5.875 37.3749H32.125C33.5174 37.3749 34.8527 36.8218 35.8373 35.8372C36.8219 34.8526 37.375 33.5173 37.375 32.1249V12.6835C37.375 12.6182 37.3491 12.5556 37.3029 12.5095C37.2568 12.4633 37.1942 12.4374 37.1289 12.4374H0.871094C0.805826 12.4374 0.743231 12.4633 0.697079 12.5095C0.650928 12.5556 0.625 12.6182 0.625 12.6835V32.1249ZM28.8438 15.0624C29.2331 15.0624 29.6138 15.1778 29.9375 15.3942C30.2613 15.6105 30.5136 15.918 30.6626 16.2777C30.8116 16.6375 30.8506 17.0333 30.7747 17.4152C30.6987 17.7971 30.5112 18.1479 30.2359 18.4232C29.9605 18.6986 29.6097 18.8861 29.2278 18.962C28.8459 19.038 28.4501 18.999 28.0903 18.85C27.7306 18.701 27.4231 18.4487 27.2068 18.1249C26.9905 17.8011 26.875 17.4205 26.875 17.0311C26.875 16.509 27.0824 16.0082 27.4516 15.639C27.8208 15.2698 28.3216 15.0624 28.8438 15.0624ZM28.8438 21.6249C29.2331 21.6249 29.6138 21.7403 29.9375 21.9567C30.2613 22.173 30.5136 22.4805 30.6626 22.8402C30.8116 23.2 30.8506 23.5958 30.7747 23.9777C30.6987 24.3596 30.5112 24.7104 30.2359 24.9857C29.9605 25.2611 29.6097 25.4486 29.2278 25.5245C28.8459 25.6005 28.4501 25.5615 28.0903 25.4125C27.7306 25.2635 27.4231 25.0112 27.2068 24.6874C26.9905 24.3636 26.875 23.983 26.875 23.5936C26.875 23.0715 27.0824 22.5707 27.4516 22.2015C27.8208 21.8323 28.3216 21.6249 28.8438 21.6249ZM22.2812 15.0624C22.6706 15.0624 23.0513 15.1778 23.375 15.3942C23.6988 15.6105 23.9511 15.918 24.1001 16.2777C24.2491 16.6375 24.2881 17.0333 24.2122 17.4152C24.1362 17.7971 23.9487 18.1479 23.6734 18.4232C23.398 18.6986 23.0472 18.8861 22.6653 18.962C22.2834 19.038 21.8876 18.999 21.5278 18.85C21.1681 18.701 20.8606 18.4487 20.6443 18.1249C20.428 17.8011 20.3125 17.4205 20.3125 17.0311C20.3125 16.509 20.5199 16.0082 20.8891 15.639C21.2583 15.2698 21.7591 15.0624 22.2812 15.0624ZM22.2812 21.6249C22.6706 21.6249 23.0513 21.7403 23.375 21.9567C23.6988 22.173 23.9511 22.4805 24.1001 22.8402C24.2491 23.2 24.2881 23.5958 24.2122 23.9777C24.1362 24.3596 23.9487 24.7104 23.6734 24.9857C23.398 25.2611 23.0472 25.4486 22.6653 25.5245C22.2834 25.6005 21.8876 25.5615 21.5278 25.4125C21.1681 25.2635 20.8606 25.0112 20.6443 24.6874C20.428 24.3636 20.3125 23.983 20.3125 23.5936C20.3125 23.0715 20.5199 22.5707 20.8891 22.2015C21.2583 21.8323 21.7591 21.6249 22.2812 21.6249ZM22.2812 28.1874C22.6706 28.1874 23.0513 28.3028 23.375 28.5192C23.6988 28.7355 23.9511 29.043 24.1001 29.4027C24.2491 29.7625 24.2881 30.1583 24.2122 30.5402C24.1362 30.9221 23.9487 31.2729 23.6734 31.5482C23.398 31.8236 23.0472 32.0111 22.6653 32.087C22.2834 32.163 21.8876 32.124 21.5278 31.975C21.1681 31.826 20.8606 31.5737 20.6443 31.2499C20.428 30.9261 20.3125 30.5455 20.3125 30.1561C20.3125 29.634 20.5199 29.1332 20.8891 28.764C21.2583 28.3948 21.7591 28.1874 22.2812 28.1874ZM15.7188 21.6249C16.1081 21.6249 16.4888 21.7403 16.8125 21.9567C17.1363 22.173 17.3886 22.4805 17.5376 22.8402C17.6866 23.2 17.7256 23.5958 17.6497 23.9777C17.5737 24.3596 17.3862 24.7104 17.1109 24.9857C16.8355 25.2611 16.4847 25.4486 16.1028 25.5245C15.7209 25.6005 15.3251 25.5615 14.9653 25.4125C14.6056 25.2635 14.2981 25.0112 14.0818 24.6874C13.8655 24.3636 13.75 23.983 13.75 23.5936C13.75 23.0715 13.9574 22.5707 14.3266 22.2015C14.6958 21.8323 15.1966 21.6249 15.7188 21.6249ZM15.7188 28.1874C16.1081 28.1874 16.4888 28.3028 16.8125 28.5192C17.1363 28.7355 17.3886 29.043 17.5376 29.4027C17.6866 29.7625 17.7256 30.1583 17.6497 30.5402C17.5737 30.9221 17.3862 31.2729 17.1109 31.5482C16.8355 31.8236 16.4847 32.0111 16.1028 32.087C15.7209 32.163 15.3251 32.124 14.9653 31.975C14.6056 31.826 14.2981 31.5737 14.0818 31.2499C13.8655 30.9261 13.75 30.5455 13.75 30.1561C13.75 29.634 13.9574 29.1332 14.3266 28.764C14.6958 28.3948 15.1966 28.1874 15.7188 28.1874ZM9.15625 21.6249C9.54563 21.6249 9.92627 21.7403 10.25 21.9567C10.5738 22.173 10.8261 22.4805 10.9751 22.8402C11.1241 23.2 11.1631 23.5958 11.0872 23.9777C11.0112 24.3596 10.8237 24.7104 10.5484 24.9857C10.273 25.2611 9.92223 25.4486 9.54033 25.5245C9.15843 25.6005 8.76258 25.5615 8.40284 25.4125C8.0431 25.2635 7.73562 25.0112 7.51929 24.6874C7.30297 24.3636 7.1875 23.983 7.1875 23.5936C7.1875 23.0715 7.39492 22.5707 7.76413 22.2015C8.13335 21.8323 8.6341 21.6249 9.15625 21.6249ZM9.15625 28.1874C9.54563 28.1874 9.92627 28.3028 10.25 28.5192C10.5738 28.7355 10.8261 29.043 10.9751 29.4027C11.1241 29.7625 11.1631 30.1583 11.0872 30.5402C11.0112 30.9221 10.8237 31.2729 10.5484 31.5482C10.273 31.8236 9.92223 32.0111 9.54033 32.087C9.15843 32.163 8.76258 32.124 8.40284 31.975C8.0431 31.826 7.73562 31.5737 7.51929 31.2499C7.30297 30.9261 7.1875 30.5455 7.1875 30.1561C7.1875 29.634 7.39492 29.1332 7.76413 28.764C8.13335 28.3948 8.6341 28.1874 9.15625 28.1874Z" fill="#F3C15E"/>
</svg>
