<svg width="24" height="24" viewBox="0 0 24 24" fill="none" xmlns="http://www.w3.org/2000/svg">
<path d="M5 9.25H4.747C3.37 9.25 2.25 10.371 2.25 11.748V14.253C2.25 15.63 3.37 16.75 4.747 16.75H5C5.965 16.75 6.75 15.965 6.75 15V11C6.75 10.035 5.965 9.25 5 9.25ZM19.253 9.25H19C18.035 9.25 17.25 10.035 17.25 11V15C17.25 15.965 18.035 16.75 19 16.75H19.253C20.63 16.75 21.75 15.63 21.75 14.253V11.748C21.75 10.371 20.63 9.25 19.253 9.25Z" fill="white"/>
<path d="M16 6.25H8C6.48122 6.25 5.25 7.48122 5.25 9V16C5.25 17.5188 6.48122 18.75 8 18.75H16C17.5188 18.75 18.75 17.5188 18.75 16V9C18.75 7.48122 17.5188 6.25 16 6.25Z" fill="white"/>
<path d="M10 12.75C9.586 12.75 9.25 12.414 9.25 12V11C9.25 10.586 9.586 10.25 10 10.25C10.414 10.25 10.75 10.586 10.75 11V12C10.75 12.414 10.414 12.75 10 12.75ZM21.75 11.748V14.253C21.75 15.63 20.63 16.75 19.253 16.75H19C18.974 16.75 18.95 16.743 18.924 16.742C18.558 19.563 16.146 21.75 13.227 21.75H11.999C11.585 21.75 11.249 21.414 11.249 21C11.249 20.586 11.585 20.25 11.999 20.25H13.227C14.537 20.25 15.695 19.642 16.476 18.708C16.321 18.735 16.163 18.75 16 18.75H8C6.732 18.75 5.672 17.883 5.356 16.713C5.241 16.737 5.122 16.75 5 16.75H4.747C3.37 16.75 2.25 15.63 2.25 14.253V11.748C2.25 10.529 3.129 9.515 4.286 9.297C4.643 5.352 7.964 2.25 12 2.25C16.036 2.25 19.357 5.352 19.714 9.297C20.871 9.515 21.75 10.529 21.75 11.748ZM5.25 11C5.25 10.862 5.138 10.75 5 10.75H4.747C4.197 10.75 3.75 11.197 3.75 11.748V14.253C3.75 14.803 4.197 15.25 4.747 15.25H5C5.138 15.25 5.25 15.138 5.25 15V11ZM6.802 6.536C7.166 6.358 7.569 6.25 8 6.25H16C16.432 6.25 16.835 6.359 17.198 6.536C16.076 4.858 14.165 3.75 12 3.75C9.835 3.75 7.923 4.858 6.802 6.536ZM16 17.25C16.689 17.25 17.25 16.689 17.25 16V9C17.25 8.311 16.689 7.75 16 7.75H8C7.311 7.75 6.75 8.311 6.75 9V16C6.75 16.689 7.311 17.25 8 17.25H16ZM20.25 11.748C20.25 11.198 19.803 10.75 19.253 10.75H19C18.862 10.75 18.75 10.862 18.75 11V15C18.75 15.138 18.862 15.25 19 15.25H19.253C19.803 15.25 20.25 14.803 20.25 14.253V11.748ZM14 10.25C13.586 10.25 13.25 10.586 13.25 11V12C13.25 12.414 13.586 12.75 14 12.75C14.414 12.75 14.75 12.414 14.75 12V11C14.75 10.586 14.414 10.25 14 10.25ZM13 14.25H11C10.586 14.25 10.25 14.586 10.25 15C10.25 15.414 10.586 15.75 11 15.75H13C13.414 15.75 13.75 15.414 13.75 15C13.75 14.586 13.414 14.25 13 14.25Z" fill="#F3C15E"/>
</svg>
