<svg width="47" height="47" viewBox="0 0 47 47" fill="none" xmlns="http://www.w3.org/2000/svg">
<path d="M46.0135 23.035C46.0135 23.7929 45.9744 24.5376 45.9091 25.2955C45.8308 26.0403 45.7263 26.785 45.5828 27.5298C45.4392 28.2746 45.2564 29.0063 45.0345 29.7249C44.8126 30.4436 44.5646 31.1622 44.2774 31.8547C43.9902 32.5473 43.6639 33.2267 43.3114 33.8931C42.959 34.5595 42.5674 35.1997 42.1497 35.8269C41.732 36.4541 41.2882 37.0551 40.8052 37.6431C40.3222 38.2311 39.8262 38.7799 39.291 39.3156C38.7558 39.8513 38.1945 40.3609 37.6201 40.8312C37.0327 41.3147 36.4322 41.759 35.8057 42.1771C35.1791 42.5952 34.5395 42.9872 33.8738 43.34C33.208 43.6928 32.5293 44.0194 31.8374 44.3069C31.1456 44.5943 30.4276 44.8557 29.7097 45.0647C28.9917 45.2868 28.2608 45.4698 27.5167 45.6135C26.7727 45.7572 26.0286 45.8748 25.2845 45.9402C24.5405 46.0185 23.7834 46.0447 23.0263 46.0447C22.2692 46.0447 21.5251 46.0055 20.768 45.9402C20.024 45.8618 19.2799 45.7572 18.5359 45.6135C17.7918 45.4698 17.0609 45.2868 16.3429 45.0647C15.625 44.8426 14.907 44.5943 14.2152 44.3069C13.5234 44.0194 12.8446 43.6928 12.1788 43.34C11.5131 42.9872 10.8735 42.5952 10.2469 42.1771C9.62034 41.759 9.01986 41.3147 8.43246 40.8312C7.84505 40.3478 7.2968 39.8513 6.76161 39.3156C6.22642 38.7799 5.71736 38.218 5.24744 37.6431C4.76446 37.0551 4.32064 36.4541 3.90293 35.8269C3.48522 35.1997 3.09359 34.5595 2.74115 33.8931C2.3887 33.2267 2.06238 32.5473 1.7752 31.8547C1.48802 31.1622 1.22693 30.4436 1.01808 29.7249C0.796166 29.0063 0.613439 28.2746 0.46985 27.5298C0.326262 26.785 0.20878 26.0403 0.143513 25.2955C0.0651918 24.5507 0.0390625 23.7929 0.0390625 23.035C0.0390625 22.2772 0.0782453 21.5324 0.143513 20.7746C0.221834 20.0298 0.326262 19.285 0.46985 18.5402C0.613439 17.7955 0.796166 17.0638 1.01808 16.3451C1.23998 15.6265 1.48802 14.9078 1.7752 14.2153C2.06238 13.5228 2.3887 12.8434 2.74115 12.177C3.09359 11.5106 3.48522 10.8704 3.90293 10.2432C4.32064 9.61601 4.76446 9.01496 5.24744 8.42698C5.73042 7.839 6.22642 7.29022 6.76161 6.75451C7.2968 6.21879 7.8581 5.7092 8.43246 5.23882C9.01986 4.75537 9.62034 4.31112 10.2469 3.893C10.8735 3.47488 11.5131 3.08289 12.1788 2.7301C12.8446 2.37731 13.5234 2.05066 14.2152 1.7632C14.907 1.47575 15.625 1.21442 16.3429 1.00536C17.0609 0.783232 17.7918 0.600308 18.5359 0.456579C19.2799 0.31285 20.024 0.195254 20.768 0.129923C21.5121 0.0515255 22.2692 0.0253906 23.0263 0.0253906C23.7834 0.0253906 24.5274 0.0645917 25.2845 0.129923C26.0286 0.20832 26.7727 0.31285 27.5167 0.456579C28.2608 0.600308 28.9917 0.783232 29.7097 1.00536C30.4276 1.22748 31.1456 1.47575 31.8374 1.7632C32.5293 2.05066 33.208 2.37731 33.8738 2.7301C34.5395 3.08289 35.1791 3.47488 35.8057 3.893C36.4322 4.31112 37.0327 4.75537 37.6201 5.23882C38.2075 5.72227 38.7558 6.21879 39.291 6.75451C39.8262 7.29022 40.3352 7.85207 40.8052 8.42698C41.2882 9.01496 41.732 9.61601 42.1497 10.2432C42.5674 10.8704 42.959 11.5106 43.3114 12.177C43.6639 12.8434 43.9902 13.5228 44.2774 14.2153C44.5646 14.9078 44.8256 15.6265 45.0345 16.3451C45.2564 17.0638 45.4392 17.7955 45.5828 18.5402C45.7263 19.285 45.8438 20.0298 45.9091 20.7746C45.9874 21.5193 46.0135 22.2772 46.0135 23.035Z" fill="#7EC333"/>
<path d="M35.6346 18.6828C36.8617 17.4546 36.8617 15.4554 35.6346 14.2141C34.4076 12.9859 32.4104 12.9859 31.1703 14.2141L20.2576 25.1506L14.8143 19.702C13.5872 18.4737 11.59 18.4737 10.35 19.702C9.12293 20.9302 9.12293 22.9293 10.35 24.1706L18.0254 31.8536C18.6128 32.4415 19.4222 32.7813 20.2576 32.7813C21.093 32.7813 21.9023 32.4546 22.4897 31.8536L35.6346 18.6959V18.6828Z" fill="#F2F2F2"/>
</svg>
