<svg width="36" height="44" viewBox="0 0 36 44" fill="none" xmlns="http://www.w3.org/2000/svg">
<path d="M34.6359 5.96406L18.7078 0.535937C18.5156 0.470312 18.2578 0.4375 18 0.4375C17.7422 0.4375 17.4844 0.470312 17.2922 0.535937L1.36406 5.96406C0.975 6.09531 0.65625 6.54531 0.65625 6.95781V29.5703C0.65625 29.9828 0.923438 30.5266 1.24688 30.7844L17.4047 43.375C17.5687 43.5016 17.7797 43.5672 17.9953 43.5672C18.2109 43.5672 18.4266 43.5016 18.5859 43.375L34.7438 30.7844C35.0672 30.5312 35.3344 29.9875 35.3344 29.5703V6.95781C35.3438 6.54531 35.025 6.1 34.6359 5.96406ZM26.5547 13.9703L16.5891 27.6906C16.519 27.7865 16.4273 27.8645 16.3214 27.9183C16.2155 27.9721 16.0984 28.0001 15.9797 28.0001C15.8609 28.0001 15.7438 27.9721 15.638 27.9183C15.5321 27.8645 15.4404 27.7865 15.3703 27.6906L9.44531 19.5344C9.26719 19.2859 9.44531 18.9391 9.75 18.9391H12.3375C12.5766 18.9391 12.8063 19.0562 12.9469 19.2484L15.9797 23.4203L23.0531 13.6797C23.1937 13.4875 23.4187 13.3703 23.6625 13.3703H26.25C26.5547 13.375 26.7328 13.7219 26.5547 13.9703Z" fill="#F3C15E"/>
</svg>
