<svg width="49" height="58" viewBox="0 0 49 58" fill="none" xmlns="http://www.w3.org/2000/svg">
<path d="M37.5 18.75C37.5 8.395 29.105 0 18.75 0C8.395 0 0 8.395 0 18.75C0 27.821 6.442 35.387 15 37.125V45H8.75V51.25H15V57.5H22.5V51.25H28.75V45H22.5V37.125C31.058 35.387 37.5 27.821 37.5 18.75ZM18.75 30.625C12.202 30.625 6.875 25.298 6.875 18.75C6.875 12.202 12.202 6.875 18.75 6.875C25.298 6.875 30.625 12.202 30.625 18.75C30.625 25.298 25.298 30.625 18.75 30.625ZM39.085 38.084C38.7726 38.0985 38.466 38.1744 38.1829 38.3074C37.8999 38.4404 37.6457 38.6279 37.4351 38.8591C37.2245 39.0904 37.0615 39.3608 36.9555 39.6551C36.8494 39.9493 36.8023 40.2616 36.817 40.574L37.08 46.224L42.73 45.961C43.361 45.9316 43.9544 45.6527 44.3797 45.1857C44.805 44.7188 45.0274 44.102 44.998 43.471C44.9686 42.84 44.6897 42.2466 44.2227 41.8213C43.7558 41.396 43.139 41.1736 42.508 41.203L41.616 41.244L41.575 40.352C41.5452 39.7212 41.2662 39.128 40.7993 38.7027C40.3324 38.2775 39.7159 38.0549 39.085 38.084ZM45.749 51.226C45.2626 51.2035 44.7872 51.3751 44.4273 51.7031C44.0674 52.0311 43.8526 52.4886 43.83 52.975L43.798 53.663L43.11 53.631C42.8683 53.6184 42.6265 53.6537 42.3985 53.7348C42.1705 53.816 41.9608 53.9414 41.7815 54.1039C41.6022 54.2664 41.4567 54.4628 41.3535 54.6817C41.2504 54.9006 41.1915 55.1378 41.1803 55.3795C41.1691 55.6213 41.2058 55.8628 41.2882 56.0903C41.3707 56.3179 41.4974 56.5268 41.6609 56.7052C41.8245 56.8836 42.0217 57.0279 42.2412 57.1298C42.4607 57.2317 42.6982 57.2892 42.94 57.299L47.295 57.501L47.497 53.146C47.5084 52.9051 47.4723 52.6644 47.3906 52.4375C47.3089 52.2106 47.1833 52.002 47.021 51.8237C46.8586 51.6454 46.6627 51.5008 46.4445 51.3983C46.2262 51.2957 45.9899 51.2372 45.749 51.226Z" fill="#051878"/>
<path d="M40 33.75C40.6904 33.75 41.25 33.1904 41.25 32.5C41.25 31.8096 40.6904 31.25 40 31.25C39.3096 31.25 38.75 31.8096 38.75 32.5C38.75 33.1904 39.3096 33.75 40 33.75Z" fill="#051878"/>
<path d="M47.5 38.7241C48.1904 38.7241 48.75 38.1645 48.75 37.4741C48.75 36.7838 48.1904 36.2241 47.5 36.2241C46.8096 36.2241 46.25 36.7838 46.25 37.4741C46.25 38.1645 46.8096 38.7241 47.5 38.7241Z" fill="#051878"/>
<path d="M36.25 52.4741C36.9404 52.4741 37.5 51.9145 37.5 51.2241C37.5 50.5338 36.9404 49.9741 36.25 49.9741C35.5596 49.9741 35 50.5338 35 51.2241C35 51.9145 35.5596 52.4741 36.25 52.4741Z" fill="#051878"/>
</svg>
