<svg width="17" height="17" viewBox="0 0 17 17" fill="none" xmlns="http://www.w3.org/2000/svg">
<path fill-rule="evenodd" clip-rule="evenodd" d="M5.69141 0.259766H11.6914C14.4524 0.259766 16.6914 2.49877 16.6914 5.25977V11.2598C16.6914 14.0208 14.4524 16.2598 11.6914 16.2598H5.69141C2.93041 16.2598 0.691406 14.0208 0.691406 11.2598V5.25977C0.691406 2.49877 2.93041 0.259766 5.69141 0.259766ZM11.6914 14.7598C13.6214 14.7598 15.1914 13.1898 15.1914 11.2598V5.25977C15.1914 3.32977 13.6214 1.75977 11.6914 1.75977H5.69141C3.76141 1.75977 2.19141 3.32977 2.19141 5.25977V11.2598C2.19141 13.1898 3.76141 14.7598 5.69141 14.7598H11.6914Z" fill="white"/>
<path fill-rule="evenodd" clip-rule="evenodd" d="M4.69141 8.25977C4.69141 6.05077 6.48241 4.25977 8.69141 4.25977C10.9004 4.25977 12.6914 6.05077 12.6914 8.25977C12.6914 10.4688 10.9004 12.2598 8.69141 12.2598C6.48241 12.2598 4.69141 10.4688 4.69141 8.25977ZM6.19141 8.25977C6.19141 9.63777 7.31341 10.7598 8.69141 10.7598C10.0694 10.7598 11.1914 9.63777 11.1914 8.25977C11.1914 6.88077 10.0694 5.75977 8.69141 5.75977C7.31341 5.75977 6.19141 6.88077 6.19141 8.25977Z" fill="white"/>
<circle cx="12.9939" cy="3.95976" r="0.533" fill="white"/>
</svg>
