<svg width="42" height="43" viewBox="0 0 42 43" fill="none" xmlns="http://www.w3.org/2000/svg">
<path fill-rule="evenodd" clip-rule="evenodd" d="M18.2999 2.05424C18.7954 1.2025 19.5785 0.555432 20.5084 0.229346C21.4382 -0.0967408 22.4539 -0.08046 23.3729 0.275262C24.2918 0.630984 25.0538 1.30282 25.5217 2.17001C25.9897 3.03719 26.133 4.04286 25.9259 5.00624L23.7899 14.9992H35.6099C36.5348 14.9993 37.4471 15.2132 38.2756 15.6241C39.1042 16.0351 39.8265 16.632 40.3862 17.3683C40.9458 18.1045 41.3278 18.9602 41.502 19.8685C41.6763 20.7768 41.6383 21.7131 41.3909 22.6042L38.7539 32.0902C37.9879 34.8505 36.2598 37.2458 33.8818 38.843C31.5038 40.4403 28.6329 41.1342 25.7879 40.7992L10.4999 38.9992L8.9999 17.9992L18.2999 2.05424ZM5.2469 19.3402C5.23121 19.0417 5.1562 18.7493 5.02624 18.4801C4.89628 18.2109 4.71398 17.9703 4.49 17.7724C4.26601 17.5744 4.00482 17.4231 3.72169 17.3272C3.43855 17.2313 3.13915 17.1928 2.84097 17.2139C2.54279 17.2351 2.25181 17.3154 1.98503 17.4503C1.71825 17.5851 1.48101 17.7718 1.28717 17.9993C1.09333 18.2269 0.946779 18.4908 0.856076 18.7756C0.765374 19.0604 0.732339 19.3605 0.7589 19.6582L2.2589 40.6582C2.31129 41.2455 2.59213 41.7888 3.04099 42.1712C3.48986 42.5535 4.07087 42.7444 4.65903 42.7027C5.24718 42.661 5.79548 42.3901 6.18595 41.9483C6.57641 41.5065 6.77784 40.9291 6.7469 40.3402L5.2469 19.3402Z" fill="#F3C15E"/>
</svg>
