<svg width="117" height="54" viewBox="0 0 117 54" fill="none" xmlns="http://www.w3.org/2000/svg">
<path d="M22.7177 43.3397C22.7177 43.3397 22.6805 43.3582 22.6619 43.3644C19.1014 43.4508 15.4975 43.8894 12.0549 44.5996C3.09159 42.7529 -0.82867 33.1301 0.145193 33.1301C0.548384 33.7972 0.988794 34.421 1.47883 35.0263C2.60156 36.4962 3.89177 37.6574 5.213 38.5715C8.65564 40.9309 12.3278 41.6041 13.9033 41.7956C14.4058 41.8573 14.6973 41.8635 14.6973 41.8635C14.9888 41.882 15.2804 41.8944 15.5719 41.8944C15.8635 41.8944 16.155 41.8759 16.4465 41.8635C16.4465 41.8635 16.7381 41.8635 17.2467 41.7956C18.1213 41.6844 19.6411 41.4312 21.4089 40.8197L22.7177 43.3335V43.3397Z" fill="#081776"/>
<path d="M26.6358 40.5726L25.5938 38.7938C25.7054 38.7197 25.8171 38.6456 25.9287 38.5714C27.2499 37.6635 28.5402 36.5024 29.6691 35.0324C30.1591 34.4271 30.5995 33.8033 31.0089 33.1362C31.6416 33.1362 30.2025 37.2188 26.642 40.5788L26.6358 40.5726Z" fill="#081776"/>
<path d="M15.2805 9.4314C14.2694 9.4314 13.2708 9.53022 12.3217 9.72786C11.7324 9.84521 11.1369 10.0058 10.5663 10.2096C9.42492 10.5926 8.33941 11.1175 7.34073 11.7537C6.76386 12.1305 6.218 12.5505 5.69075 13.0013C2.60788 15.6819 0.660156 19.6039 0.660156 23.9953C0.660156 27.2132 1.72086 30.2087 3.52592 32.6298C6.18698 36.2307 10.467 38.5592 15.2805 38.5592C16.8871 38.5592 18.413 38.3059 19.8459 37.8056L18.6611 35.5451L18.5681 35.3598C17.526 35.6563 16.4343 35.8292 15.2805 35.8292C12.1542 35.8292 9.28846 34.6125 7.16705 32.6298C4.84715 30.4743 3.40186 27.3923 3.40186 23.9953C3.40186 17.4669 8.73019 12.1614 15.2805 12.1614C21.8308 12.1614 27.1654 17.4669 27.1654 23.9953C27.1654 27.3923 25.7201 30.4743 23.4002 32.6298C23.0838 32.9201 22.7737 33.1857 22.4325 33.4204L22.4759 33.5007L23.8344 35.786C25.0626 34.9089 26.1419 33.8404 27.0413 32.6298C28.8464 30.2087 29.9071 27.2132 29.9071 23.9953C29.9071 15.9598 23.3505 9.4314 15.2805 9.4314Z" fill="#081776"/>
<path d="M22.4727 1.82203C22.268 1.52556 22.0323 1.24763 21.7656 1.01292C21.2569 0.555873 20.5994 0.234702 19.8799 0.0679401C19.7062 0.0432346 19.5201 0.0123527 19.334 0.0123527C19.241 0 19.1479 0 19.0487 0C18.8006 0 18.5648 0.0308819 18.3353 0.0617637C17.7895 0.154409 17.256 0.364406 16.7908 0.673224C16.4683 0.889397 16.1891 1.13028 15.9162 1.43292L15.8666 1.50703C15.7859 1.61203 15.6991 1.72321 15.6184 1.84056L15.513 2.01967L15.4758 2.08144C15.2897 2.40878 15.1408 2.81642 15.0354 3.27965C14.9857 3.51435 14.9609 3.74906 14.9609 4.07023V4.24317C14.9733 4.85463 15.1408 5.46609 15.4448 6.00343C15.4696 6.04667 15.4882 6.07137 15.5006 6.10225C15.5068 6.11461 15.513 6.12078 15.5192 6.13931C15.606 6.2999 15.7177 6.47901 15.8542 6.6396C16.3504 7.24488 16.9893 7.68958 17.715 7.93664C17.8887 7.9984 18.0624 8.04163 18.2237 8.07252C18.9929 8.23928 19.7744 8.18369 20.494 7.89958C20.9468 7.73899 21.3748 7.47958 21.7656 7.13988C22.4417 6.55313 22.8883 5.76873 23.0806 4.89786C23.2915 3.83553 23.0806 2.74848 22.4727 1.82203ZM20.8537 4.43463C20.8041 4.71257 20.6801 4.97815 20.494 5.21286C20.1466 5.65138 19.6069 5.91079 19.0611 5.91079C18.9432 5.91079 18.844 5.89843 18.7385 5.8799C18.1989 5.78108 17.7895 5.49697 17.5166 5.08933C17.2498 4.68169 17.1568 4.19376 17.2498 3.71817C17.3677 3.21171 17.6406 2.80407 18.05 2.55084C18.4842 2.27908 18.9742 2.18026 19.4271 2.29143C19.5201 2.30996 19.638 2.33467 19.7496 2.39643C20.0846 2.51378 20.3947 2.77319 20.5932 3.09436C20.7793 3.36612 20.891 3.71817 20.891 4.07023C20.891 4.19376 20.8661 4.32964 20.8537 4.43463Z" fill="#081776"/>
<path d="M15.5108 2.01967C15.4674 1.95173 15.4302 1.88379 15.3868 1.82203C15.1883 1.52556 14.9464 1.24763 14.6796 1.01292C14.171 0.555873 13.5197 0.234702 12.7939 0.0679401C12.6203 0.0432346 12.4404 0.0123527 12.2481 0.0123527C12.155 0 12.062 0 11.9689 0C11.7146 0 11.4789 0.0308819 11.2494 0.0617637C10.7097 0.154409 10.1701 0.364406 9.71107 0.673224C9.38852 0.889397 9.10318 1.13028 8.83646 1.43292L8.78063 1.50703C8.69999 1.61203 8.61315 1.72321 8.53872 1.84056L8.39605 2.08144C8.20376 2.40878 8.05489 2.81642 7.95564 3.27965C7.89981 3.51435 7.875 3.74906 7.875 4.07023V4.24317C7.89361 4.85463 8.05489 5.46609 8.36503 6.00343C8.38364 6.04667 8.40225 6.07137 8.42086 6.10225C8.5139 6.28754 8.63176 6.46666 8.77443 6.6396C9.27066 7.24488 9.90336 7.68958 10.6291 7.93664C10.8028 7.9984 10.9765 8.04163 11.1378 8.07252C11.9131 8.23928 12.6885 8.18369 13.408 7.89958C13.8608 7.73899 14.2888 7.47958 14.6796 7.13988C15.0146 6.84959 15.2937 6.50989 15.517 6.13931C15.7403 5.7502 15.9016 5.33021 15.9947 4.89786C16.1932 3.90964 16.0195 2.89672 15.5108 2.01967ZM13.7678 4.43463C13.7244 4.71257 13.5941 4.97815 13.408 5.21286C13.0607 5.65138 12.5272 5.91079 11.9751 5.91079C11.8573 5.91079 11.7642 5.89843 11.6526 5.8799C11.1191 5.78108 10.7097 5.49697 10.4306 5.08933C10.1639 4.68169 10.0708 4.19376 10.1639 3.71817C10.2817 3.21171 10.5609 2.80407 10.9703 2.55084C11.3983 2.27908 11.8883 2.18026 12.3473 2.29143C12.4404 2.30996 12.5582 2.33467 12.6699 2.39643C12.9986 2.51378 13.315 2.77319 13.5073 3.09436C13.6996 3.36612 13.8112 3.71817 13.8112 4.07023C13.8112 4.19376 13.7864 4.32964 13.7678 4.43463Z" fill="#081776"/>
<path d="M27.222 43.457C26.1055 43.3767 24.9765 43.3397 23.8414 43.3459L23.6057 42.8765V41.9747C23.6057 41.8697 23.5747 41.7709 23.525 41.6721L16.2738 27.3676C16.1001 27.0526 16.2242 26.6511 16.5529 26.4905C16.646 26.4411 16.7452 26.4226 16.8382 26.4226C17.0678 26.4226 17.2911 26.5461 17.4089 26.75L25.1068 40.9C25.1564 40.9865 25.2246 41.0606 25.3053 41.1162L25.7085 41.3941L26.0434 41.6227C26.1241 41.6782 26.1861 41.7462 26.2357 41.8265L27.2282 43.4632L27.222 43.457Z" fill="#F2BD53"/>
<path d="M37.9644 51.4308C34.224 49.4235 30.465 48.287 26.7122 47.8794C23.0277 47.4841 19.3431 47.7806 15.6896 48.6514C12.2532 49.4606 8.84154 50.7699 5.46094 52.4684C6.00059 51.9311 9.09587 50.0411 11.0808 49.1394C15.7826 46.9962 21.0055 46.0512 26.0423 46.6071C26.8735 46.6997 27.7047 46.8356 28.5235 47.0085C29.5098 47.2185 30.4836 47.4903 31.4451 47.83C33.7526 48.6453 35.9546 49.8373 37.9768 51.4246L37.9644 51.4308Z" fill="#3D7CFF"/>
<path d="M38.0083 51.4492C27.24 45.8905 16.1243 47.3481 5.62275 52.7895L3.26562 53.9939L5.20094 52.2089C5.20094 52.2089 5.26297 52.1595 5.29399 52.141C9.97101 48.5896 15.6901 46.3352 21.5829 46.0387C27.4447 45.7855 33.6291 47.4408 38.0083 51.4492Z" fill="#3D7CFF"/>
<path d="M14.0391 52.425C19.2185 49.2689 26.2651 49.3368 31.4383 52.4683C25.7688 50.6771 19.7086 50.5906 14.0391 52.425Z" fill="#3D7CFF"/>
<path d="M70.0712 45.551C69.9906 45.6807 69.9409 45.8228 69.9037 45.9772C69.8851 46.076 69.8789 46.1687 69.8789 46.2675V46.3231C69.8851 46.5454 69.9533 46.7616 70.0526 46.953C70.0588 46.9592 70.0712 46.9716 70.0712 46.9778C70.1332 46.8481 70.2015 46.7122 70.2325 46.5516C70.3069 46.1934 70.2325 45.8413 70.0712 45.551ZM72.5524 45.4645C72.4903 45.3534 72.3973 45.2545 72.3043 45.1681C72.1182 45.0075 71.8887 44.8901 71.6405 44.8407C71.5661 44.8222 71.5041 44.816 71.4296 44.816C71.318 44.7975 71.2063 44.816 71.0823 44.8346C70.8962 44.8654 70.7039 44.9457 70.5364 45.0507C70.4186 45.131 70.3131 45.2175 70.2263 45.3225C70.1953 45.3595 70.1518 45.409 70.1208 45.4645C70.1022 45.4954 70.0898 45.5201 70.0712 45.551C70.2325 45.8413 70.3069 46.1872 70.2325 46.5516C70.2015 46.7122 70.1332 46.8481 70.0712 46.9778C70.1022 47.0519 70.1518 47.1198 70.2015 47.1754C70.3689 47.3854 70.5922 47.546 70.859 47.6386C70.921 47.6572 70.9892 47.6695 71.0513 47.688C71.3242 47.7498 71.6033 47.7189 71.8452 47.6263C72.0189 47.5645 72.174 47.4719 72.3043 47.3607C72.54 47.1507 72.695 46.8789 72.7695 46.5516C72.8501 46.1748 72.7695 45.7857 72.5524 45.4645ZM70.0712 45.551C69.9906 45.6807 69.9409 45.8228 69.9037 45.9772C69.8851 46.076 69.8789 46.1687 69.8789 46.2675V46.3231C69.8851 46.5454 69.9533 46.7616 70.0526 46.953C70.0588 46.9592 70.0712 46.9716 70.0712 46.9778C70.1332 46.8481 70.2015 46.7122 70.2325 46.5516C70.3069 46.1934 70.2325 45.8413 70.0712 45.551Z" fill="#081776"/>
<path d="M77.0104 35.2549V42.8271H47.106C46.3369 42.7653 45.6049 42.5801 44.9288 42.2836C44.7551 42.1971 44.569 42.1106 44.4015 42.0118C43.3905 41.4498 42.5903 40.6592 41.9948 39.6648C41.9576 39.5907 41.9079 39.5104 41.8645 39.4301C41.5854 38.9113 41.3931 38.3678 41.2566 37.7625C41.1574 37.2807 41.1016 36.7804 41.1016 36.2616C41.1016 35.9158 41.1264 35.5822 41.176 35.2549H43.6324C43.5765 35.5761 43.5517 35.9096 43.5517 36.2616C43.5517 37.1634 43.7254 37.9601 44.0728 38.6334C44.0976 38.6704 44.1224 38.7198 44.1472 38.7631L44.1844 38.8495C44.2837 39.0101 44.3705 39.1398 44.4574 39.2572C44.7613 39.6586 45.1335 39.986 45.5615 40.233C46.188 40.5974 46.9199 40.7951 47.7387 40.7951H74.4982V35.2611H77.0104V35.2549Z" fill="#081776"/>
<path d="M79.8252 35.2549V42.1724C79.8252 43.1853 79.6267 43.8894 79.2421 44.2724C78.8514 44.6553 78.2373 44.8468 77.4123 44.8468C77.1207 44.8468 76.8354 44.8283 76.5439 44.7912L76.3516 46.8232C76.6803 46.8603 77.0153 46.8788 77.3689 46.8788C78.3613 46.8788 79.1801 46.7491 79.8252 46.4773C80.4641 46.2118 80.9728 45.8535 81.3387 45.415C81.7171 44.9703 81.9714 44.4577 82.1141 43.8833C82.2568 43.3027 82.3312 42.7036 82.3312 42.0798V35.2549H79.819H79.8252Z" fill="#081776"/>
<path d="M87.3426 42.4999V30.6104H84.8242V44.5319H106.293V42.4937H87.3426V42.4999Z" fill="#081776"/>
<path d="M116.644 37.9787C116.452 37.429 116.172 36.9473 115.794 36.5396C115.422 36.1382 114.969 35.8232 114.429 35.5946C113.89 35.3599 113.282 35.2488 112.606 35.2488C111.843 35.2488 111.167 35.3846 110.584 35.6502C109.988 35.922 109.498 36.274 109.101 36.7064C108.698 37.1449 108.4 37.6328 108.195 38.1825C107.997 38.726 107.898 39.2881 107.898 39.844C107.898 40.4678 107.96 41.0051 108.09 41.4313C108.22 41.8698 108.388 42.2219 108.605 42.4936H88.2344V44.5318H111.917C112.649 44.5318 113.319 44.4207 113.939 44.186C114.547 43.9636 115.087 43.6424 115.527 43.2286C115.968 42.821 116.321 42.3207 116.569 41.7339C116.818 41.1534 116.942 40.5048 116.942 39.8007C116.942 39.1399 116.842 38.5284 116.644 37.9725V37.9787ZM114.256 40.8075C114.175 41.1287 114.045 41.4251 113.89 41.6784C113.722 41.9254 113.511 42.1354 113.251 42.296C112.997 42.4504 112.68 42.5307 112.327 42.5307C112.016 42.5307 111.744 42.4566 111.508 42.3207C111.266 42.1848 111.074 41.9995 110.925 41.771C110.782 41.5301 110.658 41.2584 110.59 40.9495C110.509 40.6407 110.472 40.3134 110.472 39.9675C110.472 39.6587 110.503 39.3437 110.571 39.0349C110.633 38.726 110.745 38.4419 110.906 38.2011C111.061 37.9602 111.266 37.7625 111.514 37.6081C111.762 37.4475 112.066 37.3672 112.438 37.3672C113.046 37.3672 113.53 37.6081 113.877 38.0775C114.231 38.5593 114.398 39.1337 114.398 39.8131C114.398 40.1466 114.361 40.4863 114.268 40.8137L114.256 40.8075ZM114.994 31.2526C114.913 31.1415 114.833 31.055 114.74 30.9624C114.553 30.7956 114.324 30.6844 114.063 30.6288C114.001 30.6227 113.933 30.6041 113.871 30.6041C113.753 30.5979 113.635 30.6041 113.524 30.6227C113.331 30.6535 113.139 30.7338 112.972 30.845C112.854 30.9191 112.748 31.0118 112.662 31.1106C112.631 31.16 112.587 31.2156 112.556 31.265C112.538 31.2897 112.525 31.3206 112.5 31.3453C112.308 30.9932 111.961 30.7276 111.526 30.635C111.148 30.5609 110.782 30.635 110.484 30.8203C110.193 30.9871 109.97 31.2526 109.858 31.5862C109.833 31.6418 109.821 31.7035 109.802 31.7715C109.783 31.8703 109.777 31.9629 109.777 32.0617C109.777 32.2594 109.808 32.4447 109.889 32.6114C109.938 32.7473 110.019 32.877 110.1 32.9697C110.174 33.0685 110.242 33.1364 110.335 33.1982C110.509 33.3403 110.72 33.4391 110.943 33.4885C111.018 33.507 111.08 33.507 111.142 33.5132C111.204 33.5194 111.254 33.5194 111.328 33.5132C111.663 33.4947 111.985 33.3588 112.227 33.1303C112.314 33.05 112.389 32.9573 112.451 32.8647C112.469 32.8338 112.482 32.8091 112.507 32.7782C112.544 32.84 112.587 32.9141 112.643 32.9697C112.81 33.1858 113.034 33.3464 113.3 33.4329C113.356 33.4576 113.418 33.47 113.487 33.4885C113.766 33.5441 114.039 33.5194 114.287 33.4267C114.454 33.365 114.609 33.2661 114.733 33.155C114.969 32.9573 115.137 32.6856 115.199 32.3582C115.279 31.9753 115.199 31.5923 114.988 31.265L114.994 31.2526Z" fill="#081776"/>
<path d="M52.7934 27.1269L52.9423 27.0281C53.4137 26.6945 53.8355 26.3116 54.2015 25.8916C54.5861 25.4593 54.9086 24.9651 55.1754 24.4402C55.4049 23.9893 55.5724 23.5631 55.7026 23.1308C55.8515 22.6058 55.9383 22.0931 55.9755 21.5681C55.988 21.3705 56.0004 21.1605 56.0004 20.9196C56.0004 19.5114 55.6778 18.2329 55.0203 17.115C54.369 15.9909 53.4696 15.1015 52.3344 14.4653C51.2055 13.8353 49.9401 13.5142 48.5692 13.5142C47.1984 13.5142 45.9516 13.8292 44.8164 14.4653C43.6813 15.1077 42.7695 15.9909 42.112 17.115C41.4482 18.2329 41.1133 19.5114 41.1133 20.9196C41.1133 21.5064 41.1753 22.0684 41.2808 22.6058C41.4296 23.2914 41.6529 23.9028 41.9693 24.4834C42.0127 24.576 42.0623 24.6687 42.112 24.749C42.7757 25.8669 43.6875 26.7563 44.8164 27.3925C45.0087 27.4975 45.2134 27.5963 45.4181 27.6951C46.3734 28.1213 47.4341 28.3436 48.5754 28.3436C49.2329 28.3436 49.847 28.2695 50.4425 28.1151L50.5356 28.0904L52.812 30.808H56.0872L52.7996 27.1207L52.7934 27.1269ZM51.0008 25.3975C50.7589 25.5457 50.4859 25.6631 50.1944 25.7557C49.692 25.9348 49.1461 26.0213 48.563 26.0213C47.645 26.0213 46.8262 25.8051 46.1191 25.3975C45.629 25.1196 45.2196 24.749 44.8785 24.2981C44.773 24.156 44.68 24.0202 44.5745 23.8349L44.5249 23.7422C44.5001 23.699 44.4753 23.6496 44.4505 23.594C44.0597 22.8405 43.8612 21.9449 43.8612 20.932C43.8612 19.9191 44.0597 19.0235 44.4505 18.27C44.8475 17.4979 45.4119 16.8988 46.1191 16.4973C46.8386 16.0897 47.6574 15.8859 48.563 15.8859C49.4687 15.8859 50.2936 16.0897 51.0008 16.4973C51.6955 16.905 52.2476 17.4917 52.657 18.27C53.0478 19.042 53.2462 19.9314 53.2462 20.932C53.2462 21.2779 53.2214 21.599 53.178 21.9078C53.0912 22.5131 52.9113 23.0752 52.6508 23.6002C52.2414 24.3846 51.6893 24.9899 50.9946 25.3975H51.0008Z" fill="#081776"/>
<path d="M65.9524 16.7876V23.0875C65.9524 23.3345 65.9462 23.5137 65.9151 23.6743C65.8903 23.8966 65.8469 24.1313 65.7725 24.366C65.6484 24.7428 65.4623 25.0701 65.208 25.3419L65.177 25.3728C64.6683 25.8854 63.9922 26.1386 63.161 26.1386C62.3298 26.1386 61.6227 25.873 61.1265 25.3419C61.0086 25.2122 60.9032 25.0763 60.8287 24.9466C60.531 24.4586 60.3759 23.8348 60.3759 23.0875V16.7876H57.7148V23.5137C57.7148 24.1437 57.7955 24.7428 57.9506 25.2678C58.0374 25.5704 58.149 25.8483 58.3041 26.1448C58.6887 26.8674 59.2284 27.4233 59.9107 27.7939C60.5992 28.1706 61.3994 28.3559 62.274 28.3559C62.9749 28.3559 63.6263 28.2139 64.2279 27.9359C64.8172 27.6642 65.301 27.2812 65.6608 26.7933L65.94 26.4104V28.2139H68.632V16.7938H65.94L65.9524 16.7876Z" fill="#081776"/>
<path d="M79.65 16.7876V18.7826L79.3647 18.3934C78.9863 17.8808 78.4715 17.4423 77.8326 17.1149C77.1999 16.7691 76.4741 16.6023 75.5995 16.6023C74.6318 16.6023 73.7386 16.8432 72.9446 17.3249C72.1631 17.8005 71.5242 18.4923 71.0775 19.3755C70.6185 20.2587 70.3828 21.2963 70.3828 22.4575C70.3828 22.9516 70.42 23.3901 70.5007 23.8039C70.5317 23.9831 70.5627 24.1436 70.5937 24.3104C70.6185 24.3783 70.6371 24.4586 70.6619 24.5328C70.7736 24.9157 70.9039 25.2554 71.0775 25.5704C71.5304 26.4598 72.1569 27.1577 72.957 27.658C73.7386 28.1521 74.6256 28.393 75.5809 28.393C76.4307 28.393 77.1874 28.2262 77.8326 27.8803C78.4839 27.5345 78.9925 27.0898 79.3647 26.5648L79.65 26.151V28.2139H82.3421V16.7938H79.65V16.7876ZM79.6438 22.6675C79.6438 22.896 79.6128 23.1369 79.5694 23.4087C79.5446 23.4828 79.5322 23.5569 79.5198 23.6248C79.4391 23.9398 79.3337 24.1992 79.2096 24.4278C78.9119 24.9713 78.5149 25.3789 78.0062 25.6692C77.5038 25.9657 76.9579 26.1016 76.3749 26.1016C75.7918 26.1016 75.2831 25.9533 74.7807 25.6507C74.3031 25.3727 73.8999 24.9589 73.5959 24.4339L73.5649 24.366C73.4347 24.1313 73.3354 23.8966 73.2796 23.6495C73.2114 23.4457 73.1679 23.2172 73.1307 22.9516C73.1183 22.791 73.1059 22.6181 73.1059 22.4451C73.1059 21.7163 73.261 21.0678 73.5649 20.5305C73.8689 19.9993 74.2597 19.5978 74.7621 19.3014C75.767 18.7331 77.0076 18.7393 78.0062 19.3075C78.5025 19.5917 78.9057 20.0117 79.2096 20.549C79.5073 21.0863 79.65 21.7349 79.65 22.476C79.65 22.5378 79.65 22.5934 79.6438 22.6551V22.6675Z" fill="#081776"/>
<path d="M89.2306 17.1211C88.6289 17.4608 88.1575 17.9241 87.7791 18.5355L87.4814 19.0049V16.7814H84.8203V28.2015H87.4814V22.5069C87.4814 22.1858 87.5062 21.8955 87.5558 21.6237C87.6488 20.9628 87.8908 20.4564 88.2505 20.1167C88.7468 19.6473 89.4973 19.4126 90.4774 19.4126H91.1039V16.6208C90.403 16.6456 89.7641 16.8061 89.2244 17.1211H89.2306Z" fill="#081776"/>
<path d="M103.317 22.235C103.317 21.1109 103.082 20.1474 102.592 19.2703C102.12 18.418 101.444 17.7448 100.594 17.3001C99.7383 16.8306 98.752 16.5959 97.6665 16.5959C96.581 16.5959 95.5203 16.8368 94.6519 17.3248C93.7959 17.7942 93.1197 18.4859 92.6421 19.3691C92.1521 20.2585 91.9102 21.3147 91.9102 22.4882C91.9102 22.5253 91.9102 22.5685 91.9164 22.6056C91.9164 22.9514 91.9412 23.2602 91.9846 23.5567C92.0962 24.3164 92.3196 25.002 92.6483 25.6011C93.1383 26.4905 93.8207 27.1822 94.6891 27.664C95.5637 28.1519 96.5562 28.399 97.6665 28.399C99.0249 28.399 100.185 28.0408 101.115 27.3367C101.822 26.7993 102.375 26.1446 102.728 25.3849C102.815 25.1996 102.889 25.0143 102.958 24.8229H100.055C99.9306 25.0761 99.7817 25.2799 99.6018 25.4529C99.1056 25.9779 98.4357 26.2434 97.5983 26.2434C96.7609 26.2434 96.1158 25.984 95.5575 25.4837C95.0861 25.0637 94.7883 24.4893 94.6705 23.7976C94.6643 23.7544 94.6643 23.7297 94.6643 23.7111C94.6395 23.6247 94.627 23.5135 94.6208 23.39L94.6084 23.2294H103.249C103.293 22.9267 103.317 22.5994 103.317 22.235ZM100.7 21.71H94.4224L94.4844 21.3518C94.6084 20.4932 94.9496 19.8077 95.5141 19.3135C96.0599 18.8194 96.7609 18.5724 97.5859 18.5724C98.4109 18.5724 99.1738 18.8256 99.7755 19.3321C100.383 19.8571 100.694 20.5488 100.706 21.4012V21.7162L100.7 21.71Z" fill="#081776"/>
<path d="M116.964 21.6545C116.883 20.8083 116.66 20.0363 116.306 19.3569C115.841 18.4675 115.227 17.7943 114.427 17.3125C113.639 16.8369 112.752 16.5899 111.772 16.5899C110.922 16.5899 110.19 16.7566 109.539 17.1025C108.887 17.4422 108.385 17.8684 108.007 18.4243L107.721 18.8443V12.8408H105.066V28.2015H107.721V26.2065L108 26.5894C108.385 27.1206 108.9 27.5529 109.539 27.8926C110.171 28.2262 110.928 28.3867 111.772 28.3867C112.746 28.3867 113.633 28.1459 114.427 27.6518C114.805 27.4171 115.121 27.1515 115.394 26.855C115.742 26.4968 116.039 26.0768 116.306 25.558C116.374 25.4283 116.43 25.3109 116.486 25.175C116.833 24.3597 117.001 23.4704 117.001 22.4451C117.001 22.2042 116.995 21.9324 116.964 21.6483V21.6545ZM114.073 23.8039C114.011 23.983 113.93 24.1806 113.819 24.3845C113.502 24.9465 113.093 25.3727 112.597 25.6506C112.107 25.9533 111.561 26.1015 110.984 26.1015C110.829 26.1015 110.699 26.0953 110.575 26.0706C110.426 26.0335 110.295 26.0088 110.159 25.9903C109.88 25.9224 109.619 25.8112 109.377 25.6691C108.881 25.385 108.478 24.9527 108.174 24.4092C107.914 23.9459 107.765 23.4148 107.74 22.8404V22.791C107.727 22.7107 107.715 22.5995 107.715 22.4883C107.715 21.7657 107.87 21.1172 108.174 20.5736C108.478 20.0363 108.881 19.6101 109.377 19.3137C110.382 18.7331 111.611 18.7454 112.591 19.3013C113.099 19.5978 113.502 19.9992 113.8 20.5366C113.986 20.8577 114.104 21.1974 114.172 21.568C114.234 21.846 114.259 22.1363 114.259 22.4513C114.259 22.9515 114.191 23.4024 114.061 23.8039H114.073Z" fill="#081776"/>
</svg>
