<svg width="131" height="61" viewBox="0 0 131 61" fill="none" xmlns="http://www.w3.org/2000/svg">
<g clip-path="url(#clip0_2268_4766)">
<path d="M25.4361 48.9635C25.4361 48.9635 25.3944 48.9844 25.3736 48.9914C21.387 49.0891 17.3519 49.5845 13.4973 50.387C3.46153 48.3006 -0.927827 37.4292 0.162566 37.4292C0.614003 38.1828 1.10711 38.8876 1.65578 39.5714C2.91286 41.2321 4.35745 42.5439 5.83678 43.5766C9.69135 46.2422 13.8029 47.0028 15.567 47.2191C16.1295 47.2888 16.456 47.2958 16.456 47.2958C16.7824 47.3168 17.1088 47.3307 17.4352 47.3307C17.7617 47.3307 18.0881 47.3098 18.4145 47.2958C18.4145 47.2958 18.7409 47.2958 19.3104 47.2191C20.2897 47.0935 21.9913 46.8074 23.9706 46.1166L25.4361 48.9565V48.9635Z" fill="white"/>
<path d="M29.823 45.8373L28.6562 43.8277C28.7813 43.744 28.9063 43.6602 29.0313 43.5765C30.5106 42.5508 31.9552 41.2389 33.2192 39.5782C33.7679 38.8944 34.261 38.1896 34.7194 37.436C35.4278 37.436 33.8165 42.0484 29.83 45.8443L29.823 45.8373Z" fill="white"/>
<path d="M17.1081 10.6553C15.976 10.6553 14.8578 10.7599 13.7952 10.9902C13.1354 11.1298 12.4687 11.3042 11.8228 11.5345C10.5449 11.9741 9.32947 12.5672 8.2113 13.2859C7.56539 13.7116 6.95422 14.186 6.36388 14.6954C2.91907 17.7168 0.738281 22.1477 0.738281 27.1089C0.738281 30.7514 1.92591 34.1286 3.94695 36.8639C6.93338 40.932 11.7256 43.5556 17.115 43.5556C18.9069 43.5556 20.6154 43.2765 22.2197 42.7113L20.9001 40.1574L20.796 39.9481C19.6292 40.283 18.4068 40.4714 17.122 40.4714C13.6216 40.4714 10.406 39.1038 8.03767 36.8639C5.44017 34.4287 3.82194 30.9467 3.82194 27.1089C3.82194 19.7334 9.78785 13.7395 17.1289 13.7395C24.47 13.7395 30.4359 19.7334 30.4359 27.1089C30.4359 30.9467 28.8176 34.4287 26.2201 36.8639C25.8659 37.1919 25.5256 37.4919 25.1367 37.7571L25.1923 37.8478L26.7133 40.4226C28.0884 39.4387 29.2899 38.2316 30.3039 36.8639C32.325 34.1286 33.5126 30.7444 33.5126 27.1089C33.5126 18.0308 26.1715 10.6553 17.1428 10.6553H17.1081Z" fill="white"/>
<path d="M25.1597 2.06543C24.9306 1.7305 24.6666 1.4165 24.368 1.15134C23.7985 0.628003 23.0623 0.265157 22.2567 0.0837337C22.0622 0.0558225 21.8608 0.0209334 21.6455 0.0209334C21.5413 0 21.4371 0 21.326 0C21.0413 0 20.7773 0.034889 20.5273 0.0697781C19.9161 0.174445 19.3188 0.411691 18.798 0.760581C18.4368 0.997827 18.1173 1.28392 17.8187 1.61885L17.7562 1.69561C17.6659 1.82121 17.5687 1.94681 17.4853 2.07939L17.3256 2.35152C17.1172 2.72135 16.9436 3.18188 16.8325 3.70522C16.77 3.9634 16.7422 4.23553 16.7422 4.59838V4.79375C16.763 5.48456 16.9436 6.17536 17.2909 6.78243C17.3186 6.8243 17.3325 6.85221 17.3534 6.8871C17.4575 7.08945 17.5895 7.30577 17.7492 7.50114C18.3049 8.18497 19.0202 8.68737 19.8258 8.95951C20.0203 9.02928 20.2148 9.08511 20.3954 9.12C21.2566 9.3084 22.1316 9.2456 22.9303 8.92462C23.4443 8.73622 23.9166 8.45013 24.3541 8.06635C25.1111 7.40346 25.6112 6.51727 25.8265 5.52642C26.0626 4.33322 25.8265 3.09815 25.1459 2.05845L25.1597 2.06543ZM23.3471 5.01007C23.2915 5.33105 23.1526 5.63109 22.9442 5.89625C22.5553 6.39167 21.958 6.68474 21.3399 6.68474C21.2079 6.68474 21.1038 6.66381 20.9787 6.64985C20.3815 6.53821 19.9231 6.21723 19.6105 5.75669C19.3119 5.29616 19.2077 4.74491 19.3119 4.20762C19.4439 3.63544 19.7495 3.1749 20.2078 2.88881C20.694 2.58179 21.2357 2.47014 21.7497 2.59574C21.8538 2.61668 21.9858 2.63761 22.1108 2.70739C22.4789 2.83997 22.8331 3.13304 23.0554 3.49588C23.2637 3.80291 23.3887 4.20064 23.3887 4.60535C23.3887 4.74491 23.3609 4.89842 23.3471 5.01007Z" fill="white"/>
<path d="M17.2262 2.06543C16.997 1.7305 16.733 1.4165 16.4344 1.15134C15.8649 0.628003 15.1287 0.265157 14.3231 0.0837337C14.1286 0.0558225 13.9272 0.0209334 13.7119 0.0209334C13.6077 0 13.5035 0 13.3924 0C13.1077 0 12.8437 0.034889 12.5937 0.0697781C11.9825 0.174445 11.3853 0.411691 10.8644 0.760581C10.5032 0.997827 10.1837 1.28392 9.8851 1.61885L9.82259 1.69561C9.7323 1.82121 9.63507 1.94681 9.55173 2.07939L9.39199 2.35152C9.18363 2.72135 9.01 3.18188 8.89888 3.70522C8.83637 3.9634 8.80859 4.23553 8.80859 4.59838V4.79375C8.82943 5.48456 9.01 6.17536 9.35726 6.78243C9.38504 6.8243 9.39893 6.85221 9.41977 6.8871C9.52395 7.08945 9.65591 7.30577 9.81564 7.50114C10.3713 8.18497 11.0866 8.68737 11.8923 8.95951C12.0867 9.02928 12.2812 9.08511 12.4618 9.12C13.323 9.3084 14.1981 9.2456 14.9967 8.92462C15.5107 8.73622 15.983 8.45013 16.4205 8.06635C17.1775 7.40346 17.6776 6.51727 17.8929 5.52642C18.129 4.33322 17.8929 3.09815 17.2123 2.05845L17.2262 2.06543ZM15.4135 5.01007C15.3579 5.33105 15.219 5.63109 15.0106 5.89625C14.6217 6.39167 14.0244 6.68474 13.4063 6.68474C13.2743 6.68474 13.1702 6.66381 13.0452 6.64985C12.4479 6.53821 11.9895 6.21723 11.677 5.75669C11.3783 5.29616 11.2741 4.74491 11.3783 4.20762C11.5103 3.63544 11.8159 3.1749 12.2742 2.88881C12.7604 2.58179 13.3021 2.47014 13.8161 2.59574C13.9202 2.61668 14.0522 2.63761 14.1772 2.70739C14.5453 2.83997 14.8995 3.13304 15.1218 3.49588C15.3301 3.80291 15.4551 4.20064 15.4551 4.60535C15.4551 4.74491 15.4274 4.89842 15.4135 5.01007Z" fill="white"/>
<path d="M30.4789 49.0959C29.2288 49.0052 27.9648 48.9633 26.6938 48.9703L26.4299 48.44V47.4212C26.4299 47.3026 26.3951 47.1909 26.3396 47.0793L18.2207 30.9187C18.0262 30.5628 18.1651 30.1093 18.5332 29.9278C18.6374 29.872 18.7485 29.8511 18.8527 29.8511C19.1097 29.8511 19.3597 29.9906 19.4916 30.2209L28.1106 46.2071C28.1662 46.3047 28.2426 46.3885 28.3329 46.4513L28.7843 46.7653L29.1593 47.0235C29.2496 47.0863 29.3191 47.163 29.3746 47.2537L30.4859 49.1028L30.4789 49.0959Z" fill="#D9A328"/>
<path d="M42.506 58.1044C38.3181 55.8366 34.1093 54.5527 29.9075 54.0921C25.782 53.6456 21.6566 53.9805 17.5659 54.9644C13.7183 55.8785 9.8984 57.3577 6.11328 59.2766C6.71751 58.6696 10.1832 56.5344 12.4056 55.5156C17.6701 53.0943 23.5179 52.0267 29.1574 52.6547C30.088 52.7594 31.0187 52.9129 31.9355 53.1083C33.0397 53.3455 34.1301 53.6525 35.2066 54.0363C37.7903 54.9574 40.2558 56.3041 42.5199 58.0974L42.506 58.1044Z" fill="#A1BDE5"/>
<path d="M42.5484 58.1322C30.4985 51.8452 18.0458 53.492 6.28761 59.6394L3.64844 61.0001L5.81533 58.9835C11.0728 54.9294 17.518 52.3476 24.1645 52.0127C30.7277 51.7266 37.652 53.5967 42.5484 58.1253V58.1322ZM42.4651 58.0764C41.0899 57.2391 39.7703 56.311 38.2979 55.6481C31.0194 52.1034 22.3379 52.2918 14.8371 55.048C11.8576 56.1505 8.94761 57.6787 6.39178 59.5627L5.91951 58.9068C17.4763 53.0105 30.9083 51.287 42.4581 58.0694L42.4651 58.0764Z" fill="#A1BDE5"/>
<path d="M15.7188 59.2275C21.518 55.6618 29.4077 55.7386 35.2 59.2763C28.8521 57.2527 22.0666 57.155 15.7188 59.2275Z" fill="#A1BDE5"/>
<path d="M78.4536 51.4611C78.3633 51.6076 78.3077 51.7681 78.2661 51.9426C78.2452 52.0542 78.2383 52.1589 78.2383 52.2705V52.3333C78.2452 52.5845 78.3216 52.8288 78.4327 53.0451C78.4397 53.052 78.4536 53.066 78.4536 53.073C78.523 52.9264 78.5994 52.7729 78.6342 52.5915C78.7175 52.1868 78.6342 51.7891 78.4536 51.4611ZM81.2317 51.3634C81.1622 51.2378 81.058 51.1262 80.9538 51.0285C80.7455 50.8471 80.4885 50.7145 80.2107 50.6587C80.1274 50.6377 80.0579 50.6307 79.9746 50.6307C79.8496 50.6098 79.7245 50.6307 79.5856 50.6517C79.3773 50.6866 79.162 50.7773 78.9745 50.8959C78.8425 50.9866 78.7244 51.0843 78.6272 51.2029C78.5925 51.2448 78.5439 51.3006 78.5091 51.3634C78.4883 51.3983 78.4744 51.4262 78.4536 51.4611C78.6342 51.7891 78.7175 52.1798 78.6342 52.5915C78.5994 52.7729 78.523 52.9264 78.4536 53.073C78.4883 53.1567 78.5439 53.2335 78.5994 53.2963C78.7869 53.5335 79.037 53.7149 79.3356 53.8196C79.4051 53.8405 79.4815 53.8545 79.5509 53.8754C79.8565 53.9452 80.169 53.9103 80.4399 53.8056C80.6344 53.7359 80.808 53.6312 80.9538 53.5056C81.2178 53.2684 81.3914 52.9613 81.4747 52.5915C81.565 52.1659 81.4747 51.7263 81.2317 51.3634ZM78.4536 51.4611C78.3633 51.6076 78.3077 51.7681 78.2661 51.9426C78.2452 52.0542 78.2383 52.1589 78.2383 52.2705V52.3333C78.2452 52.5845 78.3216 52.8288 78.4327 53.0451C78.4397 53.052 78.4536 53.066 78.4536 53.073C78.523 52.9264 78.5994 52.7729 78.6342 52.5915C78.7175 52.1868 78.6342 51.7891 78.4536 51.4611Z" fill="white"/>
<path d="M86.2252 39.8291V48.3839H52.7425C51.8813 48.3141 51.0617 48.1048 50.3047 47.7698C50.1102 47.6722 49.9019 47.5745 49.7144 47.4628C48.5823 46.8278 47.6864 45.9347 47.0196 44.8113C46.978 44.7275 46.9224 44.6368 46.8738 44.5461C46.5613 43.96 46.346 43.3459 46.1932 42.6621C46.082 42.1178 46.0195 41.5526 46.0195 40.9665C46.0195 40.5757 46.0473 40.1989 46.1029 39.8291H48.8532C48.7907 40.1919 48.7629 40.5687 48.7629 40.9665C48.7629 41.9852 48.9573 42.8854 49.3463 43.646C49.3741 43.6878 49.4018 43.7436 49.4296 43.7925L49.4713 43.8902C49.5824 44.0716 49.6796 44.2181 49.7769 44.3507C50.1172 44.8043 50.5339 45.1741 51.0131 45.4532C51.7146 45.8649 52.5341 46.0882 53.4509 46.0882H83.4124V39.8361H86.2252V39.8291Z" fill="white"/>
<path d="M89.3776 39.8291V47.6442C89.3776 48.7886 89.1553 49.5841 88.7247 50.0167C88.2872 50.4493 87.5996 50.6656 86.6759 50.6656C86.3495 50.6656 86.03 50.6447 85.7036 50.6028L85.4883 52.8985C85.8564 52.9404 86.2314 52.9613 86.6273 52.9613C87.7385 52.9613 88.6553 52.8148 89.3776 52.5078C90.0929 52.2077 90.6624 51.803 91.0722 51.3076C91.4959 50.8052 91.7806 50.226 91.9404 49.5771C92.1001 48.9212 92.1834 48.2443 92.1834 47.5396V39.8291H89.3706H89.3776Z" fill="white"/>
<path d="M97.7963 48.0143V34.582H94.9766V50.31H119.014V48.0073H97.7963V48.0143Z" fill="white"/>
<path d="M130.598 42.9064C130.383 42.2854 130.07 41.7411 129.646 41.2806C129.23 40.827 128.723 40.4711 128.119 40.213C127.514 39.9478 126.834 39.8222 126.077 39.8222C125.222 39.8222 124.465 39.9757 123.813 40.2758C123.146 40.5828 122.597 40.9805 122.153 41.469C121.701 41.9644 121.368 42.5156 121.139 43.1367C120.916 43.7507 120.805 44.3857 120.805 45.0137C120.805 45.7184 120.875 46.3255 121.021 46.807C121.166 47.3024 121.354 47.7001 121.597 48.0072H98.7891V50.3098H125.306C126.125 50.3098 126.875 50.1842 127.57 49.9191C128.251 49.6679 128.855 49.305 129.348 48.8375C129.841 48.377 130.237 47.8118 130.515 47.1489C130.792 46.493 130.931 45.7603 130.931 44.9648C130.931 44.2182 130.82 43.5274 130.598 42.8994V42.9064ZM127.931 46.1022C127.841 46.4651 127.695 46.8 127.521 47.0861C127.334 47.3652 127.098 47.6025 126.806 47.7839C126.521 47.9583 126.167 48.049 125.771 48.049C125.424 48.049 125.118 47.9653 124.854 47.8118C124.583 47.6583 124.368 47.4489 124.201 47.1908C124.042 46.9186 123.903 46.6116 123.826 46.2627C123.736 45.9138 123.694 45.544 123.694 45.1532C123.694 44.8043 123.729 44.4485 123.806 44.0996C123.875 43.7507 124 43.4297 124.181 43.1576C124.354 42.8855 124.583 42.6622 124.861 42.4877C125.139 42.3063 125.479 42.2156 125.896 42.2156C126.577 42.2156 127.118 42.4877 127.507 43.018C127.903 43.5623 128.091 44.2112 128.091 44.9788C128.091 45.3556 128.049 45.7394 127.945 46.1092L127.931 46.1022ZM128.758 35.3076C128.667 35.182 128.577 35.0843 128.473 34.9796C128.264 34.7912 128.007 34.6656 127.716 34.6028C127.646 34.5958 127.57 34.5749 127.5 34.5749C127.368 34.5679 127.237 34.5749 127.112 34.5958C126.896 34.6307 126.681 34.7214 126.493 34.847C126.361 34.9307 126.243 35.0354 126.146 35.1471C126.111 35.2029 126.063 35.2657 126.028 35.3215C126.007 35.3494 125.993 35.3843 125.966 35.4122C125.75 35.0145 125.361 34.7144 124.875 34.6098C124.452 34.526 124.042 34.6098 123.708 34.8191C123.382 35.0075 123.132 35.3076 123.007 35.6844C122.979 35.7472 122.965 35.8169 122.944 35.8937C122.924 36.0053 122.917 36.11 122.917 36.2216C122.917 36.4449 122.951 36.6543 123.042 36.8427C123.097 36.9962 123.187 37.1427 123.278 37.2474C123.361 37.359 123.438 37.4358 123.542 37.5056C123.736 37.6661 123.972 37.7777 124.222 37.8335C124.306 37.8545 124.375 37.8545 124.445 37.8614C124.514 37.8684 124.57 37.8684 124.653 37.8614C125.028 37.8405 125.389 37.687 125.66 37.4288C125.757 37.3381 125.841 37.2334 125.91 37.1288C125.931 37.0939 125.945 37.066 125.973 37.0311C126.014 37.1008 126.063 37.1846 126.125 37.2474C126.313 37.4916 126.563 37.673 126.861 37.7707C126.924 37.7986 126.993 37.8126 127.07 37.8335C127.382 37.8963 127.688 37.8684 127.966 37.7637C128.153 37.694 128.327 37.5823 128.466 37.4567C128.73 37.2334 128.917 36.9264 128.987 36.5566C129.077 36.124 128.987 35.6913 128.751 35.3215L128.758 35.3076Z" fill="white"/>
<path d="M59.1129 30.6467L59.2796 30.535C59.8074 30.1582 60.2797 29.7256 60.6895 29.2511C61.1201 28.7627 61.4812 28.2044 61.7799 27.6113C62.0368 27.1019 62.2244 26.6205 62.3702 26.132C62.5369 25.5389 62.6341 24.9598 62.6758 24.3666C62.6897 24.1433 62.7036 23.9061 62.7036 23.634C62.7036 22.043 62.3424 20.5986 61.6062 19.3356C60.877 18.0657 59.87 17.0609 58.599 16.3422C57.335 15.6304 55.9182 15.2676 54.3833 15.2676C52.8484 15.2676 51.4524 15.6234 50.1814 16.3422C48.9105 17.0679 47.8895 18.0657 47.1533 19.3356C46.4102 20.5986 46.0352 22.043 46.0352 23.634C46.0352 24.2969 46.1046 24.9318 46.2227 25.5389C46.3894 26.3134 46.6394 27.0043 46.9936 27.6602C47.0422 27.7648 47.0978 27.8695 47.1533 27.9602C47.8965 29.2232 48.9174 30.228 50.1814 30.9467C50.3967 31.0653 50.6259 31.177 50.8551 31.2886C51.9247 31.7701 53.1123 32.0213 54.3902 32.0213C55.1264 32.0213 55.814 31.9376 56.4807 31.7631L56.5849 31.7352L59.1338 34.8054H62.8008L59.1199 30.6397L59.1129 30.6467ZM57.1127 28.6929C56.8419 28.8603 56.5363 28.9929 56.2098 29.0976C55.6473 29.3 55.0361 29.3976 54.3833 29.3976C53.3554 29.3976 52.4386 29.1534 51.6469 28.6929C51.0982 28.3789 50.6398 27.9602 50.2578 27.4508C50.1398 27.2903 50.0356 27.1368 49.9175 26.9275L49.862 26.8228C49.8342 26.774 49.8064 26.7182 49.7786 26.6554C49.3411 25.8041 49.1188 24.7923 49.1188 23.6479C49.1188 22.5036 49.3411 21.4918 49.7786 20.6405C50.2231 19.7683 50.8551 19.0914 51.6469 18.6379C52.4525 18.1773 53.3693 17.9471 54.3833 17.9471C55.3973 17.9471 56.321 18.1773 57.1127 18.6379C57.8906 19.0984 58.5087 19.7613 58.9671 20.6405C59.4046 21.5127 59.6269 22.5175 59.6269 23.6479C59.6269 24.0387 59.5991 24.4015 59.5505 24.7504C59.4532 25.4342 59.2518 26.0692 58.9601 26.6623C58.5018 27.5485 57.8836 28.2323 57.1058 28.6929H57.1127Z" fill="white"/>
<path d="M73.8404 18.9658V26.0832C73.8404 26.3623 73.8334 26.5647 73.7987 26.7461C73.7709 26.9973 73.7223 27.2624 73.639 27.5276C73.5001 27.9532 73.2917 28.3231 73.007 28.6301L72.9722 28.665C72.4027 29.2441 71.6457 29.5302 70.7151 29.5302C69.7844 29.5302 68.9927 29.2302 68.437 28.6301C68.3051 28.4836 68.187 28.33 68.1037 28.1835C67.7703 27.6323 67.5967 26.9275 67.5967 26.0832V18.9658H64.6172V26.5647C64.6172 27.2764 64.7075 27.9532 64.8811 28.5464C64.9783 28.8883 65.1033 29.2023 65.277 29.5372C65.7076 30.3536 66.3118 30.9816 67.0758 31.4003C67.8467 31.8259 68.7426 32.0353 69.7219 32.0353C70.5067 32.0353 71.2359 31.8748 71.9096 31.5608C72.5694 31.2537 73.1111 30.8211 73.514 30.2699L73.8265 29.8372V31.8748H76.8407V18.9728H73.8265L73.8404 18.9658Z" fill="white"/>
<path d="M89.1847 18.9657V21.2195L88.8652 20.7799C88.4416 20.2008 87.8651 19.7053 87.1498 19.3355C86.4413 18.9447 85.6288 18.7563 84.6495 18.7563C83.566 18.7563 82.5659 19.0285 81.677 19.5728C80.8019 20.11 80.0865 20.8916 79.5865 21.8894C79.0725 22.8872 78.8086 24.0595 78.8086 25.3713C78.8086 25.9295 78.8503 26.425 78.9406 26.8925C78.9753 27.0948 79.01 27.2763 79.0447 27.4647C79.0725 27.5414 79.0933 27.6321 79.1211 27.7159C79.2461 28.1485 79.392 28.5323 79.5865 28.8881C80.0934 29.8929 80.7949 30.6814 81.6908 31.2466C82.5659 31.8049 83.5591 32.077 84.6287 32.077C85.5801 32.077 86.4275 31.8886 87.1498 31.4978C87.879 31.1071 88.4485 30.6047 88.8652 30.0116L89.1847 29.544V31.8746H92.1989V18.9727H89.1847V18.9657ZM89.1777 25.6086C89.1777 25.8667 89.143 26.1389 89.0944 26.4459C89.0666 26.5296 89.0527 26.6134 89.0388 26.6901C88.9486 27.046 88.8305 27.3391 88.6916 27.5972C88.3582 28.2113 87.9137 28.6718 87.3442 28.9998C86.7817 29.3347 86.1705 29.4882 85.5176 29.4882C84.8648 29.4882 84.2953 29.3208 83.7327 28.9788C83.1979 28.6648 82.7465 28.1973 82.4062 27.6042L82.3715 27.5275C82.2256 27.2623 82.1145 26.9971 82.052 26.718C81.9756 26.4878 81.927 26.2296 81.8853 25.9295C81.8714 25.7481 81.8575 25.5527 81.8575 25.3574C81.8575 24.534 82.0312 23.8013 82.3715 23.1942C82.7118 22.5941 83.1493 22.1406 83.7119 21.8057C84.837 21.1637 86.226 21.1707 87.3442 21.8126C87.8998 22.1336 88.3513 22.6081 88.6916 23.2152C89.025 23.8222 89.1847 24.5549 89.1847 25.3922C89.1847 25.462 89.1847 25.5248 89.1777 25.5946V25.6086Z" fill="white"/>
<path d="M99.9068 19.3425C99.2331 19.7263 98.7052 20.2497 98.2816 20.9405L97.9482 21.4708V18.9588H94.9688V31.8607H97.9482V25.4272C97.9482 25.0643 97.976 24.7364 98.0316 24.4294C98.1357 23.6827 98.4066 23.1106 98.8094 22.7268C99.365 22.1965 100.205 21.9313 101.303 21.9313H102.004V18.7773C101.219 18.8053 100.504 18.9867 99.8998 19.3425H99.9068Z" fill="white"/>
<path d="M115.678 25.1202C115.678 23.8503 115.415 22.7618 114.866 21.7709C114.338 20.808 113.581 20.0474 112.63 19.545C111.671 19.0147 110.567 18.7495 109.351 18.7495C108.136 18.7495 106.948 19.0216 105.976 19.5729C105.018 20.1032 104.261 20.8847 103.726 21.8825C103.177 22.8874 102.906 24.0806 102.906 25.4063C102.906 25.4482 102.906 25.4971 102.913 25.5389C102.913 25.9297 102.941 26.2786 102.99 26.6135C103.115 27.4718 103.365 28.2463 103.733 28.9232C104.281 29.928 105.045 30.7095 106.018 31.2537C106.997 31.805 108.108 32.0841 109.351 32.0841C110.872 32.0841 112.171 31.6794 113.213 30.8839C114.005 30.2768 114.623 29.5372 115.019 28.6789C115.116 28.4696 115.199 28.2603 115.276 28.044H112.025C111.886 28.33 111.72 28.5603 111.518 28.7557C110.963 29.3488 110.213 29.6488 109.275 29.6488C108.337 29.6488 107.615 29.3558 106.99 28.7906C106.462 28.3161 106.129 27.6671 105.997 26.8856C105.99 26.8368 105.99 26.8089 105.99 26.7879C105.962 26.6903 105.948 26.5647 105.941 26.4251L105.927 26.2437H115.602C115.651 25.9018 115.678 25.5319 115.678 25.1202ZM112.748 24.5202H105.719L105.789 24.1154C105.927 23.1455 106.309 22.371 106.941 21.8128C107.553 21.2545 108.337 20.9754 109.261 20.9754C110.185 20.9754 111.039 21.2615 111.713 21.8337C112.393 22.4268 112.741 23.2083 112.755 24.1713V24.5271L112.748 24.5202Z" fill="white"/>
<path d="M130.961 24.4642C130.871 23.5082 130.621 22.636 130.225 21.8684C129.704 20.8636 129.017 20.103 128.121 19.5588C127.239 19.0215 126.246 18.7424 125.148 18.7424C124.197 18.7424 123.377 18.9308 122.648 19.3215C121.919 19.7053 121.356 20.1868 120.933 20.8148L120.613 21.2893V14.5068H117.641V31.8606H120.613V29.6068L120.926 30.0394C121.356 30.6395 121.933 31.128 122.648 31.5118C123.357 31.8886 124.204 32.07 125.148 32.07C126.239 32.07 127.232 31.7978 128.121 31.2396C128.545 30.9745 128.899 30.6744 129.204 30.3395C129.593 29.9348 129.927 29.4603 130.225 28.8741C130.302 28.7276 130.364 28.595 130.427 28.4415C130.816 27.5204 131.003 26.5156 131.003 25.3573C131.003 25.0852 130.996 24.7782 130.961 24.4572V24.4642ZM127.725 26.8924C127.656 27.0948 127.565 27.3181 127.44 27.5484C127.086 28.1833 126.628 28.6648 126.072 28.9788C125.523 29.3207 124.912 29.4882 124.266 29.4882C124.093 29.4882 123.947 29.4812 123.808 29.4533C123.641 29.4114 123.495 29.3835 123.343 29.3626C123.03 29.2858 122.738 29.1602 122.468 28.9997C121.912 28.6788 121.46 28.1903 121.12 27.5763C120.828 27.0529 120.662 26.4528 120.634 25.8039V25.7481C120.62 25.6574 120.606 25.5318 120.606 25.4062C120.606 24.5898 120.78 23.8571 121.12 23.2431C121.46 22.636 121.912 22.1545 122.468 21.8196C123.593 21.1637 124.968 21.1776 126.065 21.8056C126.635 22.1406 127.086 22.5941 127.419 23.2012C127.628 23.564 127.76 23.9478 127.836 24.3665C127.906 24.6805 127.933 25.0084 127.933 25.3643C127.933 25.9295 127.857 26.4389 127.711 26.8924H127.725Z" fill="white"/>
</g>
<defs>
<clipPath id="clip0_2268_4766">
<rect width="131" height="61" fill="white"/>
</clipPath>
</defs>
</svg>
