<svg width="44" height="49" viewBox="0 0 44 49" fill="none" xmlns="http://www.w3.org/2000/svg">
<path d="M2.38438 42.6075V33.4294C2.38768 30.6643 3.49503 28.0135 5.46355 26.0583C7.43206 24.1031 10.101 23.0033 12.8849 23H18.1871C19.662 23.0024 21.12 23.3125 22.4666 23.9102C23.8132 24.5079 25.0183 25.38 26.0039 26.4698L27 25.5163C25.8864 24.292 24.5267 23.3131 23.0088 22.6429C21.4908 21.9726 19.8482 21.6259 18.1871 21.625H12.8849C9.73388 21.6285 6.71294 22.8732 4.48485 25.0862C2.25675 27.2992 1.00348 30.2997 1 33.4294V42.6075C1.00073 43.2418 1.25475 43.8499 1.70634 44.2984C2.15792 44.747 2.77018 44.9993 3.40882 45H16.9203V43.625H3.40882C3.13723 43.6246 2.87687 43.5173 2.68483 43.3266C2.49279 43.1358 2.38474 42.8772 2.38438 42.6075ZM7.92189 7.875V10.625C7.9239 12.4477 8.65382 14.1953 9.95149 15.4841C11.2492 16.773 13.0086 17.498 14.8438 17.5H16.2282C18.0633 17.498 19.8228 16.773 21.1204 15.4841C22.4181 14.1953 23.148 12.4477 23.15 10.625V7.875C23.148 6.05225 22.4181 4.30473 21.1204 3.01585C19.8228 1.72697 18.0633 1.002 16.2282 1L14.8438 1C13.0086 1.002 11.2492 1.72697 9.95149 3.01585C8.65382 4.30473 7.9239 6.05225 7.92189 7.875ZM14.8438 2.375H16.2282C17.6963 2.37664 19.1038 2.95663 20.1419 3.98772C21.1801 5.01882 21.764 6.41681 21.7657 7.875V10.625C21.764 12.0832 21.1801 13.4812 20.1419 14.5123C19.1038 15.5434 17.6963 16.1234 16.2282 16.125H14.8438C13.3756 16.1234 11.9681 15.5434 10.93 14.5123C9.89186 13.4812 9.30792 12.0832 9.30627 10.625V7.875C9.30792 6.41681 9.89186 5.01882 10.93 3.98772C11.9681 2.95663 13.3756 2.37664 14.8438 2.375Z" fill="white" stroke="white" stroke-width="2"/>
<path d="M42.3173 26H34.9076V27.3722H40.6577L35.1909 32.8389C33.4983 31.3969 31.3133 30.6657 29.0936 30.7987C26.874 30.9317 24.7918 31.9184 23.2834 33.5522C21.775 35.186 20.9574 37.3401 21.0017 39.5633C21.0461 41.7865 21.949 43.9063 23.5213 45.4787C25.0937 47.051 27.2135 47.9539 29.4367 47.9983C31.6599 48.0426 33.814 47.225 35.4478 45.7166C37.0816 44.2081 38.0683 42.126 38.2013 39.9064C38.3343 37.6867 37.6031 35.5017 36.1611 33.8091L41.6278 28.3423V34.0958H43V26.6861C43 26.5047 42.9282 26.3307 42.8003 26.2022C42.6723 26.0736 42.4987 26.0009 42.3173 26ZM36.8478 39.3691C36.848 40.7959 36.425 42.1906 35.6324 43.377C34.8399 44.5634 33.7133 45.488 32.3951 46.0341C31.077 46.5802 29.6265 46.7231 28.2272 46.4448C26.8278 46.1664 25.5425 45.4794 24.5336 44.4705C23.5247 43.4617 22.8377 42.1763 22.5594 40.7769C22.281 39.3776 22.424 37.9271 22.97 36.609C23.5161 35.2909 24.4408 34.1643 25.6271 33.3717C26.8135 32.5791 28.2082 32.1561 29.635 32.1563C31.5472 32.1586 33.3805 32.9193 34.7326 34.2715C36.0848 35.6236 36.8455 37.4569 36.8478 39.3691Z" fill="white" stroke="white" stroke-width="2"/>
</svg>
