<svg width="21" height="20" viewBox="0 0 21 20" fill="none" xmlns="http://www.w3.org/2000/svg">
<path d="M4.19362 10.0006L0.799335 1.27248C0.563095 0.665004 1.15544 0.0840677 1.7414 0.290563L1.83375 0.329822L19.8337 9.32982C20.352 9.58894 20.3844 10.2985 19.9309 10.6139L19.8337 10.6715L1.83375 19.6715C1.25077 19.963 0.617464 19.427 0.768798 18.8244L0.799335 18.7288L4.19362 10.0006L0.799335 1.27248L4.19362 10.0006ZM2.9021 2.54105L5.51109 9.25005L12.1387 9.25064C12.5184 9.25064 12.8322 9.5328 12.8818 9.89887L12.8887 10.0006C12.8887 10.3803 12.6065 10.6941 12.2404 10.7438L12.1387 10.7506L5.51109 10.75L2.9021 17.4602L17.8213 10.0006L2.9021 2.54105Z" fill="#F3C15E"/>
</svg>
