<svg width="464" height="446" viewBox="0 0 464 446" fill="none" xmlns="http://www.w3.org/2000/svg">
<g clip-path="url(#clip0_2403_5507)">
<circle cx="226" cy="210" r="199" fill="#F3C15E"/>
<path d="M215.928 445.86C302.101 445.86 371.958 441.746 371.958 436.67C371.958 431.595 302.101 427.48 215.928 427.48C129.755 427.48 59.8984 431.595 59.8984 436.67C59.8984 441.746 129.755 445.86 215.928 445.86Z" fill="#F3C15E" fill-opacity="0.17"/>
<path d="M72 399L342.482 399.271" stroke="#4FABF7" stroke-width="2" stroke-linecap="round" stroke-linejoin="round"/>
<path d="M411.129 399.34L442.002 399.371" stroke="#4FABF7" stroke-width="2" stroke-linecap="round" stroke-linejoin="round"/>
<path d="M81.1211 42.1797V45.9597" stroke="#4FABF7" stroke-width="2" stroke-linecap="round" stroke-linejoin="round"/>
<path d="M81.1211 50.2188V53.9987" stroke="#4FABF7" stroke-width="2" stroke-linecap="round" stroke-linejoin="round"/>
<path d="M75.2109 48.0898H78.9909" stroke="#4FABF7" stroke-width="2" stroke-linecap="round" stroke-linejoin="round"/>
<path d="M83.25 48.0898H87.03" stroke="#4FABF7" stroke-width="2" stroke-linecap="round" stroke-linejoin="round"/>
<path d="M382.93 286.6V290.38" stroke="#4FABF7" stroke-width="2" stroke-linecap="round" stroke-linejoin="round"/>
<path d="M382.93 294.639V298.419" stroke="#4FABF7" stroke-width="2" stroke-linecap="round" stroke-linejoin="round"/>
<path d="M377.008 292.51H380.788" stroke="#4FABF7" stroke-width="2" stroke-linecap="round" stroke-linejoin="round"/>
<path d="M385.059 292.51H388.839" stroke="#4FABF7" stroke-width="2" stroke-linecap="round" stroke-linejoin="round"/>
<path d="M35.9414 280.68V284.46" stroke="#4FABF7" stroke-width="2" stroke-linecap="round" stroke-linejoin="round"/>
<path d="M35.9414 288.73V292.51" stroke="#4FABF7" stroke-width="2" stroke-linecap="round" stroke-linejoin="round"/>
<path d="M30.0195 286.59H33.7995" stroke="#4FABF7" stroke-width="2" stroke-linecap="round" stroke-linejoin="round"/>
<path d="M38.0703 286.59H41.8503" stroke="#4FABF7" stroke-width="2" stroke-linecap="round" stroke-linejoin="round"/>
<path d="M368.141 120.25V124.03" stroke="#4FABF7" stroke-width="2" stroke-linecap="round" stroke-linejoin="round"/>
<path d="M368.141 128.301V132.081" stroke="#4FABF7" stroke-width="2" stroke-linecap="round" stroke-linejoin="round"/>
<path d="M362.23 126.17H366.01" stroke="#4FABF7" stroke-width="2" stroke-linecap="round" stroke-linejoin="round"/>
<path d="M370.27 126.17H374.05" stroke="#4FABF7" stroke-width="2" stroke-linecap="round" stroke-linejoin="round"/>
<path d="M347.867 61.3601L383.207 34.8301" stroke="#D9A328" stroke-width="2" stroke-linecap="round" stroke-linejoin="round"/>
<path d="M352.039 74.7505L387.369 67.4805" stroke="#D9A328" stroke-width="2" stroke-linecap="round" stroke-linejoin="round"/>
<path d="M98.6888 149.01L51.7188 150.47" stroke="#D9A328" stroke-width="2" stroke-linecap="round" stroke-linejoin="round"/>
<path d="M92.7889 136.531L51.8789 115.141" stroke="#D9A328" stroke-width="2" stroke-linecap="round" stroke-linejoin="round"/>
<path d="M165.279 1.0992C163.029 0.919201 160.729 0.969201 158.399 1.2592C139.789 3.5492 126.569 20.4992 128.869 39.1092C131.159 57.7192 148.109 70.9392 166.719 68.6392C169.299 68.3192 171.779 67.7292 174.129 66.8892L174.419 66.6992C175.119 67.4892 179.749 72.5892 187.059 74.2192C194.779 75.9292 206.609 72.9492 206.609 72.9492C206.609 72.9492 203.189 73.3092 194.499 69.1292C189.429 66.6892 186.199 60.7392 185.709 59.8092C193.389 52.6492 197.639 42.0292 196.249 30.8092C194.239 14.5292 181.019 2.3692 165.279 1.1192V1.0992Z" stroke="#3D7CFF" stroke-width="2" stroke-linecap="round" stroke-linejoin="round"/>
<path d="M143.95 18.4785L155.75 33.4985L154.83 39.1685L143.68 42.3185L147.07 51.1785L156.69 42.1385C156.69 42.1385 159.46 42.7285 161.71 42.4385C163.96 42.1485 166.11 40.4785 166.11 40.4785L187.16 40.7585C187.16 40.7585 182.87 36.3985 178.61 34.8485C174.35 33.2985 170.12 34.5585 170.12 34.5585C170.12 34.5585 174.23 31.3285 174.58 28.3085C175.79 27.4285 178.14 25.7085 178.23 25.3785C178.32 25.0285 175.16 26.0085 174.08 26.3485C171.97 23.7885 163.81 28.6685 163.81 28.6685C163.81 28.6685 160.49 24.7285 156.62 22.0385C152.75 19.3585 143.95 18.4785 143.95 18.4785Z" fill="white"/>
<path d="M313.991 209.18L330.301 200.5C334.271 198.28 338.861 198.69 342.101 201.32L338.961 202.86L343.011 211.06L346.681 209.26C347.591 213.67 345.551 218.21 341.311 220.58L325.751 229.85C326.911 231.73 329.341 236.28 329.341 236.28L347.521 225.13C354.621 221.16 357.511 212.65 354.671 205.27L364.551 200.41C369.231 207.16 378.311 209.42 385.631 205.33L407.211 193.27C415.001 188.92 417.761 179.07 413.411 171.28L412.591 169.82L421.181 160.42L423.201 161.44C431.141 165.51 440.891 162.41 444.971 154.47L455.241 135.39L448.971 132.36L440.621 148.66C438.111 153.56 432.361 155.55 427.331 153.7L430.161 150.59L422.611 144.69L419.821 147.89C418.121 144.85 417.731 141.13 419.441 137.8L427.721 121.65L421.141 118.43L411.391 137.05C408.421 142.84 409.731 149.86 413.721 154.83L407.041 162.48C402.071 158.62 395.081 157.84 389.241 161.11L367.661 173.17C360.791 177.01 357.841 185.13 360.231 192.34L350.221 197.29C345.421 191.03 336.651 189.01 329.561 192.97L311.141 203.24L313.981 209.18H313.991ZM373.591 177.36L389.681 168.36C393.481 166.24 397.991 166.71 401.281 169.11L398.091 172.75L404.231 178.98L406.191 176.83C407.501 181.52 405.721 186.64 401.281 189.12L385.191 198.12C380.971 200.48 375.951 199.58 372.611 196.43L375.591 194.96L371.541 186.76L368.271 188.39C367.831 185.47 368.551 182.49 370.361 180.17C371.221 179.06 372.291 178.11 373.591 177.38V177.36Z" fill="#6295FF"/>
<path d="M50.6097 193.349L38.6697 189.039L35.9297 197.659L48.2197 202.109C47.2497 209.869 51.7397 217.499 59.1197 219.859L81.6597 227.089C89.3497 229.549 97.2997 225.339 100.12 217.669L109.05 219.919C108.1 228.649 113.95 236.719 122.26 237.989L142.11 241.039L143.28 234.599L125.98 231.609C121.12 230.869 117.74 226.879 117.35 221.999L121.31 222.989L123.19 214.109L119.26 213.109C121.35 210.059 124.95 208.359 128.88 208.959L145.98 211.049C146.16 208.859 146.87 203.759 146.87 203.759L126.73 201.559C119.79 200.499 113.37 204.549 110.74 210.959L102.35 208.849C102.92 201.369 98.4197 194.159 91.2997 191.879L68.7897 184.669C66.7597 184.019 64.6797 183.819 62.7097 184.029C57.4597 184.609 52.8297 188.089 50.6097 193.309V193.349ZM69.9197 191.849L86.7397 197.239C90.9297 198.579 93.6697 202.479 94.0297 206.789L89.5597 205.649L87.6797 214.529L91.7697 215.569C89.3797 219.379 84.9097 221.349 80.4897 219.939L63.6997 214.539C59.5397 213.209 56.7697 209.369 56.3897 205.079L61.6997 206.979L64.4397 198.359L58.6097 196.249C60.2597 193.579 62.8697 191.769 65.8597 191.439C67.1797 191.289 68.5597 191.409 69.9097 191.849H69.9197Z" fill="#6295FF"/>
<path d="M302.01 203.219L304.75 188.219L299.07 190.939L302.01 203.219Z" fill="#A1BDE5" fill-opacity="0.5"/>
<path d="M152.8 242.379L143.32 254.309H150.97L152.81 242.379H152.8Z" fill="#A1BDE5" fill-opacity="0.5"/>
<path d="M311.628 236.849L310.258 243.329L320.268 246.629L315.128 236.209L311.638 236.849H311.628Z" fill="#A1BDE5" fill-opacity="0.5"/>
<path d="M153.841 216.549L150.871 222.469L159.721 228.199L157.381 216.819L153.841 216.549Z" fill="#A1BDE5" fill-opacity="0.5"/>
<path d="M174.408 269.431L168.338 260.811L166.258 272.241L174.408 269.421V269.431Z" fill="#A1BDE5" fill-opacity="0.5"/>
<path d="M251.62 97.0007C251.62 97.0007 250.4 103.141 246.57 107.891C241.97 113.591 237.33 114.681 237.33 114.681L243.21 123.411C243.21 123.411 235.85 131.531 229.33 135.071C220.57 139.841 211.28 141.281 201.01 137.971C192.69 135.291 186.49 129.531 185.31 122.621C183.9 114.341 189.29 105.511 197.4 103.641C205.51 101.771 210.63 105.571 214.38 104.481C218.63 103.251 224.52 98.8607 226.68 97.0507C228.84 95.2407 234.36 90.5207 244.08 88.8207C253.8 87.1207 260.39 90.2107 264.14 92.4207C267.89 94.6307 269.95 98.5007 271.45 101.021C274.12 105.501 273.63 110.531 272.11 113.331C269.02 119.001 265.69 119.221 265.69 119.221C265.69 119.221 268.92 112.921 267.92 106.721C267.69 105.271 264.68 101.061 264.68 101.061C264.68 101.061 260.97 101.131 257.78 100.061C254.59 98.9807 251.61 97.0007 251.61 97.0007H251.62Z" fill="#081776"/>
<path d="M221.26 103.52C214.08 104.4 209.04 98.9603 203.43 99.1003C198.54 99.2303 195.81 102.91 190.91 102.87" stroke="#081776" stroke-width="2" stroke-linecap="round" stroke-linejoin="round"/>
<path d="M266.34 96.6406C270.58 101.921 278.38 100.421 274.65 114.891" stroke="#081776" stroke-width="2" stroke-linecap="round" stroke-linejoin="round"/>
<path d="M244.75 112.941C244.82 111.731 245.86 110.811 247.07 110.881C248.28 110.951 249.2 111.991 249.13 113.201C249.06 114.411 248.02 115.331 246.81 115.261C245.6 115.191 244.68 114.151 244.75 112.941Z" fill="#FFEAA9"/>
<path d="M267.133 116.151C270.263 108.081 266.263 98.9906 258.193 95.8506C250.123 92.7206 241.033 96.7206 237.893 104.791C234.763 112.861 238.763 121.951 246.843 125.091C254.913 128.221 264.003 124.221 267.143 116.151H267.133Z" stroke="#081776" stroke-width="2" stroke-linecap="round" stroke-linejoin="round"/>
<path d="M252.293 114.859C252.293 114.859 253.213 116.679 254.543 117.169C255.863 117.659 257.593 116.839 257.593 116.839" stroke="#081776" stroke-width="2" stroke-linecap="round" stroke-linejoin="round"/>
<path d="M264.111 105.06C264.111 105.06 263.171 104.44 261.721 104.91C260.261 105.38 260.281 106.97 260.281 106.97" stroke="#081776" stroke-width="2" stroke-linecap="round" stroke-linejoin="round"/>
<path d="M249.781 109.641C249.781 109.641 250.781 107.801 252.351 107.561C253.621 107.371 254.831 108.731 254.831 108.731" stroke="#081776" stroke-width="2" stroke-linecap="round" stroke-linejoin="round"/>
<path d="M256.863 106.48L260.603 111.55L257.113 112.33" stroke="#081776" stroke-width="2" stroke-linecap="round" stroke-linejoin="round"/>
<path d="M245.873 90.3004C232.333 86.1304 227.393 98.3804 218.043 94.9404" stroke="#081776" stroke-width="2" stroke-linecap="round" stroke-linejoin="round"/>
<path d="M266.453 217.161C274.603 209.691 280.543 198.771 282.393 186.051C286.183 160.031 271.453 136.341 249.503 133.151C227.553 129.961 206.683 148.461 202.893 174.481C201.043 187.201 203.623 199.361 209.303 208.841L266.453 217.161Z" fill="#FFEAA9"/>
<path opacity="0.3" d="M262.012 140.891C262.422 141.531 263.292 141.701 263.922 141.291C264.562 140.881 264.732 140.011 264.322 139.381L263.922 138.771C262.272 137.661 260.552 136.691 258.742 135.871L262.012 140.891Z" fill="#88BFF0"/>
<path opacity="0.3" d="M244.602 141.17C245.062 141.77 245.932 141.88 246.532 141.42L252.542 136.81C253.142 136.35 253.282 135.51 252.822 134.91C252.592 134.61 252.252 134.4 251.902 134.35C251.552 134.3 251.192 134.43 250.892 134.66L244.862 139.24C244.262 139.7 244.152 140.57 244.612 141.17H244.602Z" fill="#88BFF0"/>
<path opacity="0.3" d="M224.03 147.149L230.07 142.539C230.67 142.079 230.79 141.18 230.32 140.58C230.09 140.28 229.77 140.129 229.42 140.089C229.07 140.039 228.72 140.109 228.41 140.339L222.37 144.95C221.77 145.41 221.66 146.28 222.12 146.88C222.58 147.48 223.42 147.62 224.02 147.16L224.03 147.149Z" fill="#88BFF0"/>
<path opacity="0.3" d="M217.319 161.391C217.779 161.991 218.649 162.101 219.249 161.641L225.289 157.031C225.889 156.571 225.999 155.701 225.539 155.101C225.309 154.801 224.969 154.621 224.619 154.571C224.269 154.521 223.909 154.621 223.609 154.851L217.569 159.461C216.969 159.921 216.859 160.791 217.319 161.391Z" fill="#88BFF0"/>
<path opacity="0.3" d="M215.34 182.681L209.3 187.291C208.7 187.751 208.59 188.621 209.05 189.221C209.51 189.821 210.35 189.961 210.95 189.501L216.99 184.891C217.59 184.431 217.7 183.561 217.24 182.961C217.01 182.661 216.7 182.481 216.35 182.441C216 182.391 215.65 182.461 215.34 182.691V182.681Z" fill="#88BFF0"/>
<path opacity="0.3" d="M222.053 168.441C221.823 168.141 221.483 167.961 221.133 167.911C220.783 167.861 220.423 167.961 220.123 168.191L214.093 172.801C213.493 173.261 213.383 174.131 213.843 174.731C214.303 175.331 215.173 175.441 215.773 174.981L221.803 170.371C222.403 169.911 222.513 169.041 222.053 168.441Z" fill="#88BFF0"/>
<path opacity="0.3" d="M266.561 147.281C265.961 147.741 265.851 148.581 266.311 149.181C266.771 149.781 267.611 149.921 268.211 149.461L272.241 146.381C271.661 145.671 271.061 144.981 270.431 144.311L266.551 147.271L266.561 147.281Z" fill="#88BFF0"/>
<path opacity="0.3" d="M267.66 171.6C267.43 171.3 267.09 171.12 266.74 171.07C266.39 171.02 266.04 171.09 265.73 171.32L259.7 175.93C259.1 176.39 258.98 177.29 259.44 177.89C259.9 178.49 260.77 178.6 261.37 178.14L267.41 173.53C268.01 173.07 268.12 172.2 267.66 171.6Z" fill="#88BFF0"/>
<path opacity="0.3" d="M272.443 157.081C272.213 156.781 271.893 156.601 271.553 156.561C271.203 156.511 270.843 156.611 270.543 156.841L264.503 161.451C263.903 161.911 263.793 162.781 264.253 163.381C264.713 163.981 265.553 164.091 266.153 163.631L272.183 159.021C272.783 158.561 272.893 157.691 272.433 157.091L272.443 157.081Z" fill="#88BFF0"/>
<path opacity="0.3" d="M219.97 209.6C219.76 209.28 219.46 209.09 219.11 209.02C218.77 208.95 218.4 209 218.08 209.2C217.77 209.4 217.58 209.7 217.5 210.03L220.53 210.47L219.97 209.6Z" fill="#88BFF0"/>
<path opacity="0.3" d="M259.263 213.26C259.033 212.96 258.723 212.78 258.373 212.74C258.023 212.69 257.673 212.76 257.363 212.99L254.223 215.38L257.163 215.81C257.893 215.45 258.613 215.07 259.333 214.67C259.553 214.21 259.593 213.69 259.263 213.27V213.26Z" fill="#88BFF0"/>
<path opacity="0.3" d="M236.611 208.17C237.211 207.71 237.321 206.87 236.861 206.27C236.631 205.97 236.311 205.79 235.971 205.75C235.621 205.7 235.271 205.77 234.961 206L228.921 210.61C228.591 210.86 228.411 211.24 228.391 211.63L231.511 212.08L236.611 208.18V208.17Z" fill="#88BFF0"/>
<path opacity="0.3" d="M270.919 205.201C271.449 204.591 271.959 203.971 272.459 203.331C272.429 203.271 272.459 203.201 272.429 203.141L267.909 196.271C267.699 195.951 267.399 195.731 267.059 195.661C266.719 195.591 266.349 195.641 266.029 195.841C265.389 196.251 265.209 197.151 265.629 197.781L270.119 204.651C270.309 204.951 270.599 205.111 270.919 205.191V205.201Z" fill="#88BFF0"/>
<path opacity="0.3" d="M268.79 219.88C269.32 219.27 269.83 218.65 270.33 218.01C270.3 217.95 270.33 217.88 270.3 217.82L265.78 210.95C265.57 210.63 265.27 210.41 264.93 210.34C264.59 210.27 264.22 210.32 263.9 210.52C263.26 210.93 263.08 211.83 263.5 212.46L267.99 219.33C268.18 219.63 268.47 219.79 268.79 219.87V219.88Z" fill="#88BFF0"/>
<path opacity="0.3" d="M208.691 166.1L208.841 166.3C209.251 166.94 210.091 167.11 210.721 166.7C211.361 166.29 211.561 165.46 211.141 164.82L209.781 162.74C209.381 163.84 209.011 164.95 208.691 166.1Z" fill="#88BFF0"/>
<path opacity="0.3" d="M265.723 184.131C265.493 183.831 265.173 183.651 264.833 183.611C264.483 183.561 264.093 183.651 263.793 183.881L257.753 188.491C257.153 188.951 257.043 189.821 257.503 190.421C257.963 191.021 258.833 191.161 259.433 190.701L265.443 186.061C266.043 185.601 266.183 184.731 265.723 184.131Z" fill="#88BFF0"/>
<path opacity="0.3" d="M208.071 180.17C208.711 179.76 208.881 178.89 208.471 178.26L206.781 175.68C206.611 177.13 206.521 178.55 206.461 179.97C206.911 180.36 207.541 180.52 208.071 180.17Z" fill="#88BFF0"/>
<path opacity="0.3" d="M215.351 199.471C215.951 199.011 216.091 198.141 215.631 197.541C215.401 197.241 215.061 197.061 214.711 197.011C214.361 196.961 214.001 197.061 213.701 197.291L209.781 200.301C210.151 201.171 210.591 201.961 211.021 202.781L215.351 199.471Z" fill="#88BFF0"/>
<path opacity="0.3" d="M236.669 161.51C237.309 161.1 237.479 160.23 237.069 159.6L232.579 152.73C232.369 152.41 232.039 152.19 231.699 152.12C231.359 152.05 230.989 152.12 230.669 152.33C230.029 152.74 229.859 153.61 230.269 154.24L234.729 161.1C235.139 161.74 236.039 161.92 236.669 161.5V161.51Z" fill="#88BFF0"/>
<path opacity="0.3" d="M228.34 189.36C228.98 188.95 229.18 188.09 228.77 187.45L224.29 180.55C224.08 180.23 223.75 180.01 223.41 179.94C223.07 179.87 222.7 179.94 222.38 180.15C221.74 180.56 221.57 181.43 221.98 182.06L226.47 188.93C226.88 189.57 227.71 189.77 228.35 189.35L228.34 189.36Z" fill="#88BFF0"/>
<path opacity="0.3" d="M279.19 176.091L274.68 169.191C274.47 168.871 274.17 168.651 273.83 168.581C273.49 168.511 273.09 168.581 272.77 168.791C272.13 169.201 271.99 170.071 272.4 170.711L276.86 177.571C277.27 178.211 278.13 178.411 278.77 178.001C279.41 177.591 279.61 176.731 279.2 176.091H279.19Z" fill="#88BFF0"/>
<path opacity="0.3" d="M233.153 174.851C233.793 174.441 233.963 173.571 233.553 172.941L229.073 166.041C228.863 165.721 228.563 165.531 228.213 165.461C227.873 165.391 227.473 165.431 227.153 165.641C226.513 166.051 226.373 166.921 226.783 167.561L231.263 174.461C231.673 175.101 232.513 175.271 233.143 174.861L233.153 174.851Z" fill="#88BFF0"/>
<path opacity="0.3" d="M239.152 168.661C239.612 169.261 240.482 169.401 241.082 168.941L247.092 164.331C247.692 163.871 247.832 163.001 247.372 162.401C247.142 162.101 246.822 161.921 246.482 161.881C246.132 161.831 245.742 161.921 245.442 162.151L239.432 166.761C238.832 167.221 238.692 168.061 239.152 168.661Z" fill="#88BFF0"/>
<path opacity="0.3" d="M224.821 203.551C225.231 204.191 226.101 204.361 226.731 203.951C227.371 203.541 227.541 202.671 227.131 202.041L222.641 195.171C222.431 194.851 222.131 194.631 221.791 194.561C221.451 194.491 221.081 194.541 220.761 194.741C220.121 195.151 219.921 196.011 220.331 196.651L224.811 203.551H224.821Z" fill="#88BFF0"/>
<path opacity="0.3" d="M272.731 181.761C272.521 181.441 272.221 181.221 271.881 181.151C271.541 181.081 271.171 181.151 270.851 181.361C270.211 181.771 270.011 182.601 270.421 183.241L274.931 190.141C275.341 190.781 276.171 190.981 276.811 190.571C277.451 190.161 277.631 189.261 277.211 188.631L272.721 181.761H272.731Z" fill="#88BFF0"/>
<path opacity="0.3" d="M243.199 154.79L249.239 150.18C249.839 149.72 249.949 148.85 249.489 148.25C249.259 147.95 248.939 147.77 248.599 147.73C248.249 147.68 247.859 147.77 247.559 148L241.549 152.61C240.949 153.07 240.809 153.94 241.269 154.54C241.729 155.14 242.599 155.25 243.199 154.79Z" fill="#88BFF0"/>
<path opacity="0.3" d="M277.179 156.191L280.219 160.861C279.449 158.601 278.529 156.441 277.479 154.381C276.939 154.821 276.799 155.601 277.179 156.191Z" fill="#88BFF0"/>
<path opacity="0.3" d="M234.132 198.361L240.142 193.751C240.742 193.291 240.882 192.421 240.422 191.821C240.192 191.521 239.852 191.341 239.502 191.291C239.152 191.241 238.802 191.311 238.492 191.541L232.462 196.151C231.862 196.611 231.742 197.511 232.202 198.111C232.662 198.711 233.532 198.821 234.132 198.361Z" fill="#88BFF0"/>
<path opacity="0.3" d="M252.073 161.511L256.582 168.411C256.992 169.051 257.833 169.221 258.463 168.811C259.103 168.401 259.272 167.531 258.862 166.901L254.373 160.031C254.163 159.711 253.863 159.491 253.523 159.421C253.183 159.351 252.813 159.421 252.493 159.631C251.853 160.041 251.653 160.871 252.073 161.511Z" fill="#88BFF0"/>
<path opacity="0.3" d="M237.361 138.21C237.151 137.89 236.821 137.67 236.481 137.6C236.141 137.53 235.771 137.6 235.451 137.81C234.811 138.22 234.641 139.06 235.051 139.69L239.531 146.59C239.941 147.23 240.801 147.43 241.441 147.02C242.081 146.61 242.251 145.74 241.841 145.11L237.361 138.21Z" fill="#88BFF0"/>
<path opacity="0.3" d="M260.581 154.65C261.221 154.24 261.391 153.37 260.981 152.74L256.501 145.84C256.291 145.52 255.991 145.33 255.641 145.26C255.301 145.19 254.931 145.24 254.611 145.44C253.971 145.85 253.801 146.72 254.211 147.35L258.691 154.25C259.101 154.89 259.941 155.06 260.571 154.65H260.581Z" fill="#88BFF0"/>
<path opacity="0.3" d="M251.909 196.311L247.429 189.411C247.219 189.091 246.919 188.901 246.569 188.831C246.229 188.761 245.829 188.801 245.509 189.011C244.869 189.421 244.699 190.261 245.109 190.891L249.589 197.821C249.999 198.461 250.869 198.631 251.499 198.221C252.139 197.811 252.309 196.941 251.899 196.311H251.909Z" fill="#88BFF0"/>
<path opacity="0.3" d="M256.301 183.671C256.941 183.261 257.111 182.421 256.701 181.791L252.211 174.921C252.001 174.601 251.701 174.381 251.361 174.311C251.021 174.241 250.651 174.291 250.331 174.491C249.691 174.901 249.491 175.761 249.901 176.401L254.411 183.301C254.821 183.941 255.661 184.081 256.301 183.661V183.671Z" fill="#88BFF0"/>
<path opacity="0.3" d="M246.07 212.251C246.48 212.891 247.35 213.061 247.98 212.651C248.62 212.241 248.79 211.401 248.38 210.771L243.9 203.871C243.69 203.551 243.36 203.331 243.02 203.261C242.68 203.191 242.34 203.271 242.02 203.481C241.38 203.891 241.18 204.721 241.6 205.361L246.08 212.261L246.07 212.251Z" fill="#88BFF0"/>
<path opacity="0.3" d="M254.619 205.19L260.659 200.58C261.259 200.12 261.369 199.25 260.909 198.65C260.679 198.35 260.369 198.17 260.019 198.13C259.669 198.08 259.309 198.18 259.009 198.41L252.979 203.02C252.379 203.48 252.269 204.35 252.729 204.95C253.189 205.55 254.029 205.66 254.629 205.2L254.619 205.19Z" fill="#88BFF0"/>
<path opacity="0.3" d="M245.192 177.301C244.962 177.001 244.642 176.821 244.302 176.781C243.952 176.731 243.562 176.821 243.262 177.051L237.252 181.661C236.652 182.121 236.512 182.991 236.972 183.591C237.432 184.191 238.302 184.301 238.902 183.841L244.912 179.231C245.512 178.771 245.652 177.901 245.192 177.301Z" fill="#88BFF0"/>
<path d="M211.372 209.141C190.682 220.841 188.252 248.181 193.232 265.951C198.202 283.711 201.092 307.671 201.092 307.671L140.682 270.041L108.152 323.561C108.152 323.561 181.912 375.481 210.352 373.741C238.792 372.001 246.202 341.211 251.812 326.331C263.522 340.291 319.182 416.651 319.182 416.651L363.972 380.201L265.742 217.061L211.372 209.151V209.141Z" fill="#081776"/>
<path d="M231.92 240.461C235.92 263.711 246.85 349.211 216.66 358.751C186.47 368.291 125.84 322.691 125.84 322.691" stroke="#FFEAA9" stroke-width="2" stroke-linecap="round" stroke-linejoin="round"/>
<path d="M267.742 243.85L347.872 377.08" stroke="#FFEAA9" stroke-width="2" stroke-linecap="round" stroke-linejoin="round"/>
<path d="M251.812 326.32L247.422 273.83L276.382 358.5L251.812 326.32Z" fill="#6295FF" fill-opacity="0.1"/>
<path d="M114.382 306.811L109.402 303.631C109.402 303.631 66.8417 325.871 59.4817 316.961C57.6717 314.771 112.022 254.131 112.022 254.131L133.302 271.411C127.192 279.751 105.792 270.511 105.792 270.511" stroke="#081776" stroke-width="2" stroke-linecap="round" stroke-linejoin="round"/>
<path d="M92.9336 302.74L94.1636 319.21" stroke="#FFEAA9" stroke-width="2" stroke-linecap="round" stroke-linejoin="round"/>
<path d="M98.5 301.83L99.73 318.31" stroke="#FFEAA9" stroke-width="2" stroke-linecap="round" stroke-linejoin="round"/>
<path d="M62.1328 318.6L116.993 258.16" stroke="#081776" stroke-width="2" stroke-linecap="round" stroke-linejoin="round"/>
<path d="M359.633 387.971L363.163 392.711C363.163 392.711 410.843 387.021 414.563 397.971C415.483 400.661 343.143 438.071 343.143 438.071L329.383 414.361C338.053 408.731 354.783 424.961 354.783 424.961" stroke="#081776" stroke-width="2" stroke-linecap="round" stroke-linejoin="round"/>
<path d="M378.242 399.391L382.932 383.541" stroke="#FFEAA9" stroke-width="2" stroke-linecap="round" stroke-linejoin="round"/>
<path d="M372.711 398.25L377.401 382.41" stroke="#FFEAA9" stroke-width="2" stroke-linecap="round" stroke-linejoin="round"/>
<path d="M412.662 395.48L339.922 432.52" stroke="#081776" stroke-width="2" stroke-linecap="round" stroke-linejoin="round"/>
<path d="M233.933 129.6C215.783 128.68 180.943 150.12 175.553 157.59C172.173 143.84 165.493 101.11 136.513 111.86C107.523 122.61 131.763 181.42 157.873 194.14C183.983 206.86 199.963 196.81 199.963 196.81C199.963 196.81 173.463 238.48 168.433 243.48C163.403 248.49 196.353 265.92 206.833 264.08C217.313 262.25 244.883 150.44 244.463 131.13C239.713 130.55 233.933 129.6 233.933 129.6Z" fill="#FFEAA9"/>
<path d="M274.233 161.71C278.653 190.74 265.503 216.62 265.743 217.05L289.983 257.3C289.983 257.3 294.973 200.91 292.353 186.44C310.243 164.46 328.673 139.69 329.793 121.18C330.913 102.68 341.203 42.7901 309.923 41.3801C278.643 39.9801 294.243 98.6201 290.413 110.54C286.583 122.46 255.483 134.26 258.333 135.67C261.243 137.11 271.713 145.24 274.223 161.7L274.233 161.71Z" fill="#FFEAA9"/>
<path d="M280.711 143.52C291.441 166.37 296.931 198.26 289.981 257.31" stroke="#081776" stroke-width="2" stroke-linecap="round" stroke-linejoin="round"/>
<path d="M237.992 133.98L225.742 146.14L227.932 191.74" stroke="#081776" stroke-width="2" stroke-linecap="round" stroke-linejoin="round"/>
<path d="M225.323 206.011C225.083 207.661 223.553 208.811 221.893 208.561C220.233 208.311 219.093 206.791 219.343 205.131C219.583 203.481 221.113 202.331 222.773 202.581C224.423 202.821 225.573 204.351 225.323 206.011Z" fill="#081776"/>
<path d="M220.221 220.079C219.981 221.729 218.451 222.879 216.791 222.629C215.141 222.389 213.991 220.859 214.241 219.199C214.481 217.549 216.011 216.399 217.671 216.649C219.321 216.889 220.471 218.419 220.221 220.079Z" fill="#081776"/>
<path d="M301.062 53.8399C301.062 53.8399 294.102 44.7299 290.482 38.7399C286.852 32.7499 282.882 22.6699 285.072 22.0299C290.302 20.4899 298.472 34.0799 298.472 34.0799C298.472 34.0799 300.992 32.0199 304.102 31.5699C307.212 31.1199 310.912 32.2799 310.912 32.2799" stroke="#081776" stroke-width="2" stroke-linecap="round" stroke-linejoin="round"/>
<path d="M296.153 30.5202C296.153 30.5202 292.573 12.6302 296.373 9.9302C300.173 7.2302 303.553 26.6002 303.553 26.6002C303.553 26.6002 303.283 8.2302 307.293 7.9602C311.303 7.6802 310.413 26.0602 310.413 26.0602C310.413 26.0602 311.633 9.9002 316.033 11.2002C319.383 12.1902 318.993 23.5002 318.533 32.3902C318.293 37.1702 316.983 47.2902 316.983 47.2902" stroke="#081776" stroke-width="2" stroke-linecap="round" stroke-linejoin="round"/>
<path d="M146.73 117.39C146.73 117.39 149.28 113.97 150.04 103.34C150.91 91.3103 152.28 87.2603 150 85.1003C147.73 82.9403 142.35 87.4703 140.9 94.6003C139.92 99.4003 139.65 101.33 139.65 101.33C139.65 101.33 135.6 100.49 132.16 102.66C128.72 104.83 128.07 107.21 128.07 107.21" stroke="#081776" stroke-width="2" stroke-linecap="round" stroke-linejoin="round"/>
<path d="M140.643 96.2601C140.643 96.2601 129.913 76.5401 124.983 78.3901C120.763 79.9701 124.753 85.7801 127.243 90.5801C129.593 95.1101 130.253 98.1401 130.253 98.1401C130.253 98.1401 127.453 94.8801 124.363 90.8801C120.963 86.4801 115.753 80.8301 112.553 83.6301C109.353 86.4301 115.133 90.6701 118.723 95.9101C122.163 100.92 124.283 103.46 124.283 103.46C124.283 103.46 122.383 100.5 118.803 97.2301C115.213 93.9701 111.263 90.2701 108.853 92.8601C106.453 95.4501 113.953 101.91 116.933 107.27C119.423 111.75 127.463 120.48 136.643 123.73" stroke="#081776" stroke-width="2" stroke-linecap="round" stroke-linejoin="round"/>
<path d="M247.231 46.6156C247.231 41.8575 243.374 38 238.616 38C233.857 38 230 41.8575 230 46.6156C230 50.7837 232.96 54.2602 236.892 55.0588V58.6774H234.021V61.5492H236.892V64.4211H240.339V61.5492H243.211V58.6774H240.339V55.0588C244.271 54.2602 247.231 50.7837 247.231 46.6156ZM238.616 52.0721C235.607 52.0721 233.159 49.6244 233.159 46.6156C233.159 43.6068 235.607 41.159 238.616 41.159C241.624 41.159 244.072 43.6068 244.072 46.6156C244.072 49.6244 241.624 52.0721 238.616 52.0721ZM247.959 55.4995C247.816 55.5062 247.675 55.541 247.545 55.6021C247.415 55.6633 247.298 55.7494 247.201 55.8557C247.105 55.9619 247.03 56.0862 246.981 56.2214C246.932 56.3566 246.911 56.5001 246.917 56.6436L247.038 59.2398L249.634 59.1189C249.924 59.1054 250.197 58.9773 250.392 58.7627C250.588 58.5481 250.69 58.2647 250.676 57.9748C250.663 57.6849 250.535 57.4122 250.32 57.2168C250.106 57.0213 249.822 56.9191 249.532 56.9327L249.122 56.9515L249.104 56.5416C249.09 56.2518 248.962 55.9792 248.747 55.7838C248.533 55.5884 248.249 55.4861 247.959 55.4995ZM251.022 61.5382C250.798 61.5278 250.58 61.6067 250.414 61.7574C250.249 61.9081 250.15 62.1184 250.14 62.3419L250.125 62.658L249.809 62.6433C249.698 62.6375 249.587 62.6537 249.482 62.691C249.377 62.7283 249.281 62.7859 249.198 62.8606C249.116 62.9353 249.049 63.0255 249.002 63.1261C248.954 63.2267 248.927 63.3356 248.922 63.4467C248.917 63.5578 248.934 63.6688 248.972 63.7734C249.01 63.8779 249.068 63.9739 249.143 64.0559C249.218 64.1379 249.309 64.2042 249.41 64.251C249.511 64.2978 249.62 64.3242 249.731 64.3287L251.732 64.4215L251.825 62.4204C251.83 62.3098 251.813 62.1991 251.776 62.0949C251.738 61.9906 251.681 61.8948 251.606 61.8128C251.531 61.7309 251.441 61.6645 251.341 61.6174C251.241 61.5702 251.132 61.5433 251.022 61.5382Z" fill="#051878"/>
</g>
<defs>
<clipPath id="clip0_2403_5507">
<rect width="463.28" height="445.87" fill="white"/>
</clipPath>
</defs>
</svg>
