<svg width="505" height="419" viewBox="0 0 505 419" fill="none" xmlns="http://www.w3.org/2000/svg">
<circle cx="254" cy="199" r="199" fill="#F3C15E"/>
<g clip-path="url(#clip0_2465_217)">
<path d="M319.994 54.4548C302.402 53.6319 283.285 53.1026 268.821 60.5373C263.865 63.0886 259.739 66.4586 254.643 68.8527C245.841 72.9877 234.887 73.8519 224.481 73.3102C216.992 72.9215 209.619 71.8506 202.208 71.007C199.237 70.668 195.273 69.5598 193.345 71.1269C190.867 73.1614 192.201 78.6939 191.932 81.2659C191.405 86.3271 190.368 91.38 189.684 96.4329C188.871 102.429 188.103 108.424 187.537 114.437C187.223 117.79 184.565 124.604 187.054 127.656C189.667 130.857 200.246 130.298 205.381 130.621C221.258 131.617 237.258 131.547 253.112 130.41C257.379 130.104 261.774 129.686 265.474 128.09C268.513 126.775 270.862 124.757 273.597 123.12C284.059 116.868 298.781 116.831 312.241 117.095C314.825 96.2138 317.416 75.3363 320 54.4548H319.994Z" fill="white"/>
<mask id="mask0_2465_217" style="mask-type:luminance" maskUnits="userSpaceOnUse" x="186" y="54" width="134" height="78">
<path d="M319.994 54.4548C302.402 53.6319 283.285 53.1026 268.821 60.5373C263.865 63.0886 259.739 66.4586 254.643 68.8527C245.841 72.9877 234.887 73.8519 224.481 73.3102C216.992 72.9215 209.619 71.8506 202.208 71.007C199.237 70.668 195.273 69.5598 193.345 71.1269C190.867 73.1614 192.201 78.6939 191.932 81.2659C191.405 86.3271 190.368 91.38 189.684 96.4329C188.871 102.429 188.103 108.424 187.537 114.437C187.223 117.79 184.565 124.604 187.054 127.656C189.667 130.857 200.246 130.298 205.381 130.621C221.258 131.617 237.258 131.547 253.112 130.41C257.379 130.104 261.774 129.686 265.474 128.09C268.513 126.775 270.862 124.757 273.597 123.12C284.059 116.868 298.781 116.831 312.241 117.095C314.825 96.2138 317.416 75.3363 320 54.4548H319.994Z" fill="white"/>
</mask>
<g mask="url(#mask0_2465_217)">
<path d="M176.619 116.02C176.619 116.02 247.706 123.182 258.968 117.401C270.231 111.62 268.712 99.48 279.734 97.1438C290.761 94.8075 322.055 102.242 322.055 102.242L314.251 123.111C314.251 123.111 292.14 120.742 284.572 123.058C277.009 125.369 278.742 133.403 261.957 135.326C245.172 137.253 177.701 135.702 178.284 132.121C178.867 128.541 176.613 116.02 176.613 116.02H176.619Z" fill="#A1BDE5" fill-opacity="0.25"/>
</g>
<path d="M309.752 238.828C309.752 238.828 316.463 34.1339 319.785 51.8507C321.169 59.2192 313.371 239.899 313.371 239.899L309.752 238.828Z" fill="#2F5481"/>
<path d="M175.814 142.074C174.75 143.071 173.34 143.71 171.842 143.672C154.676 143.22 137.511 142.769 120.35 142.317C113.227 142.13 107.029 142.747 100.068 143.488C97.9608 143.714 87.9604 145.09 87.9604 140.963C87.7944 140.281 87.9902 139.57 88.2158 138.91C89.3142 135.711 91.2811 132.376 93.8184 130.085C98.3014 126.039 105.539 129.101 105.662 135.234C106.965 129.357 111.614 124.727 116.804 121.677C119.192 120.276 121.78 119.118 124.535 118.824C128.673 118.376 132.93 119.995 135.94 122.874C138.95 125.753 140.738 129.8 141.142 133.948C143.629 130.575 146.873 127.764 150.564 125.783C152.041 124.991 153.633 124.318 155.311 124.284C157.533 124.237 159.662 125.344 161.271 126.878C163.996 129.476 165.413 133.386 164.983 137.125C166.524 135.779 168.142 134.451 170.067 133.761C171.991 133.071 174.307 133.139 175.895 134.425C178.671 136.674 177.943 140.085 175.814 142.079V142.074Z" fill="#E7EEF8"/>
<path d="M337.536 151.771C337.89 152.172 338.332 152.521 338.877 152.789C340.802 153.743 345.702 152.789 347.835 152.789H379.168C409.369 152.789 439.975 154.025 470.074 152.764C470.13 143.717 463.735 131.357 453.513 131.357C438.996 131.357 434.138 135.527 434.138 135.527C436.565 133.444 427.352 116.557 425.905 114.717C419.11 106.071 408.156 109.146 400.374 114.585C397.985 116.254 380.756 131.153 381.842 133.146C381.842 133.146 374.698 120.045 365.17 124.807C355.676 129.556 351.504 144.369 351.479 144.463C351.815 143.27 344.361 140.919 343.501 140.979C338.056 141.375 334.658 148.475 337.536 151.771Z" fill="#E7EEF8"/>
<path d="M263.992 416.024C264.664 416.788 265.506 417.455 266.542 417.967C270.201 419.787 279.518 417.967 283.574 417.967H343.151C400.576 417.967 458.769 420.324 515.999 417.918C516.105 400.655 503.946 377.068 484.511 377.068C456.907 377.068 447.671 385.025 447.671 385.025C452.285 381.051 434.768 348.824 432.016 345.313C419.097 328.814 398.269 334.682 383.471 345.061C378.93 348.247 346.171 376.678 348.235 380.482C348.235 380.482 334.652 355.481 316.536 364.568C298.484 373.63 290.551 401.898 290.503 402.077C291.142 399.801 276.968 395.315 275.333 395.429C264.98 396.184 258.52 409.733 263.992 416.024Z" fill="#A1BDE5" fill-opacity="0.25"/>
<path d="M-37.2978 417.158C-36.7238 417.631 -36.0046 418.043 -35.1194 418.36C-31.9935 419.487 -24.0336 418.36 -20.5689 418.36H30.3301C79.3895 418.36 129.106 419.819 177.999 418.33C178.089 407.643 167.702 393.042 151.098 393.042C127.515 393.042 119.625 397.968 119.625 397.968C123.567 395.508 108.601 375.558 106.25 373.384C95.2124 363.17 77.4186 366.803 64.7768 373.228C60.8971 375.201 32.9096 392.801 34.6731 395.155C34.6731 395.155 23.0687 379.679 7.59152 385.304C-7.83032 390.914 -14.6076 408.413 -14.6491 408.524C-14.1028 407.115 -26.2121 404.338 -27.609 404.408C-36.4541 404.876 -41.9727 413.264 -37.2978 417.158Z" fill="#A1BDE5" fill-opacity="0.25"/>
<path d="M445.922 241V244.78" stroke="#4FABF7" stroke-width="2" stroke-linecap="round" stroke-linejoin="round"/>
<path d="M445.922 249.039V252.819" stroke="#4FABF7" stroke-width="2" stroke-linecap="round" stroke-linejoin="round"/>
<path d="M440 246.91H443.78" stroke="#4FABF7" stroke-width="2" stroke-linecap="round" stroke-linejoin="round"/>
<path d="M448.051 246.91H451.831" stroke="#4FABF7" stroke-width="2" stroke-linecap="round" stroke-linejoin="round"/>
<path d="M106.922 223V226.78" stroke="#4FABF7" stroke-width="2" stroke-linecap="round" stroke-linejoin="round"/>
<path d="M106.922 231.051V234.831" stroke="#4FABF7" stroke-width="2" stroke-linecap="round" stroke-linejoin="round"/>
<path d="M101 228.91H104.78" stroke="#4FABF7" stroke-width="2" stroke-linecap="round" stroke-linejoin="round"/>
<path d="M109.051 228.91H112.831" stroke="#4FABF7" stroke-width="2" stroke-linecap="round" stroke-linejoin="round"/>
<path d="M382.121 69.0703V72.8503" stroke="#4FABF7" stroke-width="2" stroke-linecap="round" stroke-linejoin="round"/>
<path d="M382.121 77.1211V80.9011" stroke="#4FABF7" stroke-width="2" stroke-linecap="round" stroke-linejoin="round"/>
<path d="M376.211 74.9902H379.991" stroke="#4FABF7" stroke-width="2" stroke-linecap="round" stroke-linejoin="round"/>
<path d="M384.25 74.9902H388.03" stroke="#4FABF7" stroke-width="2" stroke-linecap="round" stroke-linejoin="round"/>
</g>
<path d="M26.1738 400.516C26.1738 400.516 224.785 211.056 249.422 207.976C274.055 204.897 341.801 226.461 361.815 227.999C381.828 229.54 505 418.996 505 418.996H0L26.1738 400.512V400.516Z" fill="#081776"/>
<mask id="mask1_2465_217" style="mask-type:luminance" maskUnits="userSpaceOnUse" x="0" y="207" width="505" height="212">
<path d="M26.1738 400.516C26.1738 400.516 224.785 211.056 249.422 207.976C274.055 204.897 341.801 226.461 361.815 227.999C381.828 229.54 505 418.996 505 418.996H0L26.1738 400.512V400.516Z" fill="white"/>
</mask>
<g mask="url(#mask1_2465_217)">
<path d="M122.305 416.709C123.241 413.83 184.598 310.226 196.024 290.374C207.451 270.522 250.113 225.826 255.839 225.916C261.565 226.005 352.075 242.85 360.637 240.444C369.198 238.038 377.159 228.412 377.159 228.412C377.159 228.412 278.403 197.409 259.16 196.37C239.917 195.327 212.857 195.97 196.024 207.682C179.187 219.391 12.024 386.111 16.2344 395.341C20.4406 404.571 122.305 416.714 122.305 416.714V416.709Z" fill="#A1BDE5" fill-opacity="0.25"/>
</g>
<path d="M242.677 100.361V95.8697C242.679 94.5166 243.221 93.2194 244.184 92.2626C245.148 91.3058 246.454 90.7676 247.816 90.766H250.411C251.132 90.7671 251.846 90.9189 252.505 91.2114C253.164 91.5039 253.754 91.9306 254.236 92.464L254.723 91.9973C254.178 91.3982 253.513 90.9192 252.77 90.5912C252.027 90.2632 251.224 90.0935 250.411 90.0931H247.816C246.274 90.0948 244.796 90.7039 243.705 91.7869C242.615 92.8698 242.002 94.3382 242 95.8697V100.361C242 100.672 242.125 100.969 242.346 101.189C242.567 101.408 242.866 101.532 243.179 101.532H249.791V100.859H243.179C243.046 100.859 242.918 100.806 242.824 100.713C242.731 100.62 242.678 100.493 242.677 100.361ZM245.387 83.3644V84.7101C245.388 85.6021 245.745 86.4573 246.381 87.088C247.016 87.7187 247.877 88.0735 248.775 88.0745H249.452C250.35 88.0735 251.211 87.7187 251.846 87.088C252.481 86.4573 252.838 85.6021 252.839 84.7101V83.3644C252.838 82.4724 252.481 81.6172 251.846 80.9865C251.211 80.3558 250.35 80.001 249.452 80H248.775C247.877 80.001 247.016 80.3558 246.381 80.9865C245.745 81.6172 245.388 82.4724 245.387 83.3644ZM248.775 80.6729H249.452C250.171 80.6737 250.859 80.9575 251.367 81.4621C251.875 81.9667 252.161 82.6508 252.162 83.3644V84.7101C252.161 85.4237 251.875 86.1078 251.367 86.6124C250.859 87.117 250.171 87.4008 249.452 87.4016H248.775C248.056 87.4008 247.367 87.117 246.859 86.6124C246.351 86.1078 246.066 85.4237 246.065 84.7101V83.3644C246.066 82.6508 246.351 81.9667 246.859 81.4621C247.367 80.9575 248.056 80.6737 248.775 80.6729Z" fill="white" stroke="#A1BDE5" stroke-opacity="0.5" stroke-width="2"/>
<path d="M262.221 92.2344H258.595V92.9059H261.409L258.734 95.5811C257.905 94.8754 256.836 94.5176 255.75 94.5827C254.664 94.6477 253.645 95.1306 252.906 95.9301C252.168 96.7297 251.768 97.7838 251.79 98.8717C251.812 99.9597 252.253 100.997 253.023 101.766C253.792 102.536 254.83 102.978 255.918 102.999C257.006 103.021 258.06 102.621 258.859 101.883C259.659 101.145 260.142 100.126 260.207 99.0396C260.272 97.9534 259.914 96.8841 259.208 96.0558L261.884 93.3806V96.1962H262.555V92.5701C262.555 92.4814 262.52 92.3962 262.457 92.3333C262.395 92.2704 262.31 92.2348 262.221 92.2344ZM259.544 98.7767C259.544 99.4749 259.337 100.157 258.95 100.738C258.562 101.319 258.01 101.771 257.365 102.038C256.72 102.306 256.011 102.375 255.326 102.239C254.641 102.103 254.012 101.767 253.518 101.273C253.025 100.779 252.688 100.15 252.552 99.4656C252.416 98.7808 252.486 98.071 252.753 97.426C253.02 96.781 253.473 96.2297 254.053 95.8418C254.634 95.4539 255.317 95.2469 256.015 95.247C256.95 95.2482 257.848 95.6204 258.509 96.2821C259.171 96.9438 259.543 97.8409 259.544 98.7767Z" fill="white" stroke="#A1BDE5" stroke-opacity="0.5" stroke-width="2"/>
<defs>
<clipPath id="clip0_2465_217">
<rect width="505" height="368" fill="white" transform="translate(0 51)"/>
</clipPath>
</defs>
</svg>
