<svg width="116" height="100" viewBox="0 0 116 100" fill="none" xmlns="http://www.w3.org/2000/svg">
<ellipse cx="37.2734" cy="35.7377" rx="28.5" ry="27.2045" fill="#6295FF"/>
<ellipse cx="83.9102" cy="66.8276" rx="28.5" ry="27.2045" fill="#F3C15E"/>
<path d="M50.975 68.5465C46.5132 70.5908 41.5538 71.7296 36.3293 71.7296C28.1306 71.7296 20.5845 68.9246 14.5897 64.218L1.66283 65.2938L5.67493 53.8975C2.70093 48.6984 1 42.671 1 36.2447C1 16.6469 16.8174 0.759766 36.3293 0.759766C55.841 0.759766 71.6586 16.6469 71.6586 36.2447C71.6586 36.5085 71.6558 36.7717 71.65 37.0341" stroke="#051878" stroke-miterlimit="10" stroke-linecap="round" stroke-linejoin="round"/>
<path d="M92.8764 79.7585L83.6831 55.5144C83.4954 55.053 82.8451 55.0523 82.6564 55.5132L73.5469 79.7585" stroke="white" stroke-miterlimit="10" stroke-linecap="round" stroke-linejoin="round"/>
<path d="M90.0127 73.7207H76.3711" stroke="white" stroke-miterlimit="10" stroke-linecap="round" stroke-linejoin="round"/>
<path d="M91.8219 8.90625L88.8828 11.8584" stroke="#F3C15E" stroke-miterlimit="10" stroke-linecap="round" stroke-linejoin="round"/>
<path d="M75.2695 2.02148V6.19644" stroke="#F3C15E" stroke-miterlimit="10" stroke-linecap="round" stroke-linejoin="round"/>
<path d="M98.6763 25.5312H94.5195" stroke="#F3C15E" stroke-miterlimit="10" stroke-linecap="round" stroke-linejoin="round"/>
<path d="M110.802 83.2489C113.472 78.5812 114.999 73.1702 114.999 67.4006C114.999 49.806 100.798 35.543 83.2806 35.543C65.7632 35.543 51.5625 49.8062 51.5625 67.4006C51.5625 84.9952 65.7632 99.2583 83.2806 99.2583C90.6412 99.2583 97.4161 96.7398 102.798 92.5144L114.403 93.4801L110.802 83.2489Z" stroke="#051878" stroke-miterlimit="10" stroke-linecap="round" stroke-linejoin="round"/>
<path d="M37.3477 39.5859L44.6539 46.9243" stroke="white" stroke-miterlimit="10" stroke-linecap="round" stroke-linejoin="round"/>
<path d="M33.1459 47.0172C39.4526 47.0172 44.5652 41.8821 44.5652 35.5477C44.5652 29.2132 39.4526 24.0781 33.1459 24.0781C26.8392 24.0781 21.7266 29.2132 21.7266 35.5477C21.7266 41.8821 26.8392 47.0172 33.1459 47.0172Z" stroke="white" stroke-miterlimit="10" stroke-linecap="round" stroke-linejoin="round"/>
</svg>
