<svg width="108" height="108" viewBox="0 0 108 108" fill="none" xmlns="http://www.w3.org/2000/svg">
<path d="M100.599 106.418H105.66C106.028 106.418 106.283 106.05 106.153 105.705L96.5923 80.209H90.0399L99.6118 105.734C99.7662 106.145 100.16 106.418 100.599 106.418Z" fill="#051878"/>
<path d="M69.6516 106.418H64.5912C64.2229 106.418 63.9681 106.05 64.0974 105.705L73.6586 80.209H80.2109L70.6392 105.734C70.4848 106.145 70.0912 106.418 69.6516 106.418Z" fill="#051878"/>
<path d="M93.3135 60.7754V48.2773C93.3135 44.1999 96.6189 40.8945 100.696 40.8945H101.145C104.057 40.8945 106.418 43.2556 106.418 46.168V67.6638C106.418 76.401 99.3349 83.4841 90.5977 83.4841H72.3779C69.4655 83.4841 67.1045 81.1231 67.1045 78.2106V77.6021C67.1045 71.8038 71.805 67.1033 77.6033 67.1033H86.9854C90.4804 67.1035 93.3135 64.2704 93.3135 60.7754Z" fill="#F3C15E"/>
<path d="M71.3217 69.1895V77.1574C71.3217 78.3224 72.266 79.2668 73.431 79.2668H101.352C98.529 81.8847 94.7494 83.4855 90.5959 83.4855H72.3761C69.4637 83.4855 67.1027 81.1245 67.1027 78.2121V77.6035C67.1029 74.1602 68.7607 71.1039 71.3217 69.1895Z" fill="#F3C15E"/>
<path d="M7.40182 106.418H2.34144C1.97314 106.418 1.71832 106.05 1.84763 105.705L11.4088 80.209H17.9609L8.38922 105.734C8.23482 106.145 7.84142 106.418 7.40182 106.418Z" fill="#051878"/>
<path d="M38.3492 106.418H43.4096C43.7779 106.418 44.0327 106.05 43.9034 105.705L34.3423 80.209H27.7901L37.3618 105.734C37.516 106.145 37.9096 106.418 38.3492 106.418Z" fill="#051878"/>
<path d="M14.6855 60.7754V48.2773C14.6855 44.1999 11.3802 40.8945 7.30273 40.8945H6.85449C3.94208 40.8945 1.58105 43.2556 1.58105 46.168V67.6638C1.58105 76.401 8.66412 83.4841 17.4014 83.4841H35.6211C38.5335 83.4841 40.8945 81.1231 40.8945 78.2106V77.6021C40.8945 71.8038 36.194 67.1033 30.3957 67.1033H21.0137C17.5186 67.1035 14.6855 64.2704 14.6855 60.7754Z" fill="#F3C15E"/>
<path d="M5.7998 41V67.6638C5.7998 74.0609 11.0043 79.2653 17.4014 79.2653H40.7891C40.3005 81.6723 38.1724 83.4841 35.6211 83.4841H17.4014C8.66412 83.4841 1.58105 76.401 1.58105 67.6638V46.168C1.58105 43.6167 3.3928 41.4887 5.7998 41Z" fill="#F3C15E"/>
<path d="M45.0668 15.8789H36.8206C26.9529 15.8789 18.9538 23.8781 18.9538 33.7457C18.9538 39.5621 21.7331 44.7295 26.0362 47.992C26.762 48.5424 27.1999 49.391 27.1999 50.302V53.0393C27.1999 53.7519 27.9498 54.2155 28.5873 53.8968L32.8849 51.748C33.404 51.4885 33.9885 51.3989 34.5644 51.4714C35.3033 51.5647 36.0564 51.6126 36.8206 51.6126H45.0668C54.9344 51.6126 62.9336 43.6134 62.9336 33.7457C62.9336 23.8781 54.9344 15.8789 45.0668 15.8789Z" fill="#EAB730"/>
<path d="M27.2569 18.6523C24.6605 23.0827 23.1721 28.2409 23.1721 33.747C23.1721 41.2726 29.2943 47.3949 36.8199 47.3949H56.5977C53.4857 50.027 49.4614 51.6136 45.0665 51.6136H36.8202C36.0559 51.6136 35.3031 51.5656 34.564 51.4725C33.9881 51.4 33.4036 51.4894 32.8845 51.7491L28.5868 53.8979C27.9494 54.2166 27.1995 53.7532 27.1995 53.0404V50.3031C27.1995 49.3923 26.7616 48.5434 26.0358 47.9931C21.7326 44.7305 18.9533 39.5634 18.9533 33.7468C18.9533 27.3972 22.2657 21.8213 27.2569 18.6523Z" fill="#F3C15E"/>
<path d="M62.9339 1.58203H71.18C81.0477 1.58203 89.0469 9.5812 89.0469 19.4489C89.0469 25.2653 86.2676 30.4326 81.9644 33.6952C81.2386 34.2455 80.8007 35.0941 80.8007 36.0051V38.7425C80.8007 39.455 80.0508 39.9187 79.4134 39.5999L75.1157 37.4511C74.5966 37.1917 74.0121 37.102 73.4362 37.1746C72.6973 37.2678 71.9443 37.3157 71.18 37.3157H62.9339C53.0662 37.3157 45.067 29.3165 45.067 19.4489C45.067 9.5812 53.0662 1.58203 62.9339 1.58203Z" fill="#6295FF"/>
<path d="M53.2113 4.45703C50.7121 8.88609 49.286 14.0011 49.286 19.4492C49.286 26.9748 55.4082 33.0973 62.9339 33.0973H82.7109C82.4675 33.3032 82.2186 33.5027 81.9644 33.6955C81.2386 34.2458 80.8007 35.0944 80.8007 36.0055V38.7428C80.8007 39.4554 80.0508 39.919 79.4134 39.6003L75.1157 37.4515C74.5966 37.192 74.0121 37.1024 73.4362 37.1749C72.6973 37.2681 71.9443 37.316 71.18 37.316H62.9336C53.066 37.316 45.0668 29.3169 45.0668 19.4492C45.0672 13.1673 48.3094 7.64261 53.2113 4.45703Z" fill="#6295FF"/>
</svg>
