<svg width="56" height="64" viewBox="0 0 56 64" fill="none" xmlns="http://www.w3.org/2000/svg">
<path d="M45.7515 12.1688V57.8167H0.835938V0.886719H33.3561" fill="#F3C15E"/>
<path d="M45.7499 58.6606H0.834264C0.373132 58.6606 0 58.2827 0 57.8158V0.885846C0 0.418873 0.373132 0.0410156 0.834199 0.0410156H33.3544C33.8154 0.0410156 34.1886 0.418873 34.1886 0.885846C34.1886 1.35275 33.8154 1.73055 33.3544 1.73055H1.66833V56.971H44.9157V12.1679C44.9157 11.7009 45.2888 11.3231 45.7499 11.3231C46.211 11.3231 46.5841 11.7009 46.5841 12.1679V57.8158C46.5841 58.2827 46.211 58.6606 45.7499 58.6606Z" fill="#4D4D4D"/>
<path d="M40.0269 19.5919H5.70139C5.24032 19.5919 4.86719 19.2141 4.86719 18.7472C4.86719 18.2802 5.24032 17.9023 5.70145 17.9023H40.0269C40.4879 17.9023 40.8611 18.2802 40.8611 18.7472C40.8611 19.2141 40.4879 19.5919 40.0269 19.5919ZM40.0269 25.7691H5.70139C5.24032 25.7691 4.86719 25.3913 4.86719 24.9244C4.86719 24.4574 5.24032 24.0796 5.70145 24.0796H40.0269C40.4879 24.0796 40.8611 24.4574 40.8611 24.9244C40.8611 25.3913 40.4879 25.7691 40.0269 25.7691ZM40.0269 32.3358H5.70139C5.24032 32.3358 4.86719 31.9579 4.86719 31.4909C4.86719 31.024 5.24032 30.6462 5.70145 30.6462H40.0269C40.4879 30.6462 40.8611 31.0241 40.8611 31.491C40.8611 31.9579 40.4879 32.3358 40.0269 32.3358ZM40.0269 38.5146H5.70139C5.24032 38.5146 4.86719 38.1368 4.86719 37.6699C4.86719 37.203 5.24032 36.8251 5.70145 36.8251H40.0269C40.4879 36.8251 40.8611 37.203 40.8611 37.6699C40.8611 38.1368 40.4879 38.5146 40.0269 38.5146ZM40.0269 45.4657H5.70139C5.24032 45.4657 4.86719 45.0879 4.86719 44.6209C4.86719 44.1541 5.24032 43.7762 5.70145 43.7762H40.0269C40.4879 43.7762 40.8611 44.1541 40.8611 44.6209C40.8611 45.0879 40.4879 45.4657 40.0269 45.4657ZM40.0269 51.6479H5.70139C5.24032 51.6479 4.86719 51.2701 4.86719 50.8032C4.86719 50.3363 5.24032 49.9585 5.70145 49.9585H40.0269C40.4879 49.9585 40.8611 50.3362 40.8611 50.8032C40.8611 51.2701 40.4879 51.6479 40.0269 51.6479Z" fill="#4D4D4D"/>
<path d="M45.4633 11.7252L34.2344 0.845703V11.778L45.4633 11.7252Z" fill="white"/>
<path d="M34.2332 12.6232C34.0128 12.6227 33.8015 12.5344 33.645 12.3773C33.567 12.2989 33.505 12.2056 33.4628 12.1028C33.4206 12 33.3989 11.8898 33.3989 11.7784V0.846141C33.3989 0.507947 33.5977 0.202699 33.9057 0.069092C34.212 -0.0662114 34.5671 0.00130984 34.81 0.23571L46.0388 11.1152C46.2849 11.3528 46.3631 11.719 46.2376 12.0391C46.1105 12.3575 45.8058 12.5687 45.4654 12.5704L34.2365 12.6232H34.2332ZM35.0674 2.82278V10.9304L43.3929 10.8908L35.0674 2.82278ZM28.9674 7.23619H5.70139C5.24032 7.23619 4.86719 6.85846 4.86719 6.39149C4.86719 5.92458 5.24032 5.54673 5.70145 5.54673H28.9674C29.4284 5.54673 29.8016 5.92458 29.8016 6.39156C29.8016 6.8584 29.4284 7.23619 28.9674 7.23619ZM28.9674 13.0274H5.70139C5.24032 13.0274 4.86719 12.6496 4.86719 12.1827C4.86719 11.7158 5.24032 11.3379 5.70145 11.3379H28.9674C29.4284 11.3379 29.8016 11.7158 29.8016 12.1827C29.8016 12.6496 29.4284 13.0274 28.9674 13.0274Z" fill="#4D4D4D"/>
<path d="M54.8604 17.5031V63.1543H9.94141V6.22266H42.4681" fill="white"/>
<path d="M54.8548 64.0001H9.93583C9.47469 64.0001 9.10156 63.6222 9.10156 63.1553V6.22361C9.10156 5.7567 9.47469 5.37891 9.93583 5.37891H42.4625C42.9237 5.37891 43.2968 5.7567 43.2968 6.22367C43.2968 6.69058 42.9237 7.06837 42.4625 7.06837H10.77V62.3105H54.0205V17.504C54.0205 17.0371 54.3936 16.6593 54.8548 16.6593C55.3158 16.6593 55.689 17.0371 55.689 17.5041V63.1553C55.689 63.6222 55.3158 64.0001 54.8548 64.0001Z" fill="#4D4D4D"/>
<path d="M49.1346 24.9297H14.8107C14.3496 24.9297 13.9766 24.5519 13.9766 24.0849C13.9766 23.618 14.3496 23.2402 14.8107 23.2402H49.1346C49.5956 23.2402 49.9688 23.618 49.9688 24.0849C49.9688 24.5518 49.5956 24.9298 49.1346 24.9298V24.9297ZM49.1346 31.1119H14.8107C14.3496 31.1119 13.9766 30.7341 13.9766 30.2671C13.9766 29.8002 14.3496 29.4224 14.8107 29.4224H49.1346C49.5956 29.4224 49.9688 29.8002 49.9688 30.2672C49.9688 30.7341 49.5956 31.1119 49.1346 31.1119ZM49.1346 37.6736H14.8107C14.3496 37.6736 13.9766 37.2959 13.9766 36.8288C13.9766 36.362 14.3496 35.9841 14.8107 35.9841H49.1346C49.5956 35.9841 49.9688 36.362 49.9688 36.8288C49.9688 37.2958 49.5956 37.6736 49.1346 37.6736ZM49.1346 43.8574H14.8107C14.3496 43.8574 13.9766 43.4797 13.9766 43.0127C13.9766 42.5458 14.3496 42.168 14.8107 42.168H49.1346C49.5956 42.168 49.9688 42.5458 49.9688 43.0127C49.9688 43.4796 49.5956 43.8574 49.1346 43.8574ZM49.1346 50.8085H14.8107C14.3496 50.8085 13.9766 50.4307 13.9766 49.9638C13.9766 49.4968 14.3496 49.1191 14.8107 49.1191H49.1346C49.5956 49.1191 49.9688 49.4968 49.9688 49.9638C49.9688 50.4307 49.5956 50.8085 49.1346 50.8085ZM49.1346 56.9874H14.8107C14.3496 56.9874 13.9766 56.6095 13.9766 56.1427C13.9766 55.6757 14.3496 55.2979 14.8107 55.2979H49.1346C49.5956 55.2979 49.9688 55.6757 49.9688 56.1427C49.9688 56.6095 49.5956 56.9874 49.1346 56.9874Z" fill="#4D4D4D"/>
<path d="M54.5719 17.0631L43.3398 6.18359V17.1142L54.5719 17.0631Z" fill="white"/>
<path d="M43.3409 17.9595C43.1206 17.959 42.9093 17.8706 42.7527 17.7136C42.6747 17.6352 42.6127 17.5419 42.5705 17.4391C42.5283 17.3363 42.5066 17.226 42.5066 17.1147V6.18408C42.5066 5.84583 42.7055 5.54058 43.0134 5.40691C43.3197 5.27167 43.6749 5.33932 43.9177 5.57359L55.1498 16.453C55.3958 16.6906 55.4739 17.057 55.3485 17.377C55.2214 17.6954 54.9167 17.9066 54.5763 17.9082L43.3442 17.9595H43.3409ZM44.175 8.1606V16.2666L52.5038 16.2287L44.175 8.1606ZM38.075 12.5708H14.8108C14.3497 12.5708 13.9766 12.193 13.9766 11.7261C13.9766 11.2591 14.3497 10.8813 14.8108 10.8813H38.075C38.5361 10.8813 38.9092 11.2591 38.9092 11.7261C38.9092 12.193 38.5362 12.5708 38.075 12.5708ZM38.075 18.3686H14.8108C14.3497 18.3686 13.9766 17.9908 13.9766 17.5238C13.9766 17.057 14.3497 16.6791 14.8108 16.6791H38.075C38.5361 16.6791 38.9092 17.057 38.9092 17.5239C38.9092 17.9908 38.5362 18.3686 38.075 18.3686Z" fill="#4D4D4D"/>
</svg>
