<svg width="40" height="34" viewBox="0 0 40 34" fill="none" xmlns="http://www.w3.org/2000/svg">
<path d="M16.6966 28.6337C11.4858 32.5838 4.7581 28.2024 3.33661 25.3726C3.33661 25.3726 8.12061 23.2308 8.12061 20.5886C4.15739 20.5887 0.785156 17.3759 0.785156 13.4127V11.0207C2.36782 12.5046 3.85355 14.1159 5.64861 14.1159C9.56445 14.1159 11.0054 7.47037 16.0372 10.871L16.6966 28.6337Z" fill="#F3C15E"/>
<path d="M16.6948 28.6337L16.0354 10.871C13.9129 9.43652 12.4293 9.78962 11.1294 10.6775C9.63234 13.2364 8.77344 16.214 8.77344 19.3927C8.77344 23.4786 10.1919 27.2325 12.5622 30.1911C13.9632 30.0979 15.3774 29.6324 16.6948 28.6337Z" fill="#F3C15E"/>
<path d="M26.0622 32.5483C33.3281 32.5483 39.2183 26.6582 39.2183 19.3923C39.2183 12.1265 33.3281 6.23633 26.0622 6.23633C18.7964 6.23633 12.9062 12.1265 12.9062 19.3923C12.9062 26.6582 18.7964 32.5483 26.0622 32.5483Z" fill="#A1BDE5" fill-opacity="0.25"/>
<path d="M17.8419 19.3923C17.8419 12.9701 22.4441 7.62362 28.5301 6.46848C27.7306 6.31672 26.9059 6.23633 26.0622 6.23633C18.7964 6.23633 12.9062 12.1264 12.9062 19.3923C12.9062 26.6582 18.7964 32.5483 26.0622 32.5483C26.9059 32.5483 27.7306 32.4679 28.5301 32.3162C22.4441 31.161 17.8419 25.8145 17.8419 19.3923Z" fill="#051878"/>
<path d="M26.0606 27.8008C30.7043 27.8008 34.4688 24.0364 34.4688 19.3926C34.4688 14.7489 30.7043 10.9844 26.0606 10.9844C21.4168 10.9844 17.6523 14.7489 17.6523 19.3926C17.6523 24.0364 21.4168 27.8008 26.0606 27.8008Z" fill="white"/>
<path d="M33.6957 7.73464L34.5129 6.31973C34.7294 5.94483 34.6008 5.46483 34.2259 5.24836C33.851 5.03189 33.371 5.16052 33.1545 5.53542L32.3388 6.94797C30.6706 6.10326 28.811 5.58405 26.8439 5.47424V2.2366H28.4518C28.8847 2.2366 29.2361 1.88601 29.2361 1.45228C29.2361 1.01934 28.8847 0.667969 28.4518 0.667969H23.6675C23.2345 0.667969 22.8831 1.01934 22.8831 1.45228C22.8831 1.88601 23.2345 2.2366 23.6675 2.2366H25.2753V5.47424C23.3082 5.58405 21.4486 6.10326 19.7804 6.94797L18.9647 5.53542C18.7482 5.16052 18.269 5.03189 17.8933 5.24836C17.5184 5.46483 17.3898 5.94483 17.6063 6.31973L18.4235 7.73464C17.4988 8.34248 16.6502 9.05777 15.8965 9.86169C12.7067 8.05777 10.6745 9.9064 9.02431 11.4091C7.93882 12.3982 6.91294 13.3315 5.64784 13.3315C4.35216 13.3315 3.11843 12.1574 1.81333 10.915C1.6502 10.759 1.48549 10.6029 1.32078 10.4484C1.09255 10.2342 0.759216 10.1762 0.472157 10.3009C0.185882 10.4248 0 10.708 0 11.0209V13.4123C0 15.5339 0.859608 17.5354 2.41961 19.0499C3.73098 20.3213 5.38745 21.108 7.16314 21.3166C6.48314 22.8091 3.97961 24.2233 3.0149 24.657C2.81961 24.744 2.66902 24.908 2.59686 25.1095C2.52549 25.3111 2.53882 25.5331 2.63529 25.7244C3.55686 27.559 6.37804 29.937 9.79137 30.7307C10.5506 30.9072 11.2965 30.9942 12.0235 30.9942C13.68 30.9942 15.2369 30.5393 16.622 29.6421C19.1067 31.9323 22.4227 33.3331 26.0596 33.3331C33.7467 33.3331 40 27.079 40 19.3927C40 14.5229 37.4902 10.228 33.6957 7.73464ZM10.1467 29.2029C7.73961 28.6429 5.51843 27.0703 4.46039 25.6844C4.93255 25.4295 5.55843 25.0625 6.18745 24.6068C7.9898 23.3017 8.90431 21.9503 8.90431 20.5888C8.90431 20.155 8.55294 19.8044 8.12 19.8044C4.56863 19.8044 1.56863 16.8774 1.56863 13.4123V12.8358C2.78902 13.9448 4.08627 14.9001 5.64784 14.9001C7.52 14.9001 8.88 13.6617 10.08 12.5691C11.651 11.1401 12.8306 10.0664 14.869 11.0899C13.142 13.4107 12.1192 16.2844 12.1192 19.3927C12.1192 22.8648 13.3961 26.046 15.5043 28.4884C13.5467 29.6342 11.5459 29.5276 10.1467 29.2029ZM26.0596 31.7644C19.2376 31.7644 13.6878 26.2146 13.6878 19.3927C13.6878 12.5707 19.2376 7.02091 26.0596 7.02091C32.8816 7.02091 38.4314 12.5707 38.4314 19.3927C38.4314 26.2146 32.8816 31.7644 26.0596 31.7644Z" fill="#052A75"/>
<path d="M17.6867 20.177C17.2535 20.177 16.9023 19.8258 16.9023 19.3926C16.9023 14.3439 21.0099 10.2363 26.0587 10.2363C28.5045 10.2363 30.8038 11.1887 32.5332 12.9181C32.8394 13.2244 32.8394 13.721 32.5332 14.0273L26.6132 19.9472C26.307 20.2534 25.8103 20.2534 25.504 19.9472C25.1977 19.641 25.1977 19.1443 25.504 18.8381L30.8412 13.5009C29.4928 12.4021 27.8216 11.805 26.0586 11.805C21.8747 11.805 18.4709 15.2088 18.4709 19.3927C18.471 19.8258 18.1198 20.177 17.6867 20.177Z" fill="#052A75"/>
</svg>
