<svg width="40" height="33" viewBox="0 0 40 33" fill="none" xmlns="http://www.w3.org/2000/svg">
<path d="M16.6966 27.9657C11.4858 31.9158 4.7581 27.5344 3.33661 24.7047C3.33661 24.7047 8.12061 22.5628 8.12061 19.9207C4.15739 19.9208 0.785156 16.708 0.785156 12.7448V10.3528C2.36782 11.8366 3.85355 13.4479 5.64861 13.4479C9.56445 13.4479 11.0054 6.8024 16.0372 10.203L16.6966 27.9657Z" fill="#F3C15E"/>
<path d="M16.6948 27.9657L16.0354 10.2031C13.9129 8.76855 12.4293 9.12165 11.1294 10.0095C9.63234 12.5684 8.77344 15.546 8.77344 18.7247C8.77344 22.8106 10.1919 26.5646 12.5622 29.5231C13.9632 29.4299 15.3774 28.9644 16.6948 27.9657Z" fill="#F3C15E"/>
<path d="M26.0622 31.8823C33.3281 31.8823 39.2183 25.9922 39.2183 18.7263C39.2183 11.4605 33.3281 5.57031 26.0622 5.57031C18.7964 5.57031 12.9062 11.4605 12.9062 18.7263C12.9062 25.9922 18.7964 31.8823 26.0622 31.8823Z" fill="#A1BDE5" fill-opacity="0.25"/>
<path d="M17.8419 18.7263C17.8419 12.3041 22.4441 6.95761 28.5301 5.80247C27.7306 5.6507 26.9059 5.57031 26.0622 5.57031C18.7964 5.57031 12.9062 11.4604 12.9062 18.7263C12.9062 25.9922 18.7964 31.8823 26.0622 31.8823C26.9059 31.8823 27.7306 31.8019 28.5301 31.6502C22.4441 30.495 17.8419 25.1485 17.8419 18.7263Z" fill="#6295FF"/>
<path d="M26.0606 27.1368C30.7043 27.1368 34.4688 23.3723 34.4688 18.7285C34.4688 14.0848 30.7043 10.3203 26.0606 10.3203C21.4168 10.3203 17.6523 14.0848 17.6523 18.7285C17.6523 23.3723 21.4168 27.1368 26.0606 27.1368Z" fill="white"/>
<path d="M33.6957 7.06667L34.5129 5.65176C34.7294 5.27686 34.6008 4.79686 34.2259 4.58039C33.851 4.36392 33.371 4.49255 33.1545 4.86745L32.3388 6.28C30.6706 5.43529 28.811 4.91608 26.8439 4.80627V1.56863H28.4518C28.8847 1.56863 29.2361 1.21804 29.2361 0.784314C29.2361 0.351373 28.8847 0 28.4518 0H23.6675C23.2345 0 22.8831 0.351373 22.8831 0.784314C22.8831 1.21804 23.2345 1.56863 23.6675 1.56863H25.2753V4.80627C23.3082 4.91608 21.4486 5.43529 19.7804 6.28L18.9647 4.86745C18.7482 4.49255 18.269 4.36392 17.8933 4.58039C17.5184 4.79686 17.3898 5.27686 17.6063 5.65176L18.4235 7.06667C17.4988 7.67451 16.6502 8.3898 15.8965 9.19373C12.7067 7.3898 10.6745 9.23843 9.02431 10.7412C7.93882 11.7302 6.91294 12.6635 5.64784 12.6635C4.35216 12.6635 3.11843 11.4894 1.81333 10.2471C1.6502 10.091 1.48549 9.9349 1.32078 9.78039C1.09255 9.56628 0.759216 9.50824 0.472157 9.63294C0.185882 9.75686 0 10.04 0 10.3529V12.7443C0 14.8659 0.859608 16.8675 2.41961 18.382C3.73098 19.6533 5.38745 20.44 7.16314 20.6486C6.48314 22.1412 3.97961 23.5553 3.0149 23.989C2.81961 24.0761 2.66902 24.24 2.59686 24.4416C2.52549 24.6431 2.53882 24.8651 2.63529 25.0565C3.55686 26.891 6.37804 29.269 9.79137 30.0627C10.5506 30.2392 11.2965 30.3263 12.0235 30.3263C13.68 30.3263 15.2369 29.8714 16.622 28.9741C19.1067 31.2643 22.4227 32.6651 26.0596 32.6651C33.7467 32.6651 40 26.411 40 18.7247C40 13.8549 37.4902 9.56 33.6957 7.06667ZM10.1467 28.5349C7.73961 27.9749 5.51843 26.4024 4.46039 25.0165C4.93255 24.7616 5.55843 24.3945 6.18745 23.9388C7.9898 22.6337 8.90431 21.2824 8.90431 19.9208C8.90431 19.4871 8.55294 19.1365 8.12 19.1365C4.56863 19.1365 1.56863 16.2094 1.56863 12.7443V12.1678C2.78902 13.2769 4.08627 14.2322 5.64784 14.2322C7.52 14.2322 8.88 12.9937 10.08 11.9012C11.651 10.4722 12.8306 9.39843 14.869 10.422C13.142 12.7427 12.1192 15.6165 12.1192 18.7247C12.1192 22.1969 13.3961 25.378 15.5043 27.8204C13.5467 28.9663 11.5459 28.8596 10.1467 28.5349ZM26.0596 31.0965C19.2376 31.0965 13.6878 25.5467 13.6878 18.7247C13.6878 11.9027 19.2376 6.35294 26.0596 6.35294C32.8816 6.35294 38.4314 11.9027 38.4314 18.7247C38.4314 25.5467 32.8816 31.0965 26.0596 31.0965Z" fill="#3D7CFF"/>
<path d="M17.6867 19.5109C17.2535 19.5109 16.9023 19.1598 16.9023 18.7266C16.9023 13.6778 21.0099 9.57031 26.0587 9.57031C28.5045 9.57031 30.8038 10.5227 32.5332 12.2521C32.8394 12.5584 32.8394 13.055 32.5332 13.3613L26.6132 19.2812C26.307 19.5874 25.8103 19.5874 25.504 19.2812C25.1977 18.9749 25.1977 18.4783 25.504 18.172L30.8412 12.8349C29.4928 11.7361 27.8216 11.139 26.0586 11.139C21.8747 11.139 18.4709 14.5428 18.4709 18.7267C18.471 19.1598 18.1198 19.5109 17.6867 19.5109Z" fill="#3D7CFF"/>
</svg>
