<svg width="72" height="76" viewBox="0 0 72 76" fill="none" xmlns="http://www.w3.org/2000/svg">
<path d="M10.7891 23.5098L27.0185 18.9041L30.703 31.8876L14.4736 36.4933L10.7891 23.5098Z" fill="#F3C15E"/>
<path d="M4.40625 28.4434L11.3602 26.4699L13.4045 33.6736L6.45054 35.647L4.40625 28.4434Z" fill="#DFEDFF"/>
<path d="M23.4594 33.9004L16.9883 35.7784L20.4746 41.6847C21.2323 42.9683 22.7634 43.5755 24.1948 43.1601C26.2414 42.566 27.179 40.2019 26.0957 38.3667L23.4594 33.9004Z" fill="#FFDFE5"/>
<path d="M27.0234 18.8987L43.8698 4.67188L52.5191 35.6457L30.71 31.8818L27.0234 18.8987Z" fill="#DFEDFF"/>
<path d="M49.1979 19.77C49.5897 19.0505 49.3239 18.1496 48.6043 17.7578C47.8848 17.3661 46.9839 17.6318 46.5921 18.3514C46.2004 19.071 46.4661 19.9719 47.1857 20.3636C47.9053 20.7554 48.8062 20.4896 49.1979 19.77Z" fill="#081776"/>
<path d="M5.02386 36.0511C5.2097 36.7056 5.80568 37.1327 6.4539 37.1325C6.58839 37.1325 6.7251 37.1141 6.86092 37.0755L12.6338 35.4363L13.0481 36.8955C13.2339 37.5499 13.8299 37.9768 14.4781 37.9768C14.6126 37.9768 14.7493 37.9584 14.8852 37.9198L16.2888 37.5213L19.1919 42.4394C20.063 43.9151 21.6334 44.7762 23.2818 44.7762C23.7219 44.7762 24.168 44.7147 24.6074 44.5872C26.0275 44.1751 27.1544 43.1503 27.6996 41.7759C28.2447 40.4016 28.1262 38.8829 27.3747 37.6096L25.7388 34.8381L30.8057 33.3993L52.2976 36.6024C53.3475 36.7595 54.2374 35.7461 53.9475 34.7252L51.2023 25.0574C50.9779 24.2673 50.1551 23.8086 49.3654 24.0329C48.5753 24.2573 48.1166 25.0797 48.3409 25.8698L50.4566 33.3206L31.8762 30.5515L28.7139 19.4149L43.066 7.29435L44.7101 13.0843C44.9345 13.8744 45.7569 14.3331 46.547 14.1088C47.3372 13.8845 47.7958 13.062 47.5715 12.2719L45.2979 4.26474C45.1599 3.7789 44.7848 3.39608 44.3016 3.24854C43.8185 3.10084 43.2936 3.20875 42.9076 3.53472L26.3062 17.5548L10.3857 22.0755C10.0063 22.1832 9.68509 22.4372 9.49301 22.7817C9.30093 23.1262 9.25343 23.533 9.36135 23.9124L9.77564 25.3715L4.0029 27.0107C3.6235 27.1185 3.30228 27.3724 3.1102 27.717C2.91812 28.0615 2.87062 28.4682 2.97854 28.8476L5.02386 36.0511ZM24.8128 39.1216C25.0938 39.5976 25.1382 40.1654 24.9344 40.6794C24.7306 41.1933 24.3092 41.5766 23.778 41.7307C22.9986 41.9566 22.166 41.6266 21.7534 40.9276L19.2468 36.6814L22.7801 35.6781L24.8128 39.1216ZM25.9966 20.7348L28.8708 30.8566L15.5032 34.6523L12.6291 24.5306L25.9966 20.7348ZM10.5882 28.2329L11.8211 32.575L7.47901 33.808L6.24609 29.4659L10.5882 28.2329Z" fill="#081776"/>
<path d="M62.0844 17.4454C62.2182 17.4454 62.3543 17.4273 62.4892 17.3891L66.0164 16.3936C66.807 16.1705 67.2668 15.3487 67.0437 14.5583C66.8206 13.7677 65.9982 13.3077 65.2085 13.531L61.6813 14.5265C60.8907 14.7496 60.4309 15.5714 60.654 16.3618C60.8389 17.0173 61.4355 17.4454 62.0844 17.4454Z" fill="#081776"/>
<path d="M54.5144 5.60029C54.9017 5.60029 55.2887 5.44992 55.5802 5.15052L58.137 2.52481C58.7102 1.93641 58.6975 0.994719 58.109 0.421751C57.5206 -0.151366 56.5789 -0.138749 56.0059 0.449657L53.4491 3.07537C52.876 3.66392 52.8886 4.60546 53.477 5.17858C53.7662 5.46016 54.1405 5.60029 54.5144 5.60029Z" fill="#081776"/>
<path d="M61.4616 31.4547L65.0139 32.356C65.812 32.5586 66.6409 32.0511 66.8281 31.251C67.0101 30.4731 66.5195 29.6691 65.7455 29.4727L62.1933 28.5714C61.3976 28.3694 60.5879 28.8511 60.3859 29.6473C60.1839 30.4435 60.6655 31.2527 61.4616 31.4547Z" fill="#081776"/>
<path d="M51.3184 54.9362L55.0024 60.2709C55.4275 60.8847 56.141 61.1443 56.8207 60.9321C57.5115 60.7163 57.9578 60.0769 57.9578 59.2889L57.8693 50.1331C57.8614 49.3118 57.1927 48.6487 56.3677 48.6603C55.5464 48.6682 54.8869 49.3406 54.8949 50.1619L54.9412 54.9477L51.055 49.3201C50.6851 48.7845 50.0098 48.5518 49.3885 48.7454C48.7671 48.9391 48.3438 49.5144 48.3438 50.1653V59.6226C48.3438 60.444 49.0096 61.1099 49.8311 61.1099C50.6525 61.1099 51.3184 60.444 51.3184 59.6226V54.9362Z" fill="#081776"/>
<path d="M38.4304 61.0093C39.2372 60.8551 39.7662 60.0761 39.6121 59.2694L37.8482 50.0397C37.847 50.0337 37.8459 50.0278 37.8448 50.0219C37.6906 49.2653 37.0446 48.7064 36.2736 48.6629C35.5013 48.6191 34.7978 49.1018 34.5595 49.8363C34.554 49.8534 34.5488 49.8704 34.5439 49.8877L33.133 54.8372L31.6683 49.873C31.6631 49.8553 31.6575 49.8376 31.6516 49.8201C31.4056 49.088 30.6952 48.6116 29.9251 48.6645C29.1546 48.7162 28.5143 49.2819 28.3683 50.0403C28.3671 50.0459 28.366 50.0517 28.365 50.0573L26.6997 59.2842C26.5538 60.0926 27.0908 60.8661 27.8991 61.012C28.708 61.1579 29.481 60.6209 29.6269 59.8126L30.3376 55.8749L31.5244 59.8974C31.5296 59.9149 31.535 59.9324 31.541 59.9498C31.7742 60.6445 32.4215 61.1097 33.1536 61.1097H33.1624C33.898 61.1061 34.5449 60.6334 34.772 59.9336C34.7775 59.9166 34.7827 59.8995 34.7876 59.8823L35.9329 55.8645L36.6903 59.8276C36.8445 60.6345 37.624 61.1636 38.4304 61.0093Z" fill="#081776"/>
<path d="M42.6758 50.1475V59.6226C42.6758 60.444 43.3417 61.1099 44.1631 61.1099C44.9846 61.1099 45.6505 60.444 45.6505 59.6226V50.1475C45.6505 49.326 44.9846 48.6602 44.1631 48.6602C43.3417 48.6602 42.6758 49.3262 42.6758 50.1475Z" fill="#081776"/>
<path d="M69.5762 53.3972H66.7418C65.9203 53.3972 65.2544 54.0631 65.2544 54.8846C65.2544 55.706 65.9203 56.3719 66.7418 56.3719H67.8594C67.5227 57.3608 66.7894 58.1349 65.4866 58.1349C63.6944 58.1349 62.2364 56.677 62.2364 54.8847C62.2364 53.0925 63.6944 51.6345 65.4866 51.6345C66.1381 51.6345 66.7661 51.8262 67.3027 52.1888C67.9835 52.6487 68.9079 52.4697 69.3676 51.7891C69.8275 51.1085 69.6485 50.1839 68.9679 49.7242C67.9376 49.0281 66.7338 48.6602 65.4864 48.6602C62.0541 48.6602 59.2617 51.4526 59.2617 54.8849C59.2617 58.3172 62.0541 61.1096 65.4864 61.1096C68.77 61.1096 71.0634 58.5498 71.0634 54.8849C71.0635 54.063 70.3976 53.3972 69.5762 53.3972Z" fill="#081776"/>
<path d="M11.0984 57.145C10.4689 56.6173 9.5308 56.6998 9.00325 57.3292C8.93022 57.4163 8.85155 57.4975 8.76931 57.5709C8.34909 57.9452 7.80714 58.1349 7.15847 58.1349C5.36623 58.1349 3.90828 56.677 3.90828 54.8847C3.90828 53.0925 5.36623 51.6345 7.15847 51.6345C7.80981 51.6345 8.43785 51.8262 8.9746 52.1888C9.65549 52.6488 10.5798 52.4695 11.0395 51.7891C11.4994 51.1083 11.3204 50.1839 10.6398 49.7242C9.60932 49.028 8.40549 48.6602 7.15832 48.6602C3.726 48.6602 0.933594 51.4526 0.933594 54.8849C0.933594 58.3172 3.726 61.1096 7.15832 61.1096C8.53879 61.1096 9.77988 60.6541 10.7475 59.7924C10.9372 59.6235 11.1173 59.4378 11.2827 59.2405C11.8105 58.6108 11.728 57.6727 11.0984 57.145Z" fill="#081776"/>
<path d="M19.1544 48.6602C15.7221 48.6602 12.9297 51.4526 12.9297 54.8849C12.9297 58.3172 15.7221 61.1096 19.1544 61.1096C22.5867 61.1096 25.3791 58.3172 25.3791 54.8849C25.3793 51.4526 22.5869 48.6602 19.1544 48.6602ZM19.1544 58.1351C17.3622 58.1351 15.9042 56.6771 15.9042 54.8849C15.9042 53.0926 17.3622 51.6347 19.1544 51.6347C20.9466 51.6347 22.4046 53.0926 22.4046 54.8849C22.4048 56.6771 20.9466 58.1351 19.1544 58.1351Z" fill="#081776"/>
<path d="M58.9146 63.551C58.0933 63.5589 57.4338 64.2313 57.4418 65.0526L57.4881 69.8384L53.6018 64.2108C53.2319 63.6753 52.5568 63.4427 51.9353 63.6361C51.314 63.8298 50.8906 64.4051 50.8906 65.056V74.5133C50.8906 75.3347 51.5565 76.0006 52.378 76.0006C53.1994 76.0006 53.8653 75.3347 53.8653 74.5133V69.8271L57.5492 75.1618C57.9744 75.7757 58.6878 76.0352 59.3676 75.8229C60.0584 75.6071 60.5048 74.9678 60.5046 74.1797L60.4162 65.0241C60.4083 64.2025 59.7354 63.5362 58.9146 63.551Z" fill="#081776"/>
<path d="M17.6969 68.4537C16.5866 68.0442 15.5494 67.5993 15.1769 67.437C15.0757 67.3384 15.0669 67.2147 15.0801 67.1221C15.1134 66.8901 15.3107 66.7035 15.6213 66.6099C16.8151 66.2496 18.173 67.2394 18.2085 67.2659C18.8545 67.7663 19.7841 67.6522 20.2894 67.0084C20.7965 66.3623 20.6838 65.4273 20.0375 64.9202C19.7785 64.717 17.4305 62.958 14.7634 63.7618C13.3412 64.1902 12.3345 65.3159 12.1357 66.6995C11.9484 68.005 12.5145 69.261 13.6134 69.9775C13.6792 70.0204 13.7482 70.0579 13.8198 70.0898C13.875 70.1145 15.1887 70.6992 16.6674 71.2447C17.2203 71.4486 17.7862 71.8059 17.7164 72.197C17.6567 72.5309 17.1842 73.0247 16.3594 73.0247C15.5019 73.0247 14.6794 72.6823 14.1597 72.1087C13.6081 71.5 12.6674 71.454 12.0588 72.0054C11.4503 72.557 11.4039 73.4977 11.9555 74.1062C13.0458 75.3093 14.651 75.9993 16.3594 75.9993C18.5031 75.9993 20.3053 74.6201 20.6446 72.72C20.9022 71.2779 20.2628 69.4002 17.6969 68.4537Z" fill="#081776"/>
<path d="M28.9474 63.5508C25.5151 63.5508 22.7227 66.3432 22.7227 69.7755C22.7227 73.2078 25.5151 76.0002 28.9474 76.0002C32.3797 76.0002 35.1721 73.2078 35.1721 69.7755C35.1723 66.3432 32.3799 63.5508 28.9474 63.5508ZM28.9474 73.0257C27.1553 73.0257 25.6972 71.5677 25.6972 69.7755C25.6972 67.9834 27.1551 66.5253 28.9474 66.5253C30.7396 66.5253 32.1976 67.9833 32.1976 69.7755C32.1977 71.5676 30.7396 73.0257 28.9474 73.0257Z" fill="#081776"/>
<path d="M42.8107 63.5508C39.3783 63.5508 36.5859 66.3432 36.5859 69.7755C36.5859 73.2078 39.3783 76.0002 42.8107 76.0002C46.243 76.0002 49.0354 73.2078 49.0354 69.7755C49.0354 66.3432 46.243 63.5508 42.8107 63.5508ZM42.8107 73.0257C41.0184 73.0257 39.5605 71.5677 39.5605 69.7755C39.5605 67.9834 41.0184 66.5253 42.8107 66.5253C44.6029 66.5253 46.0609 67.9833 46.0609 69.7755C46.0609 71.5676 44.6029 73.0257 42.8107 73.0257Z" fill="#081776"/>
</svg>
