<svg width="16" height="17" viewBox="0 0 16 17" fill="none" xmlns="http://www.w3.org/2000/svg">
<path d="M14.8933 9.04469V11.5296C14.8933 12.1884 14.335 12.5243 13.6466 12.5243H12.3164V7.65283H13.6466C14.335 7.65283 14.8933 8.38597 14.8933 9.04469Z" fill="#F2BD53"/>
<path d="M10.9145 0.269779C11.6854 0.269773 12.4318 0.541295 13.023 1.03684C13.6142 1.53239 14.0127 2.22041 14.1487 2.98052C14.2847 3.74064 14.1495 4.52446 13.7669 5.19485C13.3843 5.86525 12.7785 6.37952 12.0556 6.64771C11.3327 6.91589 10.5387 6.92092 9.81249 6.66189C9.08627 6.40287 8.47407 5.8963 8.08303 5.2308C7.69198 4.5653 7.54698 3.78325 7.67339 3.02147C7.79979 2.25969 8.18956 1.56669 8.77449 1.06371C9.36967 0.550452 10.1292 0.268671 10.9145 0.269779Z" fill="#EAEAEA"/>
<path d="M9.73827 14.6305C9.73827 14.6541 9.73827 14.6769 9.73827 14.7001C9.73036 14.9055 9.6821 15.1073 9.59623 15.2939C9.51036 15.4806 9.38857 15.6484 9.23786 15.7878C9.08714 15.9272 8.91044 16.0355 8.71789 16.1064C8.52534 16.1773 8.32071 16.2095 8.11574 16.201C7.68823 16.2105 7.27417 16.0511 6.96306 15.7572C6.65194 15.4633 6.46877 15.0586 6.45312 14.6305C6.45374 14.4215 6.49717 14.2148 6.58073 14.0233C6.66429 13.8318 6.78621 13.6595 6.93893 13.5171C7.25374 13.2219 7.66922 13.0582 8.10046 13.0596C8.53171 13.0609 8.94616 13.2273 9.25909 13.5245C9.40931 13.6669 9.52921 13.8383 9.61156 14.0284C9.69391 14.2185 9.73702 14.4233 9.73827 14.6305Z" fill="#6295FF"/>
<path d="M3.04645 7.65278V12.5236H1.50845C1.18524 12.5309 0.872356 12.4093 0.638573 12.1856C0.404791 11.9619 0.269241 11.6544 0.261719 11.3306V8.84533C0.269241 8.52156 0.404791 8.21403 0.638573 7.99034C0.872356 7.76665 1.18524 7.6451 1.50845 7.65241H3.04645V7.65278Z" fill="#F2BD53"/>
<path d="M13.6459 7.39954H13.4521V6.22062C13.4521 6.16499 13.4521 6.10826 13.4521 6.05115C14.0863 5.40446 14.4502 4.53961 14.4694 3.63323C14.4886 2.72685 14.1616 1.84731 13.5553 1.17426C12.949 0.501197 12.1091 0.085393 11.2071 0.0117611C10.3051 -0.0618708 9.40909 0.212225 8.70202 0.77807C8.55491 0.752281 8.40781 0.73165 8.26254 0.716913C8.07167 0.697756 7.87455 0.687072 7.6789 0.685967C4.49481 0.685967 1.90207 3.16906 1.90207 6.22136V7.40028H1.50783C1.31394 7.39539 1.12099 7.42895 0.940097 7.49905C0.759203 7.56914 0.593932 7.67438 0.453794 7.8087C0.313656 7.94303 0.201417 8.10379 0.123536 8.28174C0.0456562 8.45968 0.00367214 8.6513 0 8.84556V11.3309C0.00353771 11.5255 0.0453749 11.7175 0.123114 11.896C0.200853 12.0744 0.312968 12.2357 0.453034 12.3706C0.593101 12.5055 0.758368 12.6115 0.939368 12.6823C1.12037 12.7532 1.31354 12.7876 1.50783 12.7835H3.04582C3.07995 12.7841 3.11385 12.7778 3.14547 12.7649C3.1771 12.7521 3.20581 12.7329 3.22986 12.7087C3.25391 12.6844 3.27281 12.6555 3.28542 12.6238C3.29804 12.592 3.3041 12.558 3.30325 12.5238V7.65264C3.30398 7.6188 3.29779 7.58516 3.28505 7.5538C3.2723 7.52245 3.25329 7.49404 3.22917 7.47032C3.20505 7.44661 3.17634 7.4281 3.14481 7.41593C3.11327 7.40375 3.07958 7.39818 3.04582 7.39954H2.4368V6.22062C2.4368 3.46343 4.79049 1.22016 7.67743 1.22016C7.85469 1.22016 8.03379 1.23085 8.20848 1.24853H8.21363C7.77246 1.76552 7.48841 2.39831 7.39511 3.072C7.30181 3.74569 7.40317 4.43206 7.68719 5.04983C7.97121 5.6676 8.426 6.1909 8.9977 6.55777C9.5694 6.92465 10.2341 7.11973 10.913 7.11992C11.6292 7.12415 12.3294 6.90713 12.9181 6.49841V7.39917H12.3157C12.2815 7.39763 12.2473 7.40303 12.2153 7.41504C12.1832 7.42705 12.1539 7.44543 12.1291 7.46907C12.1043 7.4927 12.0845 7.52111 12.0709 7.5526C12.0574 7.58408 12.0503 7.61798 12.0501 7.65227V12.5234C12.0502 12.558 12.0571 12.5923 12.0706 12.6242C12.084 12.6561 12.1037 12.685 12.1284 12.7092C12.1531 12.7334 12.1824 12.7524 12.2146 12.7651C12.2467 12.7778 12.2811 12.7839 12.3157 12.7832H13.0795L12.8717 13.0565C12.5287 13.4882 12.0888 13.8327 11.5878 14.0619C11.0867 14.2911 10.5388 14.3985 9.98846 14.3754C9.92994 13.9764 9.73944 13.6086 9.44748 13.331C9.08487 12.9862 8.60444 12.7934 8.10454 12.7919C7.60464 12.7904 7.12306 12.9803 6.75839 13.3229C6.57866 13.4891 6.43527 13.6909 6.33728 13.9154C6.23929 14.1399 6.18882 14.3824 6.18906 14.6274C6.18931 14.8725 6.24025 15.1148 6.33869 15.3392C6.43712 15.5635 6.5809 15.765 6.76096 15.9309C7.12784 16.2781 7.614 16.4707 8.11875 16.4687C8.56631 16.4804 9.00291 16.3292 9.34775 16.0431C9.69258 15.7571 9.92229 15.3556 9.99434 14.9129C10.0366 14.9129 10.0789 14.9152 10.1212 14.9152C10.7308 14.9175 11.333 14.7814 11.8825 14.5169C12.432 14.2525 12.9144 13.8667 13.2935 13.3885L13.7544 12.7879C14.5976 12.7478 15.1519 12.2523 15.1519 11.5294V9.0445C15.1443 8.63617 14.9934 8.24356 14.7256 7.93558C14.5961 7.77219 14.4321 7.63943 14.2455 7.54678C14.0589 7.45412 13.8541 7.40385 13.6459 7.39954ZM2.77036 12.2482H1.50783C1.38362 12.2524 1.25982 12.2319 1.14353 12.188C1.02725 12.1441 0.920776 12.0776 0.830241 11.9923C0.739706 11.907 0.666892 11.8046 0.615988 11.6911C0.565084 11.5775 0.537093 11.4549 0.533625 11.3305V8.84556C0.537223 8.72145 0.565353 8.59929 0.616389 8.48614C0.667424 8.37299 0.740352 8.27111 0.830951 8.18638C0.921551 8.10165 1.02802 8.03576 1.14421 7.99252C1.26039 7.94928 1.38398 7.92955 1.50783 7.93448H2.77L2.77036 12.2482ZM7.89662 3.56142C7.89652 3.12714 7.98983 2.69793 8.17019 2.303C8.35054 1.90809 8.61372 1.55673 8.9418 1.27285L8.94952 1.26658C9.4721 0.817537 10.1322 0.560937 10.8204 0.539348C11.5085 0.517758 12.1834 0.732476 12.733 1.14789C13.2826 1.5633 13.6739 2.15444 13.842 2.82325C14.0102 3.49207 13.9451 4.19838 13.6574 4.82502C13.3698 5.45166 12.877 5.96098 12.2608 6.2685C11.6445 6.57602 10.9418 6.66326 10.2692 6.51575C9.59669 6.36824 8.99467 5.99484 8.56306 5.45749C8.13144 4.92014 7.89617 4.25113 7.89625 3.56142H7.89662ZM8.11728 15.9338C7.76111 15.9412 7.41609 15.8093 7.15549 15.566C6.89489 15.3227 6.73924 14.9872 6.72161 14.6307C6.72213 14.4581 6.75811 14.2875 6.82733 14.1294C6.89655 13.9713 6.99752 13.8292 7.12395 13.7119C7.38894 13.4641 7.73826 13.3267 8.10079 13.3278C8.46332 13.3289 8.81181 13.4684 9.0753 13.7178C9.19968 13.8352 9.29893 13.9767 9.36702 14.1337C9.43511 14.2907 9.47061 14.4599 9.47138 14.6311C9.47138 14.6348 9.47138 14.6388 9.47138 14.6425C9.47138 14.6621 9.47138 14.6812 9.47138 14.7004C9.45376 15.0433 9.30159 15.3653 9.04804 15.5963C8.79448 15.8273 8.46007 15.9486 8.11765 15.9338H8.11728ZM14.6204 11.5291C14.6204 12.0647 14.1199 12.2478 13.6462 12.2478H12.5841V7.93448H13.6459C13.9158 7.9677 14.1641 8.09907 14.3437 8.30364C14.5233 8.5082 14.6216 8.77172 14.6201 9.04414L14.6204 11.5291Z" fill="white"/>
<path d="M10.9347 1.15347C10.7401 1.15069 10.5469 1.18668 10.3663 1.25936C10.1858 1.33204 10.0214 1.43996 9.8828 1.57684C9.74422 1.71372 9.63416 1.87683 9.55906 2.05669C9.48395 2.23655 9.44529 2.42958 9.44531 2.62454V2.88648H9.9793V2.62454C9.97919 2.45204 10.0267 2.28286 10.1165 2.1357C10.2064 1.98853 10.3351 1.86911 10.4884 1.79062C10.6417 1.71213 10.8138 1.67763 10.9854 1.69093C11.1571 1.70423 11.3218 1.76482 11.4613 1.86599C11.6007 1.96716 11.7096 2.10498 11.7758 2.26423C11.842 2.42348 11.8629 2.59796 11.8363 2.7684C11.8097 2.93883 11.7366 3.09859 11.6251 3.23002C11.5136 3.36144 11.3679 3.45943 11.2043 3.51315C11.0413 3.56705 10.8995 3.67132 10.7993 3.81098C10.6992 3.95065 10.6458 4.11853 10.6468 4.2905V5.05975H11.1808V4.2894C11.18 4.23033 11.1979 4.17252 11.2319 4.12427C11.2659 4.07602 11.3143 4.03981 11.3702 4.02082C11.7004 3.91266 11.9816 3.69064 12.1637 3.39427C12.3458 3.09791 12.417 2.74643 12.3647 2.40238C12.3124 2.05832 12.14 1.74402 11.8781 1.51539C11.6162 1.28677 11.2818 1.15865 10.9344 1.15384L10.9347 1.15347Z" fill="#051878"/>
<path d="M11.1824 5.22583H10.6484V5.96155H11.1824V5.22583Z" fill="#A1BDE5"/>
</svg>
