<svg width="68" height="68" viewBox="0 0 68 68" fill="none" xmlns="http://www.w3.org/2000/svg">
<path d="M34.0013 67.3327C49.6494 67.3327 62.3346 54.6474 62.3346 38.9993C62.3346 23.3513 49.6494 10.666 34.0013 10.666C18.3532 10.666 5.66797 23.3513 5.66797 38.9993C5.66797 54.6474 18.3532 67.3327 34.0013 67.3327Z" fill="#F3C15E"/>
<path d="M33.9949 42.333C33.3673 42.3326 32.7526 42.1549 32.2215 41.8205C31.6903 41.4862 31.2644 41.0086 30.9927 40.4429C30.721 39.8772 30.6145 39.2462 30.6855 38.6226C30.7565 37.999 31.0021 37.4082 31.394 36.918L38.0607 28.5847C38.6137 27.8969 39.4169 27.4564 40.2942 27.3599C41.1714 27.2633 42.0512 27.5185 42.7405 28.0696C43.4299 28.6207 43.8727 29.4226 43.9717 30.2996C44.0708 31.1766 43.8181 32.057 43.269 32.748L36.6023 41.0813C36.2898 41.4725 35.893 41.7882 35.4416 42.0049C34.9901 42.2217 34.4957 42.3338 33.9949 42.333Z" fill="white"/>
<path d="M64.0012 20.666C63.5634 20.6665 63.1298 20.5805 62.7254 20.4129C62.3209 20.2453 61.9536 19.9994 61.6445 19.6893L54.9778 13.0227C54.3621 12.3957 54.0189 11.551 54.0229 10.6723C54.0269 9.79355 54.3777 8.95195 54.9991 8.3306C55.6204 7.70924 56.462 7.35841 57.3407 7.35443C58.2195 7.35045 59.0642 7.69365 59.6912 8.30935L66.3578 14.976C66.8239 15.4422 67.1412 16.0361 67.2698 16.6826C67.3983 17.3291 67.3323 17.9992 67.0801 18.6082C66.8279 19.2172 66.4007 19.7377 65.8527 20.104C65.3047 20.4703 64.6603 20.6659 64.0012 20.666ZM4.0045 20.6627C3.34533 20.6625 2.701 20.467 2.15297 20.1007C1.60494 19.7344 1.17781 19.2139 0.925572 18.6049C0.673338 17.9959 0.607328 17.3258 0.735887 16.6792C0.864445 16.0327 1.1818 15.4389 1.64783 14.9727L8.3145 8.30602C8.62322 7.99305 8.99081 7.74426 9.39609 7.57396C9.80137 7.40366 10.2363 7.31521 10.6759 7.31372C11.1155 7.31222 11.5511 7.39771 11.9575 7.56526C12.364 7.7328 12.7332 7.97909 13.0441 8.28994C13.3549 8.6008 13.6012 8.97008 13.7687 9.37651C13.9363 9.78294 14.0217 10.2185 14.0202 10.6581C14.0187 11.0977 13.9302 11.5327 13.7599 11.938C13.5896 12.3432 13.3408 12.7108 13.0278 13.0195L6.36116 19.6862C6.05205 19.9962 5.68472 20.242 5.28029 20.4096C4.87585 20.5772 4.44228 20.6632 4.0045 20.6627ZM34.0012 17.3327C33.5634 17.3329 33.1298 17.2469 32.7253 17.0795C32.3207 16.912 31.9532 16.6665 31.6436 16.3569C31.334 16.0474 31.0885 15.6798 30.9211 15.2753C30.7536 14.8707 30.6676 14.4372 30.6678 13.9993V3.99935C30.6678 3.11529 31.019 2.26745 31.6441 1.64233C32.2693 1.0172 33.1171 0.666016 34.0012 0.666016C34.8852 0.666016 35.7331 1.0172 36.3582 1.64233C36.9833 2.26745 37.3345 3.11529 37.3345 3.99935V13.9993C37.3347 14.4372 37.2487 14.8707 37.0813 15.2753C36.9138 15.6798 36.6683 16.0474 36.3587 16.3569C36.0492 16.6665 35.6816 16.912 35.2771 17.0795C34.8725 17.2469 34.439 17.3329 34.0012 17.3327Z" fill="#004FAC"/>
<path d="M34.0013 67.3327C28.3975 67.3327 22.9196 65.671 18.2602 62.5577C13.6008 59.4444 9.96921 55.0193 7.82473 49.8421C5.68025 44.6648 5.11915 38.9679 6.2124 33.4718C7.30565 27.9757 10.0041 22.9272 13.9666 18.9647C17.9291 15.0022 22.9776 12.3037 28.4738 11.2104C33.9699 10.1172 39.6668 10.6783 44.844 12.8228C50.0213 14.9673 54.4463 18.5988 57.5596 23.2582C60.6729 27.9176 62.3346 33.3956 62.3346 38.9994C62.3257 46.5111 59.3377 53.7126 54.0261 59.0242C48.7145 64.3358 41.513 67.3237 34.0013 67.3327ZM34.0013 17.3327C29.7161 17.3327 25.527 18.6034 21.964 20.9842C18.4009 23.3649 15.6238 26.7488 13.9839 30.7079C12.344 34.667 11.915 39.0234 12.751 43.2263C13.587 47.4292 15.6505 51.2899 18.6807 54.32C21.7108 57.3501 25.5714 59.4137 29.7744 60.2497C33.9773 61.0857 38.3337 60.6566 42.2928 59.0168C46.2519 57.3769 49.6357 54.5998 52.0165 51.0367C54.3973 47.4736 55.668 43.2846 55.668 38.9994C55.6613 33.255 53.3765 27.7479 49.3146 23.6861C45.2528 19.6242 39.7456 17.3393 34.0013 17.3327Z" fill="#004FAC"/>
<path d="M40.6667 7.33268H27.3333C26.4493 7.33268 25.6014 6.98149 24.9763 6.35637C24.3512 5.73125 24 4.8834 24 3.99935C24 3.11529 24.3512 2.26745 24.9763 1.64233C25.6014 1.0172 26.4493 0.666016 27.3333 0.666016H40.6667C41.5507 0.666016 42.3986 1.0172 43.0237 1.64233C43.6488 2.26745 44 3.11529 44 3.99935C44 4.8834 43.6488 5.73125 43.0237 6.35637C42.3986 6.98149 41.5507 7.33268 40.6667 7.33268Z" fill="#004FAC"/>
</svg>
