<svg width="80" height="80" viewBox="0 0 80 80" fill="none" xmlns="http://www.w3.org/2000/svg">
<path d="M70 3.75H10C5.875 3.75 2.5 7.125 2.5 11.25V61.25C2.5 62.625 3.625 63.75 5 63.75H27.5C28.875 63.75 30 62.625 30 61.25C30 55.725 34.475 51.25 40 51.25C45.525 51.25 50 55.725 50 61.25C50 62.625 51.125 63.75 52.5 63.75H75C76.375 63.75 77.5 62.625 77.5 61.25V11.25C77.5 7.125 74.125 3.75 70 3.75Z" fill="#F3C15E"/>
<path d="M77.5 11.25V61.25C77.5 62.625 76.375 63.75 75 63.75H52.5C51.125 63.75 50 62.625 50 61.25C50 55.725 45.525 51.25 40 51.25C34.475 51.25 30 55.725 30 61.25C30 62.625 28.875 63.75 27.5 63.75H8.125C13.65 62.7 18.95 61 23.925 58.75C35.25 53.6 44.975 45.525 52.1 35.5L52.125 35.475C52.2 35.35 52.3 35.225 52.375 35.1C53.025 34.2 53.65 33.275 54.225 32.325C54.225 32.3 54.25 32.275 54.275 32.25C54.925 31.225 55.575 30.15 56.175 29.075V29.05C59.65 22.8 62.2 15.975 63.65 8.75C63.975 7.1 64.25 5.425 64.45 3.75H70C74.125 3.75 77.5 7.125 77.5 11.25Z" fill="#D9A328"/>
<path d="M56.1175 29.0125L31.1175 16.5125C30.3425 16.1275 29.425 16.1675 28.685 16.6225C27.95 17.08 27.5 17.8825 27.5 18.75V43.75C27.5 44.6175 27.95 45.42 28.685 45.8775C29.0875 46.125 29.5425 46.25 30 46.25C30.3825 46.25 30.765 46.1625 31.1175 45.9875L56.1175 33.4875C56.965 33.0625 57.5 32.1975 57.5 31.25C57.5 30.3025 56.965 29.4375 56.1175 29.0125Z" fill="white"/>
<path d="M57.5016 31.2508C57.5016 32.2008 56.9766 33.0758 56.1266 33.4758L52.1016 35.5008C53.5766 33.4258 54.9266 31.2758 56.1766 29.0508C57.0016 29.4758 57.5016 30.3258 57.5016 31.2508Z" fill="#A1BDE5" fill-opacity="0.5"/>
<path d="M40 68.75C44.1421 68.75 47.5 65.3921 47.5 61.25C47.5 57.1079 44.1421 53.75 40 53.75C35.8579 53.75 32.5 57.1079 32.5 61.25C32.5 65.3921 35.8579 68.75 40 68.75Z" fill="#263238"/>
<path d="M75 76.25H5C3.62 76.25 2.5 75.13 2.5 73.75C2.5 72.37 3.62 71.25 5 71.25H75C76.38 71.25 77.5 72.37 77.5 73.75C77.5 75.13 76.38 76.25 75 76.25Z" fill="#263238"/>
</svg>
