<svg width="21" height="21" viewBox="0 0 21 21" fill="none" xmlns="http://www.w3.org/2000/svg">
<path d="M10.5606 0H10.0455C4.4975 0 0 4.4975 0 10.0455C0 15.5934 4.4975 20.0909 10.0455 20.0909H10.5606C16.1086 20.0909 20.6061 15.5934 20.6061 10.0455C20.6061 4.4975 16.1086 0 10.5606 0Z" fill="#45D354"/>
<path d="M12.1236 10.5824C12.0041 10.503 11.8851 10.4628 11.7656 10.622L11.288 11.2588C11.2408 11.3044 11.1798 11.3331 11.1145 11.3403C11.0492 11.3474 10.9834 11.3327 10.9274 11.2984C10.0324 10.917 9.28059 10.2627 8.77922 9.42894C8.76471 9.37001 8.76835 9.30807 8.78968 9.25125C8.81101 9.19444 8.84903 9.14539 8.89874 9.11057L9.25935 8.5537C9.33868 8.47436 9.29901 8.39452 9.25935 8.31518L8.78077 7.15918C8.66125 6.84082 8.54226 6.88048 8.42016 6.88048H8.1018C7.9488 6.89386 7.80661 6.96496 7.7041 7.07933C6.82835 7.95509 7.18895 9.18785 7.82362 9.98324C8.44929 11.0071 9.36323 11.8236 10.4509 12.3303C11.7238 12.8871 12.0025 12.8078 12.3606 12.728C12.5847 12.6903 12.7975 12.6028 12.9834 12.472C13.1693 12.3413 13.3235 12.1705 13.4346 11.9722C13.4743 11.8527 13.6732 11.3355 13.514 11.2562" fill="white"/>
<path d="M10.3719 14.9976C9.354 14.9796 8.36159 14.6762 7.50766 14.1219L5.55833 14.637L6.03588 12.7274C5.5349 11.8832 5.26089 10.9238 5.24048 9.94245C5.24672 8.55202 5.80204 7.22036 6.78552 6.23746C7.769 5.25456 9.10099 4.70002 10.4914 4.6946C11.1544 4.68958 11.8117 4.81712 12.4247 5.06973C13.0377 5.32234 13.5941 5.69493 14.061 6.16559C14.528 6.63626 14.8962 7.19551 15.144 7.81048C15.3917 8.42546 15.5141 9.08376 15.5038 9.74669C15.505 11.1192 14.9684 12.4375 14.0091 13.4191C13.0498 14.4006 11.7441 14.9673 10.3719 14.9976ZM4.04688 16.1516L7.349 15.2367C8.30524 15.7264 9.37105 15.9628 10.4447 15.9233C11.5183 15.8839 12.5639 15.5698 13.4816 15.0112C14.3993 14.4526 15.1585 13.6681 15.6867 12.7326C16.2148 11.797 16.4944 10.7417 16.4986 9.66736C16.5058 8.85893 16.3525 8.05711 16.0476 7.30833C15.7427 6.55956 15.2923 5.8787 14.7225 5.30519C14.1527 4.73168 13.4748 4.27691 12.728 3.96721C11.9812 3.65752 11.1804 3.49905 10.3719 3.50099C9.2737 3.50355 8.19534 3.79384 7.24425 4.34292C6.29316 4.892 5.50256 5.68071 4.9512 6.63048C4.39984 7.58025 4.10697 8.65792 4.10178 9.75611C4.09658 10.8543 4.37925 11.9347 4.9216 12.8896" fill="white"/>
</svg>
